<svg id="svg" version="1.1" xmlns="http://www.w3.org/2000/svg" xmlns:xlink="http://www.w3.org/1999/xlink" width="400" height="400" viewBox="0, 0, 400,400"><g id="svgg"><path id="path0" d="M338.623 46.763 C 338.505 46.953,338.804 47.212,339.287 47.339 C 340.436 47.639,340.545 47.483,339.600 46.893 C 339.181 46.631,338.741 46.572,338.623 46.763 M337.200 48.200 C 336.893 48.570,336.785 49.352,336.923 50.203 C 337.161 51.669,336.624 52.064,335.680 51.120 C 335.334 50.774,335.200 50.768,335.200 51.096 C 335.200 51.347,335.380 51.664,335.600 51.800 C 335.820 51.936,336.000 52.451,336.000 52.944 C 336.000 53.437,336.216 54.056,336.480 54.320 C 336.853 54.693,336.853 54.800,336.480 54.800 C 336.216 54.800,336.000 54.620,336.000 54.400 C 336.000 54.180,335.820 54.000,335.600 54.000 C 335.026 54.000,335.106 55.090,335.700 55.363 C 335.975 55.489,335.794 55.492,335.299 55.369 C 334.177 55.091,333.030 56.070,333.697 56.737 C 334.024 57.064,333.915 57.380,333.286 57.926 C 332.653 58.475,332.546 58.786,332.877 59.117 C 333.209 59.449,333.201 59.717,332.846 60.144 C 332.471 60.597,332.479 60.762,332.883 60.906 C 333.253 61.038,333.135 61.378,332.471 62.102 C 331.859 62.768,331.707 63.169,332.025 63.275 C 332.572 63.457,331.989 64.713,330.610 66.321 C 330.013 67.018,329.942 67.317,330.320 67.551 C 330.693 67.781,330.615 68.044,330.009 68.591 C 329.564 68.994,329.200 69.131,329.200 68.895 C 329.200 68.660,329.425 68.386,329.700 68.288 C 329.975 68.190,330.074 67.973,329.919 67.807 C 329.765 67.641,329.368 67.775,329.038 68.105 C 328.708 68.435,328.560 68.826,328.708 68.975 C 329.381 69.648,329.147 72.153,328.345 72.848 C 327.709 73.399,327.587 73.829,327.795 74.779 C 328.006 75.738,327.928 76.000,327.432 76.000 C 327.018 76.000,326.800 76.359,326.800 77.037 C 326.800 77.738,326.541 78.143,326.000 78.284 C 325.028 78.538,325.009 78.726,325.864 79.671 C 326.694 80.588,326.231 81.137,325.182 80.481 C 324.266 79.910,324.124 80.473,325.000 81.200 C 325.330 81.474,325.600 81.856,325.600 82.049 C 325.600 82.593,324.092 82.463,323.865 81.900 C 323.723 81.548,323.654 81.540,323.632 81.871 C 323.614 82.131,323.892 82.635,324.250 82.993 C 324.850 83.592,324.830 83.717,323.996 84.604 C 323.301 85.345,323.150 85.848,323.340 86.798 C 323.502 87.608,323.253 89.020,322.614 90.915 C 322.002 92.733,321.782 93.941,322.021 94.180 C 322.713 94.874,322.454 95.671,321.623 95.407 C 320.774 95.138,320.571 96.510,321.316 97.495 C 321.840 98.189,321.364 99.200,320.513 99.199 C 319.897 99.199,319.819 99.505,319.939 101.440 C 320.019 102.725,319.891 103.869,319.639 104.121 C 319.398 104.362,319.200 105.143,319.200 105.856 C 319.200 106.569,319.020 107.264,318.800 107.400 C 318.580 107.536,318.400 108.897,318.400 110.424 C 318.400 112.008,318.228 113.200,318.000 113.200 C 317.780 113.200,317.600 112.761,317.600 112.224 C 317.600 111.687,317.420 111.136,317.200 111.000 C 316.950 110.846,316.800 111.655,316.800 113.153 C 316.800 114.473,316.980 115.664,317.200 115.800 C 317.944 116.260,317.654 118.061,316.800 118.284 C 315.936 118.510,315.759 119.004,316.400 119.400 C 316.985 119.762,316.900 123.097,316.300 123.317 C 315.900 123.463,315.900 123.606,316.300 124.030 C 316.899 124.665,316.961 126.254,316.400 126.600 C 316.180 126.736,316.000 127.276,316.000 127.800 C 316.000 128.324,315.844 128.849,315.653 128.968 C 314.970 129.389,314.786 132.281,315.370 133.407 C 315.891 134.411,315.863 134.566,315.024 135.349 C 314.356 135.973,314.197 136.414,314.428 137.000 C 314.948 138.317,314.840 139.869,314.191 140.407 C 313.854 140.687,313.683 141.230,313.807 141.623 C 313.931 142.013,313.849 142.446,313.624 142.585 C 313.354 142.752,313.377 143.094,313.694 143.602 C 314.091 144.238,314.024 144.523,313.293 145.301 L 312.414 146.236 313.307 147.143 L 314.200 148.049 313.300 148.788 C 312.324 149.590,312.114 150.638,312.877 150.892 C 313.184 150.995,312.951 151.580,312.223 152.534 C 311.190 153.888,311.146 154.078,311.712 154.709 C 312.278 155.339,312.247 155.507,311.369 156.600 C 310.240 158.003,310.166 158.400,311.029 158.400 C 311.495 158.400,311.343 158.782,310.442 159.875 C 309.525 160.988,309.334 161.479,309.662 161.875 C 309.978 162.255,309.974 162.400,309.649 162.400 C 309.402 162.400,309.200 162.703,309.200 163.074 C 309.200 163.445,308.813 164.160,308.340 164.664 C 307.547 165.508,307.534 165.600,308.180 165.848 C 308.594 166.007,309.040 165.888,309.271 165.558 C 309.596 165.093,309.635 165.100,309.505 165.600 C 309.419 165.930,308.986 166.364,308.543 166.565 C 307.566 167.008,306.629 168.978,306.971 169.869 C 307.108 170.225,306.935 170.830,306.587 171.214 C 306.239 171.599,305.905 172.383,305.843 172.957 C 305.782 173.531,305.612 174.121,305.466 174.267 C 305.040 174.693,305.159 176.000,305.624 176.000 C 305.857 176.000,305.931 176.189,305.788 176.419 C 305.614 176.701,305.319 176.669,304.889 176.319 C 304.342 175.875,304.288 175.901,304.515 176.506 C 304.668 176.913,304.445 177.807,303.990 178.618 C 303.555 179.392,303.198 180.334,303.197 180.712 C 303.195 181.090,302.322 182.295,301.257 183.389 C 300.183 184.492,299.392 185.650,299.480 185.989 C 299.572 186.342,299.250 186.769,298.719 187.000 C 298.214 187.220,297.635 187.775,297.434 188.234 C 297.232 188.692,296.695 189.232,296.241 189.434 C 295.786 189.635,295.204 190.225,294.948 190.745 C 294.691 191.265,293.608 192.576,292.541 193.660 C 290.927 195.298,290.702 195.699,291.200 196.041 C 291.676 196.367,291.627 196.404,290.967 196.221 C 290.421 196.069,289.883 196.266,289.405 196.794 C 289.004 197.237,288.477 197.600,288.233 197.600 C 287.989 197.600,287.612 198.002,287.395 198.493 C 287.178 198.984,286.566 199.600,286.036 199.862 C 285.506 200.123,284.740 201.062,284.334 201.947 C 283.929 202.833,283.218 203.822,282.755 204.147 C 282.237 204.510,282.032 204.928,282.222 205.236 C 282.444 205.595,282.327 205.658,281.808 205.458 C 281.365 205.288,280.804 205.435,280.361 205.835 C 279.346 206.754,276.005 208.400,275.156 208.400 C 274.766 208.400,274.336 208.580,274.200 208.800 C 274.064 209.020,273.423 209.200,272.776 209.200 C 272.129 209.200,271.600 209.380,271.600 209.600 C 271.600 209.820,271.060 210.000,270.400 210.000 C 269.740 210.000,269.200 210.180,269.200 210.400 C 269.200 210.620,268.851 210.800,268.424 210.800 C 267.997 210.800,267.536 210.980,267.400 211.200 C 267.264 211.420,266.724 211.600,266.200 211.600 C 265.676 211.600,265.136 211.780,265.000 212.000 C 264.864 212.220,264.324 212.400,263.800 212.400 C 263.276 212.400,262.736 212.580,262.600 212.800 C 262.464 213.020,261.924 213.200,261.400 213.200 C 260.876 213.200,260.336 213.380,260.200 213.600 C 260.064 213.820,259.524 214.000,259.000 214.000 C 258.476 214.000,257.936 214.180,257.800 214.400 C 257.664 214.620,257.018 214.800,256.364 214.800 C 255.676 214.800,255.078 215.053,254.945 215.400 C 254.815 215.738,254.219 216.000,253.581 216.000 C 252.957 216.000,252.336 216.180,252.200 216.400 C 252.064 216.620,251.417 216.800,250.762 216.800 C 250.108 216.800,249.119 217.097,248.565 217.460 C 247.607 218.087,247.529 218.077,246.952 217.253 C 246.193 216.169,245.544 216.518,245.690 217.930 C 245.760 218.616,245.621 218.964,245.300 218.900 C 245.025 218.845,244.800 219.048,244.800 219.351 C 244.800 219.654,244.517 220.137,244.172 220.423 C 243.827 220.710,243.633 221.283,243.741 221.697 C 243.854 222.128,243.695 222.542,243.369 222.667 C 243.056 222.787,242.800 223.136,242.800 223.443 C 242.800 223.749,242.620 224.000,242.400 224.000 C 242.180 224.000,242.000 224.360,242.000 224.800 C 242.000 225.240,241.840 225.600,241.643 225.600 C 241.447 225.600,241.172 226.055,241.033 226.612 C 240.893 227.168,240.340 228.006,239.803 228.472 C 239.266 228.939,238.908 229.451,239.006 229.610 C 239.104 229.769,238.738 230.235,238.192 230.645 C 237.647 231.054,237.200 231.540,237.200 231.724 C 237.200 232.244,236.124 233.191,235.848 232.914 C 235.711 232.778,235.600 232.885,235.600 233.152 C 235.600 233.418,235.195 234.070,234.700 234.599 C 233.118 236.291,232.800 236.753,232.800 237.360 C 232.800 237.686,232.620 238.064,232.400 238.200 C 231.938 238.485,231.851 243.717,232.300 244.167 C 232.606 244.473,232.658 244.671,232.755 245.900 C 232.839 246.956,237.100 252.000,237.909 252.000 C 238.114 252.000,238.846 252.540,239.537 253.200 C 240.228 253.860,241.064 254.400,241.396 254.400 C 241.728 254.400,242.000 254.580,242.000 254.800 C 242.000 255.020,242.197 255.200,242.437 255.200 C 242.677 255.200,243.328 255.558,243.884 255.995 C 244.439 256.432,245.053 256.691,245.247 256.571 C 245.441 256.451,245.601 256.498,245.603 256.676 C 245.607 257.054,247.520 258.000,248.280 258.000 C 248.566 258.000,248.800 258.180,248.800 258.400 C 248.800 258.620,249.160 258.800,249.600 258.800 C 250.040 258.800,250.400 258.980,250.400 259.200 C 250.400 259.420,250.940 259.600,251.600 259.600 C 252.260 259.600,252.800 259.780,252.800 260.000 C 252.800 260.220,253.239 260.400,253.776 260.400 C 254.313 260.400,254.864 260.580,255.000 260.800 C 255.136 261.020,255.766 261.200,256.400 261.200 C 257.034 261.200,257.664 261.380,257.800 261.600 C 257.936 261.820,258.577 262.000,259.224 262.000 C 259.871 262.000,260.400 262.180,260.400 262.400 C 260.400 262.620,261.210 262.800,262.200 262.800 C 263.190 262.800,264.000 262.980,264.000 263.200 C 264.000 263.420,264.900 263.600,266.000 263.600 C 267.100 263.600,268.000 263.780,268.000 264.000 C 268.000 264.220,268.879 264.400,269.954 264.400 C 271.029 264.400,272.375 264.642,272.946 264.938 C 273.516 265.234,275.010 265.510,276.265 265.551 C 277.521 265.592,278.744 265.788,278.983 265.986 C 279.901 266.748,311.359 267.514,311.809 266.785 C 311.940 266.573,313.531 266.400,315.344 266.400 C 317.157 266.400,318.811 266.237,319.020 266.038 C 319.229 265.838,320.475 265.584,321.789 265.472 C 323.102 265.360,324.242 265.073,324.322 264.834 C 324.402 264.595,325.262 264.400,326.233 264.400 C 327.205 264.400,328.000 264.220,328.000 264.000 C 328.000 263.780,328.720 263.600,329.600 263.600 C 330.480 263.600,331.200 263.420,331.200 263.200 C 331.200 262.980,331.740 262.800,332.400 262.800 C 333.060 262.800,333.600 262.620,333.600 262.400 C 333.600 262.180,334.230 262.000,335.000 262.000 C 335.770 262.000,336.400 261.820,336.400 261.600 C 336.400 261.380,336.940 261.200,337.600 261.200 C 338.260 261.200,338.800 261.020,338.800 260.800 C 338.800 260.580,339.239 260.400,339.776 260.400 C 340.313 260.400,340.864 260.220,341.000 260.000 C 341.136 259.780,341.597 259.600,342.024 259.600 C 342.451 259.600,342.800 259.420,342.800 259.200 C 342.800 258.980,343.160 258.800,343.600 258.800 C 344.040 258.800,344.400 258.620,344.400 258.400 C 344.400 258.180,344.749 258.000,345.176 258.000 C 345.603 258.000,346.064 257.820,346.200 257.600 C 346.336 257.380,346.797 257.200,347.224 257.200 C 347.651 257.200,348.002 257.065,348.005 256.900 C 348.007 256.735,348.727 256.256,349.605 255.836 C 350.482 255.415,351.200 254.920,351.200 254.736 C 351.200 254.551,351.560 254.400,352.000 254.400 C 352.440 254.400,352.801 254.265,352.803 254.100 C 352.805 253.935,353.210 253.602,353.703 253.360 C 356.108 252.179,358.000 251.019,358.000 250.726 C 358.000 250.547,358.272 250.400,358.604 250.400 C 358.936 250.400,359.772 249.860,360.463 249.200 C 361.154 248.540,361.878 248.000,362.073 248.000 C 362.267 248.000,363.041 247.415,363.792 246.700 C 365.546 245.029,366.311 244.400,366.590 244.400 C 366.994 244.400,379.200 232.034,379.200 231.625 C 379.200 231.406,379.830 230.597,380.600 229.827 C 381.370 229.057,382.000 228.151,382.000 227.813 C 382.000 227.476,382.180 227.200,382.400 227.200 C 382.620 227.200,382.800 226.919,382.800 226.576 C 382.800 226.233,382.980 226.064,383.200 226.200 C 383.420 226.336,383.600 226.167,383.600 225.824 C 383.600 225.481,383.780 225.200,384.000 225.200 C 384.220 225.200,384.400 224.859,384.400 224.443 C 384.400 224.026,384.670 223.582,385.000 223.455 C 385.330 223.329,385.600 222.989,385.600 222.701 C 385.600 222.413,385.950 221.924,386.379 221.615 C 386.807 221.307,387.075 220.922,386.975 220.759 C 386.875 220.597,387.030 220.225,387.321 219.932 C 387.611 219.640,388.107 218.815,388.422 218.100 C 388.737 217.385,389.131 216.800,389.298 216.800 C 389.464 216.800,389.600 216.566,389.600 216.280 C 389.600 215.544,390.541 213.607,390.900 213.603 C 391.065 213.601,391.200 213.240,391.200 212.800 C 391.200 212.360,391.380 212.000,391.600 212.000 C 391.820 212.000,392.000 211.651,392.000 211.224 C 392.000 210.797,392.180 210.336,392.400 210.200 C 392.620 210.064,392.800 209.513,392.800 208.976 C 392.800 208.439,392.980 208.000,393.200 208.000 C 393.420 208.000,393.600 207.550,393.600 207.000 C 393.600 206.450,393.780 206.000,394.000 206.000 C 394.220 206.000,394.400 205.460,394.400 204.800 C 394.400 204.140,394.566 203.600,394.768 203.600 C 394.971 203.600,395.255 203.060,395.400 202.400 C 395.545 201.740,395.829 201.200,396.032 201.200 C 396.234 201.200,396.400 200.671,396.400 200.024 C 396.400 199.377,396.580 198.736,396.800 198.600 C 397.020 198.464,397.200 197.823,397.200 197.176 C 397.200 196.529,397.380 196.000,397.600 196.000 C 397.820 196.000,398.000 195.201,398.000 194.224 C 398.000 193.247,398.180 192.336,398.400 192.200 C 398.620 192.064,398.800 191.279,398.800 190.456 C 398.800 189.633,399.025 188.735,399.300 188.460 C 399.687 188.073,399.800 183.377,399.800 167.713 C 399.800 151.871,399.691 147.430,399.300 147.300 C 398.976 147.192,398.800 146.309,398.800 144.790 C 398.800 143.502,398.620 142.336,398.400 142.200 C 398.180 142.064,398.000 141.254,398.000 140.400 C 398.000 139.546,397.820 138.736,397.600 138.600 C 397.380 138.464,397.200 137.733,397.200 136.976 C 397.200 136.219,397.020 135.600,396.800 135.600 C 396.580 135.600,396.400 134.891,396.400 134.024 C 396.400 133.157,396.236 132.346,396.035 132.222 C 395.834 132.097,395.548 131.277,395.400 130.398 C 395.251 129.519,394.966 128.800,394.765 128.800 C 394.564 128.800,394.400 128.249,394.400 127.576 C 394.400 126.863,394.233 126.456,394.000 126.600 C 393.762 126.747,393.600 126.271,393.600 125.424 C 393.600 124.641,393.420 124.000,393.200 124.000 C 392.980 124.000,392.800 123.471,392.800 122.824 C 392.800 122.177,392.620 121.536,392.400 121.400 C 392.180 121.264,392.000 120.803,392.000 120.376 C 392.000 119.949,391.820 119.600,391.600 119.600 C 391.380 119.600,391.200 119.364,391.200 119.075 C 391.200 118.786,390.840 117.805,390.400 116.894 C 389.960 115.984,389.600 114.870,389.600 114.419 C 389.600 113.969,389.420 113.600,389.200 113.600 C 388.980 113.600,388.796 113.285,388.791 112.900 C 388.786 112.515,388.430 111.750,388.000 111.200 C 387.570 110.650,387.214 109.906,387.209 109.546 C 387.199 108.825,386.241 106.818,385.726 106.440 C 385.028 105.927,383.969 103.574,384.239 103.137 C 384.415 102.852,384.348 102.785,384.062 102.962 C 383.772 103.141,383.600 102.950,383.600 102.447 C 383.600 102.007,383.420 101.536,383.200 101.400 C 382.980 101.264,382.800 100.793,382.800 100.353 C 382.800 99.913,382.620 99.664,382.400 99.800 C 382.180 99.936,382.000 99.767,382.000 99.424 C 382.000 99.081,381.820 98.800,381.600 98.800 C 381.380 98.800,381.200 98.440,381.200 98.000 C 381.200 97.560,381.020 97.200,380.800 97.200 C 380.580 97.200,380.400 96.840,380.400 96.400 C 380.400 95.960,380.220 95.600,380.000 95.600 C 379.780 95.600,379.600 95.240,379.600 94.800 C 379.600 94.360,379.420 94.000,379.200 94.000 C 378.980 94.000,378.800 93.752,378.800 93.449 C 378.800 93.146,378.526 92.670,378.190 92.392 C 377.855 92.114,377.664 91.802,377.766 91.700 C 377.868 91.598,377.779 91.309,377.569 91.057 C 375.942 89.117,375.600 88.617,375.600 88.182 C 375.600 87.909,375.330 87.582,375.000 87.455 C 374.670 87.329,374.400 86.948,374.400 86.609 C 374.400 86.270,373.860 85.428,373.200 84.737 C 372.540 84.046,372.000 83.283,372.000 83.041 C 372.000 82.798,371.375 81.899,370.612 81.041 C 369.849 80.184,369.320 79.329,369.436 79.141 C 369.552 78.954,369.457 78.800,369.224 78.800 C 368.991 78.800,368.800 78.542,368.800 78.227 C 368.800 77.911,368.003 76.876,367.030 75.927 C 366.056 74.977,365.201 73.937,365.130 73.616 C 364.949 72.804,364.260 72.047,363.900 72.266 C 363.735 72.365,363.600 72.258,363.600 72.027 C 363.600 71.796,363.060 71.091,362.400 70.460 C 361.740 69.829,361.200 69.007,361.200 68.633 C 361.200 68.259,361.020 68.064,360.800 68.200 C 360.580 68.336,360.399 68.302,360.398 68.124 C 360.397 67.946,359.857 67.225,359.198 66.522 C 358.539 65.819,358.000 65.067,358.000 64.851 C 358.000 64.635,357.556 64.109,357.014 63.682 C 356.471 63.255,356.119 62.815,356.231 62.703 C 356.343 62.590,356.147 62.389,355.796 62.254 C 355.380 62.094,355.257 62.168,355.441 62.466 C 355.615 62.748,355.546 62.814,355.262 62.638 C 355.008 62.481,354.800 62.093,354.800 61.776 C 354.800 61.459,354.575 61.245,354.300 61.300 C 354.025 61.355,353.843 61.180,353.896 60.912 C 353.949 60.644,353.629 60.229,353.185 59.992 C 352.741 59.754,352.474 59.404,352.591 59.214 C 352.708 59.024,352.273 58.634,351.622 58.346 C 350.835 57.997,350.600 57.721,350.920 57.517 C 351.237 57.316,351.139 57.210,350.633 57.206 C 350.212 57.203,349.984 57.083,350.127 56.940 C 350.491 56.576,349.155 55.628,348.257 55.613 C 347.775 55.604,347.593 55.396,347.737 55.020 C 347.885 54.633,347.767 54.515,347.380 54.663 C 347.061 54.786,346.800 54.701,346.800 54.476 C 346.800 54.251,347.000 54.000,347.244 53.919 C 347.520 53.827,347.441 53.566,347.035 53.229 C 346.479 52.767,346.415 52.775,346.608 53.277 C 346.970 54.219,345.550 53.986,344.494 52.930 C 343.978 52.415,343.684 51.787,343.840 51.535 C 344.020 51.244,343.946 51.186,343.637 51.377 C 343.121 51.696,341.495 50.494,341.792 50.013 C 341.955 49.749,341.766 49.695,340.119 49.533 C 339.745 49.497,339.048 49.045,338.571 48.530 C 337.808 47.708,337.642 47.668,337.200 48.200 M315.017 124.372 C 314.744 124.814,315.375 125.292,315.744 124.922 C 316.125 124.542,316.054 124.000,315.624 124.000 C 315.417 124.000,315.144 124.168,315.017 124.372 " stroke="none" fill="#45d576" fill-rule="evenodd"></path><path id="path1" d="M115.595 94.537 C 115.483 94.650,113.233 94.941,110.595 95.184 C 97.654 96.374,87.431 98.699,75.000 103.279 C 67.303 106.115,60.888 109.184,51.800 114.378 C 42.498 119.694,28.605 131.815,21.515 140.800 C 18.281 144.898,13.600 151.730,13.600 152.351 C 13.600 152.561,13.459 152.793,13.287 152.867 C 12.701 153.116,7.860 163.389,7.374 165.414 C 7.218 166.066,6.906 166.870,6.682 167.200 C 6.457 167.530,7.877 166.100,9.837 164.022 C 18.511 154.826,27.402 146.315,30.753 144.000 C 31.549 143.450,32.596 142.595,33.081 142.100 C 33.565 141.605,34.119 141.200,34.311 141.200 C 34.503 141.200,35.083 140.750,35.600 140.200 C 36.117 139.650,36.680 139.200,36.852 139.200 C 37.024 139.200,37.938 138.482,38.883 137.605 C 39.827 136.728,40.770 136.008,40.978 136.005 C 41.186 136.002,41.816 135.567,42.378 135.037 C 43.428 134.047,44.838 133.150,48.025 131.441 C 49.029 130.903,50.100 130.162,50.405 129.794 C 50.710 129.427,53.219 127.974,55.980 126.566 C 58.741 125.158,62.701 123.081,64.781 121.950 C 66.861 120.820,69.831 119.454,71.381 118.916 C 72.931 118.378,74.371 117.772,74.580 117.569 C 74.789 117.366,75.363 117.200,75.856 117.200 C 76.349 117.200,76.864 117.020,77.000 116.800 C 77.136 116.580,77.676 116.400,78.200 116.400 C 78.724 116.400,79.264 116.220,79.400 116.000 C 79.536 115.780,80.014 115.600,80.463 115.600 C 80.912 115.600,81.936 115.311,82.740 114.957 C 83.543 114.603,84.740 114.077,85.400 113.788 C 86.060 113.499,87.680 113.034,89.000 112.755 C 90.320 112.475,91.990 111.921,92.712 111.523 C 93.434 111.125,94.728 110.800,95.589 110.800 C 96.449 110.800,97.264 110.620,97.400 110.400 C 97.536 110.180,98.346 110.000,99.200 110.000 C 100.054 110.000,100.864 109.820,101.000 109.600 C 101.136 109.380,102.396 109.200,103.800 109.200 C 105.204 109.200,106.464 109.020,106.600 108.800 C 106.752 108.555,109.996 108.400,115.000 108.400 C 120.004 108.400,123.248 108.245,123.400 108.000 C 123.538 107.777,125.396 107.600,127.600 107.600 C 129.804 107.600,131.662 107.777,131.800 108.000 C 132.140 108.549,133.736 108.504,134.312 107.928 C 134.668 107.572,135.007 107.568,135.692 107.911 C 136.191 108.162,137.680 108.454,139.000 108.561 C 146.038 109.131,153.626 110.569,159.400 112.428 C 166.745 114.793,170.495 116.089,173.000 117.128 C 176.059 118.397,188.878 124.744,189.200 125.149 C 189.310 125.287,190.210 125.832,191.200 126.359 C 192.190 126.887,193.270 127.532,193.600 127.794 C 193.930 128.055,194.830 128.516,195.600 128.819 C 196.370 129.122,197.450 129.789,198.000 130.303 C 198.550 130.816,199.945 131.781,201.100 132.447 C 202.255 133.114,203.200 133.790,203.200 133.950 C 203.200 134.110,203.992 134.741,204.959 135.352 C 205.927 135.964,207.058 136.765,207.473 137.132 C 207.888 137.499,209.211 138.604,210.414 139.587 C 214.646 143.046,220.101 148.248,224.270 152.800 C 226.587 155.330,229.185 158.157,230.042 159.081 C 230.899 160.006,231.600 160.962,231.600 161.205 C 231.600 161.448,231.761 161.548,231.958 161.426 C 232.155 161.304,232.420 161.475,232.547 161.806 C 232.674 162.136,233.233 162.614,233.789 162.868 C 234.345 163.121,234.800 163.462,234.800 163.624 C 234.800 163.787,235.385 164.531,236.100 165.278 C 237.773 167.027,238.800 168.331,238.800 168.708 C 238.800 168.873,239.160 169.232,239.600 169.507 C 240.040 169.782,240.400 170.376,240.400 170.827 C 240.400 171.278,240.220 171.536,240.000 171.400 C 239.406 171.033,239.516 171.573,240.168 172.225 C 240.604 172.661,240.782 172.677,240.936 172.296 C 241.095 171.904,241.143 171.904,241.168 172.300 C 241.186 172.575,241.515 172.814,241.900 172.832 C 242.318 172.850,242.399 172.944,242.100 173.065 C 241.352 173.367,241.496 173.913,242.400 174.200 C 242.840 174.340,243.200 174.644,243.200 174.876 C 243.200 175.135,242.929 175.097,242.500 174.778 C 242.115 174.492,242.299 174.751,242.909 175.353 C 243.518 175.956,243.914 176.615,243.788 176.820 C 243.662 177.024,243.838 177.084,244.179 176.953 C 244.945 176.659,245.062 178.217,244.300 178.555 C 244.025 178.677,244.160 178.737,244.600 178.688 C 245.192 178.623,245.392 178.829,245.370 179.480 C 245.354 179.964,245.488 180.269,245.669 180.158 C 245.849 180.046,246.219 180.460,246.490 181.077 C 246.762 181.695,247.104 182.290,247.252 182.400 C 247.399 182.510,247.615 183.050,247.733 183.600 C 247.988 184.799,247.737 182.381,247.400 180.400 C 245.419 168.755,241.883 160.077,234.588 148.951 C 232.551 145.844,230.525 142.874,230.086 142.351 C 229.647 141.828,227.936 139.780,226.283 137.800 C 221.038 131.516,211.963 123.193,206.000 119.198 C 204.570 118.239,203.340 117.308,203.267 117.128 C 203.193 116.947,202.958 116.800,202.745 116.800 C 202.531 116.800,201.241 116.040,199.878 115.112 C 197.419 113.437,185.452 107.244,182.000 105.860 C 181.010 105.463,179.840 104.982,179.400 104.791 C 175.549 103.121,166.164 100.139,160.700 98.849 C 153.031 97.037,148.242 96.217,139.200 95.164 C 135.457 94.728,115.922 94.210,115.595 94.537 M174.400 157.398 C 174.400 157.896,174.174 158.034,173.600 157.884 C 173.160 157.769,172.800 157.838,172.800 158.037 C 172.800 158.237,172.548 158.400,172.241 158.400 C 168.099 158.400,148.745 173.119,138.854 183.790 C 133.503 189.563,123.200 203.268,123.200 204.613 C 123.200 204.758,122.846 205.374,122.412 205.983 C 119.264 210.404,112.823 225.445,110.414 234.000 C 110.135 234.990,109.765 236.250,109.592 236.800 C 105.980 248.254,104.370 270.106,106.130 283.800 C 108.265 300.412,112.243 313.331,119.538 327.344 C 129.728 346.917,144.011 363.026,161.465 374.631 C 163.921 376.264,166.049 377.600,166.193 377.600 C 166.338 377.600,167.208 378.113,168.128 378.739 C 173.797 382.602,185.587 387.549,197.800 391.189 C 208.014 394.232,224.596 395.664,237.400 394.606 C 241.800 394.243,246.660 393.913,248.200 393.873 C 249.882 393.829,251.124 393.606,251.312 393.315 C 251.483 393.048,252.397 392.845,253.346 392.864 C 254.293 392.883,255.446 392.697,255.908 392.449 C 256.370 392.202,257.389 392.000,258.174 392.000 C 258.958 392.000,259.600 391.820,259.600 391.600 C 259.600 391.380,260.104 391.200,260.720 391.200 C 261.336 391.200,262.014 391.026,262.227 390.813 C 262.439 390.601,263.195 390.383,263.907 390.328 C 264.618 390.274,265.200 390.088,265.200 389.915 C 265.200 389.742,265.639 389.600,266.176 389.600 C 266.713 389.600,267.264 389.420,267.400 389.200 C 267.536 388.980,268.087 388.800,268.624 388.800 C 269.161 388.800,269.600 388.620,269.600 388.400 C 269.600 388.180,270.140 388.000,270.800 388.000 C 271.460 388.000,272.000 387.859,272.000 387.687 C 272.000 387.515,272.840 387.127,273.866 386.824 C 276.235 386.124,278.000 385.248,278.000 384.771 C 278.000 384.567,278.540 384.400,279.200 384.400 C 279.860 384.400,280.400 384.220,280.400 384.000 C 280.400 383.780,280.760 383.600,281.200 383.600 C 281.640 383.600,282.000 383.420,282.000 383.200 C 282.000 382.980,282.360 382.800,282.800 382.800 C 283.240 382.800,283.600 382.620,283.600 382.400 C 283.600 382.180,284.061 382.000,284.624 382.000 C 285.204 382.000,285.540 381.827,285.400 381.600 C 285.255 381.366,285.670 381.200,286.400 381.200 C 287.130 381.200,287.545 381.034,287.400 380.800 C 287.264 380.580,287.512 380.400,287.952 380.400 C 288.808 380.400,293.312 378.087,293.533 377.533 C 293.607 377.350,293.967 377.187,294.333 377.171 C 294.700 377.155,295.540 376.793,296.200 376.366 C 296.860 375.940,297.715 375.482,298.100 375.349 C 298.485 375.216,298.800 374.948,298.800 374.753 C 298.800 374.559,299.120 374.400,299.512 374.400 C 299.903 374.400,300.483 374.040,300.800 373.600 C 301.117 373.160,301.697 372.800,302.088 372.800 C 302.480 372.800,302.800 372.620,302.800 372.400 C 302.800 372.180,303.160 372.000,303.600 372.000 C 304.040 372.000,304.400 371.865,304.401 371.700 C 304.401 371.535,305.571 370.770,307.000 370.000 C 308.429 369.230,309.599 368.465,309.599 368.300 C 309.600 368.135,309.920 368.000,310.312 368.000 C 310.703 368.000,311.283 367.640,311.600 367.200 C 311.917 366.760,312.356 366.400,312.576 366.400 C 312.795 366.400,313.340 365.994,313.787 365.497 C 314.234 365.001,315.140 364.327,315.800 364.000 C 316.460 363.673,317.291 363.089,317.647 362.703 C 318.003 362.316,318.471 362.000,318.688 362.000 C 318.904 362.000,319.646 361.460,320.337 360.800 C 321.028 360.140,321.739 359.600,321.918 359.600 C 322.097 359.600,322.931 358.970,323.772 358.200 C 324.613 357.430,325.460 356.800,325.656 356.800 C 325.851 356.800,326.906 355.900,328.000 354.800 C 329.094 353.700,330.156 352.800,330.360 352.800 C 330.564 352.800,331.827 351.720,333.168 350.400 C 334.508 349.080,335.716 348.000,335.851 348.000 C 335.986 348.000,336.872 347.190,337.821 346.200 C 338.769 345.210,339.748 344.400,339.996 344.400 C 340.244 344.400,340.336 344.220,340.200 344.000 C 340.064 343.780,340.151 343.600,340.394 343.600 C 340.828 343.600,345.200 339.335,345.200 338.912 C 345.200 338.792,345.830 338.100,346.600 337.374 C 347.370 336.648,348.000 335.956,348.000 335.837 C 348.000 335.717,349.170 334.421,350.600 332.955 C 352.030 331.489,353.200 330.148,353.200 329.975 C 353.200 329.801,354.100 328.750,355.200 327.638 C 356.300 326.527,357.200 325.419,357.200 325.177 C 357.200 324.935,357.920 324.046,358.800 323.200 C 359.680 322.354,360.400 321.418,360.400 321.120 C 360.400 320.821,360.760 320.317,361.200 320.000 C 361.640 319.683,362.000 319.193,362.000 318.912 C 362.000 318.630,362.180 318.400,362.400 318.400 C 362.620 318.400,362.800 318.212,362.800 317.983 C 362.800 317.754,363.160 317.180,363.600 316.708 C 364.040 316.236,364.400 315.523,364.400 315.125 C 364.400 314.726,364.593 314.400,364.829 314.400 C 365.466 314.400,366.400 313.347,366.400 312.629 C 366.400 312.283,366.550 312.000,366.732 312.000 C 366.915 312.000,367.320 311.505,367.632 310.900 C 367.945 310.295,368.515 309.451,368.900 309.025 C 369.285 308.598,369.600 308.013,369.600 307.725 C 369.600 307.436,369.780 307.200,370.000 307.200 C 370.220 307.200,370.400 306.750,370.400 306.200 C 370.400 305.650,370.580 305.200,370.800 305.200 C 371.396 305.200,371.283 301.897,370.635 300.349 C 369.898 298.588,368.672 297.200,367.853 297.200 C 367.494 297.200,367.200 297.020,367.200 296.800 C 367.200 296.217,362.070 296.318,360.296 296.936 C 359.469 297.224,358.914 297.581,359.063 297.730 C 359.212 297.878,358.853 298.000,358.267 298.000 C 357.680 298.000,357.200 298.136,357.200 298.302 C 357.200 298.469,356.615 298.840,355.900 299.129 C 355.185 299.417,354.287 299.821,353.905 300.026 C 353.523 300.232,352.938 300.400,352.605 300.400 C 352.272 300.400,352.000 300.580,352.000 300.800 C 352.000 301.020,351.640 301.200,351.200 301.200 C 350.760 301.200,350.400 301.380,350.400 301.600 C 350.400 301.820,349.950 302.000,349.400 302.000 C 348.850 302.000,348.400 302.180,348.400 302.400 C 348.400 302.620,347.950 302.800,347.400 302.800 C 346.850 302.800,346.400 302.980,346.400 303.200 C 346.400 303.420,346.061 303.600,345.646 303.600 C 345.231 303.600,344.376 303.869,343.746 304.198 C 343.116 304.526,342.285 304.796,341.900 304.798 C 341.515 304.799,341.200 304.980,341.200 305.200 C 341.200 305.420,340.649 305.600,339.976 305.600 C 339.263 305.600,338.856 305.767,339.000 306.000 C 339.212 306.343,337.731 306.622,336.670 306.437 C 336.489 306.406,336.455 306.565,336.594 306.790 C 336.748 307.040,336.301 307.200,335.447 307.200 C 334.677 307.200,333.936 307.380,333.800 307.600 C 333.664 307.820,333.023 308.000,332.376 308.000 C 331.729 308.000,331.200 308.180,331.200 308.400 C 331.200 308.620,330.480 308.800,329.600 308.800 C 328.720 308.800,328.000 308.980,328.000 309.200 C 328.000 309.420,327.280 309.600,326.400 309.600 C 325.520 309.600,324.800 309.780,324.800 310.000 C 324.800 310.220,324.001 310.400,323.024 310.400 C 322.047 310.400,321.136 310.580,321.000 310.800 C 320.864 311.020,319.874 311.200,318.800 311.200 C 317.726 311.200,316.736 311.380,316.600 311.600 C 316.464 311.820,315.294 312.000,314.000 312.000 C 312.706 312.000,311.536 312.180,311.400 312.400 C 311.264 312.620,309.738 312.800,308.010 312.800 C 306.281 312.800,304.807 312.961,304.733 313.157 C 304.660 313.354,301.360 313.575,297.400 313.648 C 293.440 313.722,289.898 313.956,289.530 314.169 C 289.095 314.419,288.532 314.415,287.930 314.156 C 287.418 313.936,283.850 313.706,280.000 313.646 C 276.150 313.585,272.829 313.370,272.620 313.167 C 272.411 312.965,270.836 312.800,269.120 312.800 C 267.404 312.800,266.000 312.651,266.000 312.468 C 266.000 312.191,264.760 312.050,260.900 311.888 C 260.625 311.876,260.400 311.717,260.400 311.533 C 260.400 311.350,259.500 311.200,258.400 311.200 C 257.300 311.200,256.400 311.020,256.400 310.800 C 256.400 310.580,255.590 310.400,254.600 310.400 C 253.610 310.400,252.800 310.220,252.800 310.000 C 252.800 309.780,252.001 309.600,251.024 309.600 C 250.047 309.600,249.136 309.420,249.000 309.200 C 248.864 308.980,248.123 308.800,247.353 308.800 C 246.521 308.800,246.053 308.638,246.200 308.400 C 246.349 308.159,245.812 308.000,244.847 308.000 C 243.967 308.000,243.136 307.820,243.000 307.600 C 242.864 307.380,242.223 307.200,241.576 307.200 C 240.929 307.200,240.400 307.020,240.400 306.800 C 240.400 306.580,239.860 306.400,239.200 306.400 C 238.540 306.400,238.000 306.220,238.000 306.000 C 238.000 305.780,237.370 305.600,236.600 305.600 C 235.830 305.600,235.200 305.453,235.200 305.274 C 235.200 304.876,232.599 303.600,231.786 303.600 C 231.464 303.600,231.200 303.453,231.200 303.272 C 231.200 303.092,230.289 302.696,229.175 302.393 C 228.061 302.090,227.060 301.697,226.951 301.521 C 226.842 301.344,226.403 301.200,225.976 301.200 C 225.549 301.200,225.200 301.020,225.200 300.800 C 225.200 300.580,224.840 300.400,224.400 300.400 C 223.960 300.400,223.600 300.220,223.600 300.000 C 223.600 299.780,223.251 299.600,222.824 299.600 C 222.397 299.600,221.936 299.420,221.800 299.200 C 221.664 298.980,221.113 298.800,220.576 298.800 C 220.039 298.800,219.600 298.620,219.600 298.400 C 219.600 298.180,219.240 298.000,218.800 298.000 C 218.360 298.000,218.000 297.820,218.000 297.600 C 218.000 297.380,217.730 297.200,217.400 297.200 C 217.070 297.200,216.800 297.020,216.800 296.800 C 216.800 296.580,216.440 296.400,216.000 296.400 C 215.560 296.400,215.200 296.220,215.200 296.000 C 215.200 295.780,214.840 295.600,214.400 295.600 C 213.960 295.600,213.600 295.420,213.600 295.200 C 213.600 294.980,213.324 294.800,212.987 294.800 C 212.651 294.800,212.272 294.531,212.146 294.202 C 212.019 293.874,211.778 293.690,211.610 293.794 C 211.441 293.898,210.892 293.627,210.389 293.190 C 209.886 292.754,208.513 291.927,207.337 291.352 C 206.162 290.777,205.200 290.147,205.200 289.953 C 205.200 289.759,204.840 289.600,204.400 289.600 C 203.960 289.600,203.600 289.450,203.600 289.268 C 203.600 289.085,203.105 288.681,202.500 288.370 C 201.895 288.060,201.109 287.489,200.753 287.103 C 200.397 286.716,199.884 286.400,199.614 286.400 C 199.343 286.400,198.617 285.860,198.000 285.200 C 197.383 284.540,196.696 284.000,196.472 284.000 C 196.248 284.000,195.316 283.280,194.400 282.400 C 193.484 281.520,192.581 280.800,192.393 280.800 C 192.205 280.800,190.799 279.585,189.269 278.100 C 186.533 275.446,183.822 273.129,183.144 272.867 C 182.955 272.793,182.800 272.482,182.800 272.176 C 182.800 271.869,182.344 271.320,181.788 270.955 C 181.231 270.590,180.854 270.213,180.950 270.117 C 181.046 270.020,179.922 268.740,178.452 267.271 C 176.982 265.802,175.244 263.881,174.590 263.003 C 173.935 262.124,172.995 260.991,172.500 260.485 C 172.005 259.978,171.600 259.400,171.600 259.200 C 171.600 259.000,171.195 258.415,170.700 257.900 C 170.205 257.385,169.744 256.713,169.675 256.407 C 169.606 256.101,169.201 255.548,168.775 255.178 C 168.349 254.809,168.000 254.246,168.000 253.929 C 168.000 253.611,167.640 252.964,167.200 252.492 C 166.760 252.020,166.400 251.422,166.400 251.164 C 166.400 250.905,166.012 250.358,165.539 249.947 C 165.065 249.536,164.823 249.200,165.000 249.200 C 165.177 249.200,164.935 248.864,164.461 248.453 C 163.988 248.042,163.600 247.412,163.600 247.053 C 163.600 246.694,163.420 246.400,163.200 246.400 C 162.980 246.400,162.800 246.135,162.800 245.812 C 162.800 245.489,162.440 244.583,162.000 243.800 C 161.560 243.017,161.200 242.111,161.200 241.788 C 161.200 241.465,161.020 241.200,160.800 241.200 C 160.580 241.200,160.400 240.840,160.400 240.400 C 160.400 239.960,160.220 239.600,160.000 239.600 C 159.780 239.600,159.600 239.161,159.600 238.624 C 159.600 238.087,159.420 237.536,159.200 237.400 C 158.980 237.264,158.800 236.803,158.800 236.376 C 158.800 235.949,158.620 235.600,158.400 235.600 C 158.180 235.600,158.000 235.251,158.000 234.824 C 158.000 234.397,157.820 233.936,157.600 233.800 C 157.380 233.664,157.200 233.038,157.200 232.410 C 157.200 231.781,157.037 231.207,156.838 231.133 C 156.639 231.060,156.414 230.550,156.338 230.000 C 156.262 229.450,156.070 228.902,155.910 228.783 C 155.751 228.663,155.554 228.133,155.473 227.604 C 155.393 227.075,155.118 226.573,154.863 226.488 C 154.605 226.402,154.400 225.550,154.400 224.567 C 154.400 223.595,154.220 222.800,154.000 222.800 C 153.780 222.800,153.600 222.080,153.600 221.200 C 153.600 220.320,153.420 219.600,153.200 219.600 C 152.980 219.600,152.800 218.700,152.800 217.600 C 152.800 216.500,152.620 215.600,152.400 215.600 C 152.175 215.600,152.000 214.475,152.000 213.024 C 152.000 211.607,151.820 210.336,151.600 210.200 C 151.353 210.047,151.200 206.537,151.200 201.000 C 151.200 195.463,151.353 191.953,151.600 191.800 C 151.820 191.664,152.000 190.753,152.000 189.776 C 152.000 188.799,152.180 188.000,152.400 188.000 C 152.620 188.000,152.800 187.381,152.800 186.624 C 152.800 185.867,152.980 185.136,153.200 185.000 C 153.420 184.864,153.600 184.313,153.600 183.776 C 153.600 183.239,153.780 182.800,154.000 182.800 C 154.220 182.800,154.400 182.279,154.400 181.643 C 154.400 180.983,154.658 180.387,155.000 180.255 C 155.330 180.129,155.600 179.749,155.600 179.413 C 155.600 179.076,155.780 178.800,156.000 178.800 C 156.220 178.800,156.400 178.440,156.400 178.000 C 156.400 177.560,156.580 177.200,156.800 177.200 C 157.020 177.200,157.200 176.874,157.200 176.475 C 157.200 176.077,157.560 175.364,158.000 174.892 C 158.440 174.420,158.800 173.796,158.800 173.505 C 158.800 173.214,159.160 172.717,159.600 172.400 C 160.040 172.083,160.400 171.587,160.400 171.298 C 160.400 171.010,160.985 170.169,161.700 169.429 C 163.829 167.228,165.600 165.097,165.600 164.737 C 165.600 164.552,165.870 164.400,166.200 164.400 C 166.530 164.400,166.800 164.220,166.800 164.000 C 166.800 163.780,167.081 163.600,167.424 163.600 C 167.767 163.600,167.936 163.420,167.800 163.200 C 167.664 162.980,167.717 162.800,167.917 162.800 C 168.117 162.800,168.846 162.260,169.537 161.600 C 170.228 160.940,170.998 160.400,171.249 160.400 C 171.501 160.400,171.997 160.077,172.353 159.683 C 172.709 159.289,173.592 158.686,174.315 158.345 C 175.459 157.804,175.550 157.656,175.015 157.213 C 174.502 156.786,174.400 156.817,174.400 157.398 M231.200 162.373 C 231.200 162.578,231.543 162.855,231.963 162.988 C 232.383 163.121,232.827 163.494,232.950 163.815 C 233.208 164.488,234.000 164.609,234.000 163.976 C 234.000 163.743,233.820 163.664,233.600 163.800 C 233.380 163.936,233.200 163.767,233.200 163.424 C 233.200 163.081,232.930 162.800,232.600 162.800 C 232.270 162.800,232.000 162.620,232.000 162.400 C 232.000 162.180,231.820 162.000,231.600 162.000 C 231.380 162.000,231.200 162.168,231.200 162.373 " stroke="none" fill="#044e93" fill-rule="evenodd"></path><path id="path2" d="M111.000 94.461 C 107.704 94.840,104.136 95.347,99.600 96.080 C 94.129 96.965,81.573 100.193,79.505 101.246 C 79.123 101.441,78.536 101.600,78.200 101.600 C 77.864 101.600,77.277 101.766,76.895 101.968 C 76.513 102.170,75.120 102.728,73.800 103.207 C 70.952 104.240,71.036 104.205,65.273 106.798 C 58.146 110.005,46.298 116.913,42.371 120.152 C 41.806 120.618,40.735 121.450,39.992 122.000 C 30.164 129.278,18.373 142.529,12.346 153.069 C 9.681 157.730,6.411 164.694,5.355 167.959 C 5.028 168.971,4.604 170.160,4.413 170.600 C 4.223 171.040,3.950 171.850,3.806 172.400 C 3.663 172.950,3.365 174.030,3.143 174.800 C 2.587 176.729,2.124 178.898,0.579 186.800 C -0.261 191.097,-0.006 224.400,0.867 224.400 C 1.050 224.400,1.200 225.761,1.200 227.424 C 1.200 229.337,1.347 230.356,1.600 230.200 C 1.847 230.047,2.000 230.738,2.000 232.003 C 2.000 233.130,2.170 234.370,2.377 234.757 C 2.584 235.145,2.797 236.393,2.849 237.531 C 2.900 238.669,3.091 239.600,3.271 239.600 C 3.452 239.600,3.600 240.146,3.600 240.813 C 3.600 241.480,3.832 242.605,4.116 243.313 C 4.400 244.021,4.605 245.003,4.571 245.496 C 4.537 245.990,4.755 246.597,5.055 246.845 C 5.361 247.100,5.600 248.055,5.600 249.025 C 5.600 249.975,5.780 250.864,6.000 251.000 C 6.220 251.136,6.400 251.777,6.400 252.424 C 6.400 253.071,6.580 253.600,6.800 253.600 C 7.020 253.600,7.200 254.309,7.200 255.176 C 7.200 256.043,7.380 256.864,7.600 257.000 C 7.820 257.136,8.000 257.777,8.000 258.424 C 8.000 259.071,8.180 259.600,8.400 259.600 C 8.620 259.600,8.800 260.140,8.800 260.800 C 8.800 261.460,8.980 262.000,9.200 262.000 C 9.420 262.000,9.600 262.540,9.600 263.200 C 9.600 263.860,9.780 264.400,10.000 264.400 C 10.220 264.400,10.400 265.041,10.400 265.824 C 10.400 266.671,10.562 267.147,10.800 267.000 C 11.038 266.853,11.200 267.329,11.200 268.176 C 11.200 268.959,11.380 269.600,11.600 269.600 C 11.820 269.600,12.000 270.050,12.000 270.600 C 12.000 271.150,12.180 271.600,12.400 271.600 C 12.620 271.600,12.800 272.035,12.800 272.567 C 12.800 273.098,12.975 273.593,13.188 273.667 C 13.402 273.740,13.633 274.168,13.701 274.618 C 13.769 275.068,14.210 276.090,14.682 276.890 C 15.154 277.690,15.599 278.762,15.670 279.272 C 15.742 279.783,15.890 280.290,16.000 280.400 C 16.478 280.878,17.200 282.439,17.200 282.995 C 17.200 283.328,17.380 283.600,17.600 283.600 C 17.820 283.600,18.000 283.949,18.000 284.376 C 18.000 284.803,18.180 285.264,18.400 285.400 C 18.620 285.536,18.800 285.997,18.800 286.424 C 18.800 286.851,18.935 287.201,19.100 287.203 C 19.459 287.207,20.400 289.144,20.400 289.880 C 20.400 290.166,20.580 290.400,20.800 290.400 C 21.020 290.400,21.200 290.760,21.200 291.200 C 21.200 291.640,21.380 292.000,21.600 292.000 C 21.820 292.000,22.004 292.315,22.009 292.700 C 22.014 293.085,22.370 293.850,22.800 294.400 C 23.230 294.950,23.586 295.696,23.591 296.057 C 23.596 296.419,23.881 296.822,24.225 296.954 C 24.569 297.086,24.746 297.364,24.618 297.571 C 24.490 297.779,24.793 298.373,25.292 298.892 C 25.792 299.412,26.258 300.098,26.330 300.418 C 26.401 300.738,26.626 301.060,26.830 301.133 C 27.033 301.207,27.200 301.612,27.200 302.033 C 27.200 302.455,27.335 302.800,27.501 302.800 C 27.666 302.800,28.247 303.655,28.791 304.700 C 29.335 305.745,29.875 306.690,29.990 306.800 C 30.106 306.910,30.425 307.405,30.700 307.900 C 30.975 308.395,31.425 309.192,31.700 309.670 C 32.204 310.548,33.393 312.084,34.281 313.006 C 34.545 313.280,34.655 313.612,34.524 313.743 C 34.393 313.874,34.581 314.095,34.943 314.233 C 35.304 314.372,35.600 314.736,35.600 315.043 C 35.600 315.349,35.780 315.600,36.000 315.600 C 36.220 315.600,36.400 315.894,36.400 316.253 C 36.400 316.612,36.717 317.197,37.105 317.553 C 37.493 317.909,38.258 318.874,38.805 319.697 C 39.352 320.521,39.935 321.196,40.100 321.197 C 40.265 321.199,40.400 321.443,40.400 321.741 C 40.400 322.038,40.895 322.803,41.500 323.441 C 42.105 324.079,43.320 325.494,44.200 326.586 C 45.080 327.678,46.475 329.297,47.300 330.184 C 48.125 331.070,48.800 331.943,48.800 332.124 C 48.800 332.304,49.700 333.329,50.800 334.400 C 51.900 335.471,52.800 336.463,52.800 336.603 C 52.800 336.922,53.862 338.000,54.177 338.000 C 54.530 338.000,62.000 345.543,62.000 345.900 C 62.000 346.071,62.487 346.568,63.083 347.005 C 63.679 347.442,65.126 348.745,66.301 349.900 C 67.475 351.055,68.581 352.000,68.758 352.000 C 68.936 352.000,69.646 352.540,70.337 353.200 C 71.028 353.860,71.671 354.400,71.766 354.400 C 71.861 354.400,72.467 354.895,73.113 355.500 C 75.535 357.769,76.827 358.800,77.246 358.800 C 77.484 358.800,78.183 359.340,78.800 360.000 C 79.417 360.660,80.119 361.200,80.360 361.200 C 80.602 361.200,80.800 361.380,80.800 361.600 C 80.800 361.820,81.070 362.000,81.400 362.000 C 81.730 362.000,82.000 362.180,82.000 362.400 C 82.000 362.620,82.281 362.800,82.624 362.800 C 82.967 362.800,83.136 362.980,83.000 363.200 C 82.864 363.420,83.132 363.600,83.595 363.600 C 84.058 363.600,84.890 364.053,85.444 364.608 C 85.998 365.162,86.620 365.511,86.826 365.384 C 87.032 365.257,87.200 365.412,87.200 365.728 C 87.200 366.044,87.740 366.527,88.400 366.800 C 89.060 367.073,89.600 367.425,89.600 367.581 C 89.600 367.737,90.095 368.115,90.700 368.420 C 91.305 368.726,92.552 369.476,93.472 370.088 C 94.392 370.699,95.347 371.200,95.596 371.200 C 95.844 371.200,95.936 371.380,95.800 371.600 C 95.664 371.820,95.923 372.000,96.376 372.000 C 96.829 372.000,97.200 372.180,97.200 372.400 C 97.200 372.620,97.560 372.800,98.000 372.800 C 98.440 372.800,98.800 372.980,98.800 373.200 C 98.800 373.420,99.171 373.600,99.624 373.600 C 100.077 373.600,100.336 373.780,100.200 374.000 C 100.064 374.220,100.334 374.400,100.800 374.400 C 101.339 374.400,101.543 374.568,101.362 374.862 C 101.188 375.143,101.252 375.215,101.524 375.047 C 101.770 374.895,102.337 375.137,102.785 375.585 C 103.233 376.033,103.744 376.400,103.920 376.400 C 104.500 376.400,106.394 377.394,106.397 377.700 C 106.399 377.865,106.760 378.000,107.200 378.000 C 107.640 378.000,108.000 378.180,108.000 378.400 C 108.000 378.620,108.234 378.800,108.520 378.800 C 109.256 378.800,111.193 379.741,111.197 380.100 C 111.199 380.265,111.560 380.400,112.000 380.400 C 112.440 380.400,112.800 380.580,112.800 380.800 C 112.800 381.020,113.250 381.200,113.800 381.200 C 114.350 381.200,114.800 381.380,114.800 381.600 C 114.800 381.820,115.160 382.000,115.600 382.000 C 116.040 382.000,116.400 382.180,116.400 382.400 C 116.400 382.620,116.745 382.800,117.167 382.800 C 117.588 382.800,117.993 382.978,118.067 383.197 C 118.140 383.415,118.695 383.634,119.300 383.684 C 119.905 383.734,120.400 383.915,120.400 384.087 C 120.400 384.259,120.738 384.400,121.151 384.400 C 121.564 384.400,122.102 384.640,122.345 384.934 C 122.589 385.228,123.556 385.715,124.494 386.017 C 125.432 386.319,126.290 386.665,126.400 386.785 C 126.720 387.135,129.391 388.000,130.152 388.000 C 130.534 388.000,130.760 388.142,130.652 388.315 C 130.545 388.488,130.940 388.670,131.529 388.719 C 132.118 388.767,132.660 388.985,132.733 389.203 C 132.807 389.422,133.482 389.600,134.233 389.600 C 134.985 389.600,135.600 389.780,135.600 390.000 C 135.600 390.220,136.039 390.400,136.576 390.400 C 137.113 390.400,137.664 390.580,137.800 390.800 C 137.936 391.020,138.577 391.200,139.224 391.200 C 139.871 391.200,140.400 391.380,140.400 391.600 C 140.400 391.820,140.792 392.000,141.272 392.000 C 142.192 392.000,144.528 392.660,145.695 393.249 C 146.077 393.442,147.112 393.600,147.995 393.600 C 148.878 393.600,149.600 393.780,149.600 394.000 C 149.600 394.220,150.062 394.400,150.626 394.400 C 151.191 394.400,152.046 394.618,152.526 394.885 C 153.007 395.152,153.850 395.402,154.400 395.441 C 155.434 395.515,158.482 396.197,160.628 396.835 C 161.304 397.036,162.508 397.200,163.305 397.200 C 164.101 397.200,164.864 397.380,165.000 397.600 C 165.136 397.820,166.216 398.000,167.400 398.000 C 168.584 398.000,169.664 398.180,169.800 398.400 C 169.936 398.620,171.282 398.800,172.790 398.800 C 174.629 398.800,175.588 398.965,175.700 399.300 C 175.831 399.693,181.049 399.800,200.000 399.800 C 218.951 399.800,224.169 399.693,224.300 399.300 C 224.413 398.962,225.400 398.800,227.353 398.800 C 228.941 398.800,230.411 398.630,230.620 398.423 C 230.829 398.216,232.118 398.006,233.483 397.958 C 234.849 397.910,235.874 397.719,235.760 397.535 C 235.646 397.351,236.463 397.200,237.576 397.200 C 238.689 397.200,239.600 397.020,239.600 396.800 C 239.600 396.580,240.292 396.400,241.139 396.400 C 241.985 396.400,243.211 396.134,243.863 395.808 C 244.515 395.483,245.431 395.290,245.899 395.380 C 246.366 395.470,246.962 395.287,247.223 394.972 C 247.486 394.656,248.392 394.400,249.249 394.400 C 250.102 394.400,250.800 394.205,250.800 393.967 C 250.800 393.678,249.901 393.605,248.100 393.748 C 246.615 393.865,241.800 394.255,237.400 394.614 C 224.574 395.661,207.995 394.227,197.800 391.189 C 185.587 387.549,173.797 382.602,168.128 378.739 C 167.208 378.113,166.338 377.600,166.193 377.600 C 166.049 377.600,163.921 376.264,161.465 374.631 C 139.868 360.271,122.156 337.693,113.118 313.000 C 111.521 308.635,111.131 307.411,109.555 301.800 C 104.101 282.391,104.117 254.161,109.592 236.800 C 109.765 236.250,110.135 234.990,110.414 234.000 C 112.823 225.445,119.264 210.404,122.412 205.983 C 122.846 205.374,123.200 204.758,123.200 204.613 C 123.200 203.268,133.503 189.563,138.854 183.790 C 148.745 173.119,168.099 158.400,172.241 158.400 C 172.548 158.400,172.800 158.237,172.800 158.037 C 172.800 157.838,173.160 157.769,173.600 157.884 C 174.165 158.032,174.400 157.896,174.400 157.423 C 174.400 156.986,174.574 156.862,174.900 157.066 C 175.448 157.410,176.883 157.275,177.200 156.850 C 177.614 156.295,179.596 155.200,180.186 155.200 C 180.524 155.200,180.800 155.020,180.800 154.800 C 180.800 154.580,181.250 154.400,181.800 154.400 C 182.350 154.400,182.800 154.220,182.800 154.000 C 182.800 153.780,183.340 153.600,184.000 153.600 C 184.660 153.600,185.200 153.420,185.200 153.200 C 185.200 152.980,185.830 152.800,186.600 152.800 C 187.370 152.800,188.000 152.620,188.000 152.400 C 188.000 152.180,188.799 152.000,189.776 152.000 C 190.753 152.000,191.664 151.820,191.800 151.600 C 191.936 151.380,193.569 151.200,195.429 151.200 C 197.416 151.200,199.160 150.994,199.658 150.700 C 200.335 150.300,200.541 150.300,200.686 150.700 C 200.814 151.054,202.023 151.200,204.833 151.200 C 207.211 151.200,208.800 151.360,208.800 151.600 C 208.800 151.820,209.509 152.000,210.376 152.000 C 211.243 152.000,212.064 152.180,212.200 152.400 C 212.336 152.620,212.977 152.800,213.624 152.800 C 214.271 152.800,214.800 152.980,214.800 153.200 C 214.800 153.420,215.441 153.600,216.224 153.600 C 217.071 153.600,217.547 153.762,217.400 154.000 C 217.256 154.233,217.663 154.400,218.376 154.400 C 219.049 154.400,219.600 154.580,219.600 154.800 C 219.600 155.020,219.960 155.200,220.400 155.200 C 220.840 155.200,221.200 155.447,221.200 155.748 C 221.200 156.064,221.581 156.275,222.100 156.248 C 222.653 156.218,222.958 156.404,222.890 156.730 C 222.830 157.021,222.952 157.153,223.162 157.023 C 223.373 156.893,223.662 156.977,223.806 157.210 C 223.950 157.443,224.773 157.916,225.634 158.260 C 226.495 158.605,227.200 159.077,227.200 159.310 C 227.200 159.543,227.317 159.616,227.460 159.473 C 227.604 159.330,227.977 159.525,228.290 159.906 C 228.603 160.288,228.737 160.362,228.588 160.070 C 228.364 159.635,228.462 159.632,229.140 160.055 C 229.593 160.338,229.890 160.643,229.801 160.732 C 229.511 161.022,230.723 162.000,231.371 162.000 C 231.717 162.000,232.000 162.180,232.000 162.400 C 232.000 162.620,232.193 162.800,232.429 162.800 C 233.066 162.800,234.000 163.853,234.000 164.571 C 234.000 164.917,234.135 165.155,234.300 165.100 C 234.465 165.045,234.600 165.103,234.600 165.229 C 234.600 165.789,236.040 166.823,236.459 166.564 C 236.735 166.393,236.816 166.450,236.658 166.706 C 236.512 166.942,236.998 167.777,237.737 168.561 C 238.476 169.344,238.973 170.108,238.840 170.257 C 238.708 170.406,238.805 170.411,239.055 170.269 C 239.314 170.121,239.633 170.394,239.797 170.904 C 240.066 171.742,240.098 171.750,240.287 171.020 C 240.414 170.529,240.176 169.986,239.645 169.556 C 239.180 169.180,238.800 168.768,238.800 168.640 C 238.800 168.326,237.669 166.917,236.100 165.278 C 235.385 164.531,234.800 163.787,234.800 163.624 C 234.800 163.462,234.345 163.121,233.789 162.868 C 233.233 162.614,232.674 162.136,232.547 161.806 C 232.420 161.475,232.155 161.304,231.958 161.426 C 231.761 161.548,231.600 161.448,231.600 161.205 C 231.600 160.962,230.899 160.006,230.042 159.081 C 229.185 158.157,226.587 155.330,224.270 152.800 C 220.101 148.248,214.646 143.046,210.414 139.587 C 209.211 138.604,207.888 137.499,207.473 137.132 C 207.058 136.765,205.927 135.964,204.959 135.352 C 203.992 134.741,203.200 134.110,203.200 133.950 C 203.200 133.790,202.255 133.114,201.100 132.447 C 199.945 131.781,198.550 130.816,198.000 130.303 C 197.450 129.789,196.370 129.122,195.600 128.819 C 194.830 128.516,193.930 128.055,193.600 127.794 C 193.270 127.532,192.190 126.887,191.200 126.359 C 190.210 125.832,189.310 125.287,189.200 125.149 C 188.878 124.744,176.059 118.397,173.000 117.128 C 170.495 116.089,166.745 114.793,159.400 112.428 C 153.626 110.569,146.038 109.131,139.000 108.561 C 137.680 108.454,136.191 108.162,135.692 107.911 C 135.007 107.568,134.668 107.572,134.312 107.928 C 133.736 108.504,132.140 108.549,131.800 108.000 C 131.662 107.777,129.804 107.600,127.600 107.600 C 125.396 107.600,123.538 107.777,123.400 108.000 C 123.248 108.245,120.004 108.400,115.000 108.400 C 109.996 108.400,106.752 108.555,106.600 108.800 C 106.464 109.020,105.204 109.200,103.800 109.200 C 102.396 109.200,101.136 109.380,101.000 109.600 C 100.864 109.820,100.054 110.000,99.200 110.000 C 98.346 110.000,97.536 110.180,97.400 110.400 C 97.264 110.620,96.449 110.800,95.589 110.800 C 94.728 110.800,93.434 111.125,92.712 111.523 C 91.990 111.921,90.320 112.475,89.000 112.755 C 87.680 113.034,86.060 113.499,85.400 113.788 C 84.740 114.077,83.543 114.603,82.740 114.957 C 81.936 115.311,80.912 115.600,80.463 115.600 C 80.014 115.600,79.536 115.780,79.400 116.000 C 79.264 116.220,78.724 116.400,78.200 116.400 C 77.676 116.400,77.136 116.580,77.000 116.800 C 76.864 117.020,76.349 117.200,75.856 117.200 C 75.363 117.200,74.789 117.366,74.580 117.569 C 74.371 117.772,72.931 118.378,71.381 118.916 C 69.831 119.454,66.861 120.820,64.781 121.950 C 62.701 123.081,58.741 125.158,55.980 126.566 C 53.219 127.974,50.710 129.427,50.405 129.794 C 50.100 130.162,49.029 130.903,48.025 131.441 C 44.838 133.150,43.428 134.047,42.378 135.037 C 41.816 135.567,41.186 136.002,40.978 136.005 C 40.770 136.008,39.827 136.728,38.883 137.605 C 37.938 138.482,37.024 139.200,36.852 139.200 C 36.680 139.200,36.117 139.650,35.600 140.200 C 35.083 140.750,34.503 141.200,34.311 141.200 C 34.119 141.200,33.565 141.605,33.081 142.100 C 32.596 142.595,31.549 143.450,30.753 144.000 C 27.402 146.315,18.511 154.826,9.837 164.022 C 7.877 166.100,6.457 167.530,6.682 167.200 C 6.906 166.870,7.218 166.066,7.374 165.414 C 7.860 163.389,12.701 153.116,13.287 152.867 C 13.459 152.793,13.600 152.561,13.600 152.351 C 13.600 151.730,18.281 144.898,21.515 140.800 C 28.605 131.815,42.498 119.694,51.800 114.378 C 57.964 110.855,65.113 107.220,69.000 105.634 C 69.440 105.454,70.250 105.116,70.800 104.883 C 96.551 93.953,128.563 91.574,158.600 98.357 C 161.764 99.071,163.062 99.249,162.158 98.845 C 159.916 97.843,149.769 95.953,140.200 94.756 C 135.870 94.214,114.979 94.003,111.000 94.461 M165.400 100.031 C 166.720 100.448,167.980 100.729,168.200 100.656 C 168.667 100.502,164.335 99.182,163.538 99.236 C 163.242 99.257,164.080 99.614,165.400 100.031 M169.800 101.281 C 172.609 102.258,178.663 104.471,179.400 104.791 C 179.840 104.982,181.010 105.463,182.000 105.860 C 185.452 107.244,197.419 113.437,199.878 115.112 C 201.241 116.040,202.531 116.800,202.745 116.800 C 202.958 116.800,203.193 116.947,203.267 117.128 C 203.428 117.525,208.400 120.914,208.400 120.628 C 208.400 120.115,201.230 115.293,196.000 112.289 C 192.068 110.030,182.672 105.571,178.600 104.030 C 177.280 103.531,175.840 102.971,175.400 102.787 C 173.529 102.004,169.702 100.802,169.173 100.832 C 168.858 100.849,169.140 101.051,169.800 101.281 M208.800 120.915 C 208.800 121.032,210.285 122.352,212.100 123.849 C 216.736 127.671,222.778 133.599,226.115 137.600 C 230.497 142.853,231.363 143.519,227.417 138.600 C 222.826 132.877,208.800 119.554,208.800 120.915 M240.860 172.200 C 240.850 173.325,241.395 173.923,241.916 173.358 C 242.339 172.900,242.327 172.800,241.849 172.800 C 241.529 172.800,241.176 172.575,241.065 172.300 C 240.954 172.025,240.862 171.980,240.860 172.200 M242.178 174.528 C 242.397 175.571,243.164 177.043,243.884 177.800 C 244.706 178.664,244.800 178.872,244.800 179.824 C 244.800 180.167,244.980 180.336,245.200 180.200 C 245.433 180.056,245.600 180.455,245.600 181.153 C 245.600 181.813,245.780 182.464,246.000 182.600 C 246.220 182.736,246.400 183.207,246.400 183.647 C 246.400 184.087,246.580 184.336,246.800 184.200 C 247.038 184.053,247.200 184.521,247.200 185.353 C 247.200 186.123,247.380 186.864,247.600 187.000 C 247.820 187.136,248.000 187.946,248.000 188.800 C 248.000 189.654,248.180 190.464,248.400 190.600 C 248.870 190.891,248.906 189.356,248.523 185.400 C 248.320 183.309,248.179 182.853,247.965 183.600 L 247.680 184.600 247.640 183.533 C 247.618 182.947,247.465 182.407,247.300 182.333 C 246.876 182.145,244.786 177.912,244.794 177.257 C 244.798 176.930,244.553 176.809,244.179 176.953 C 243.838 177.084,243.659 177.027,243.783 176.828 C 243.906 176.628,243.766 176.223,243.472 175.929 C 243.177 175.634,243.003 175.192,243.085 174.946 C 243.167 174.700,242.974 174.399,242.656 174.277 C 242.334 174.153,242.123 174.264,242.178 174.528 M247.206 180.033 C 247.209 180.565,247.389 181.270,247.606 181.600 C 247.882 182.022,247.923 181.785,247.742 180.800 C 247.425 179.075,247.198 178.749,247.206 180.033 M290.900 313.876 C 291.285 313.976,291.915 313.976,292.300 313.876 C 292.685 313.775,292.370 313.693,291.600 313.693 C 290.830 313.693,290.515 313.775,290.900 313.876 M256.000 392.400 C 255.515 392.714,255.572 392.789,256.300 392.794 C 256.795 392.797,257.200 392.620,257.200 392.400 C 257.200 391.899,256.776 391.899,256.000 392.400 M251.414 393.178 C 251.265 393.418,251.738 393.555,252.600 393.523 C 254.457 393.453,254.746 392.987,253.004 392.870 C 252.265 392.820,251.549 392.959,251.414 393.178 " stroke="none" fill="#0583d5" fill-rule="evenodd"></path><path id="path3" d="M178.214 0.282 C 176.022 0.364,174.126 0.597,174.001 0.799 C 173.876 1.001,172.474 1.199,170.887 1.240 C 169.299 1.280,168.000 1.467,168.000 1.656 C 168.000 1.845,167.046 2.000,165.880 2.000 C 164.714 2.000,163.589 2.166,163.380 2.369 C 163.171 2.572,162.100 2.786,161.000 2.845 C 159.900 2.904,158.910 3.080,158.800 3.236 C 158.690 3.392,157.970 3.579,157.200 3.651 C 156.430 3.724,155.708 3.908,155.596 4.060 C 155.483 4.213,154.493 4.443,153.396 4.572 C 152.298 4.701,151.340 4.985,151.267 5.203 C 151.193 5.421,150.529 5.600,149.790 5.600 C 149.052 5.600,148.336 5.780,148.200 6.000 C 148.064 6.220,147.423 6.400,146.776 6.400 C 146.129 6.400,145.600 6.561,145.600 6.758 C 145.600 6.955,144.925 7.218,144.100 7.343 C 140.520 7.884,139.600 8.109,139.600 8.444 C 139.600 8.640,139.060 8.800,138.400 8.800 C 137.740 8.800,137.200 8.980,137.200 9.200 C 137.200 9.420,136.660 9.600,136.000 9.600 C 135.340 9.600,134.800 9.780,134.800 10.000 C 134.800 10.220,134.185 10.400,133.433 10.400 C 132.682 10.400,132.007 10.578,131.933 10.797 C 131.860 11.015,131.305 11.234,130.700 11.284 C 130.095 11.334,129.600 11.515,129.600 11.687 C 129.600 11.859,129.251 12.000,128.824 12.000 C 128.397 12.000,127.936 12.180,127.800 12.400 C 127.664 12.620,127.113 12.800,126.576 12.800 C 126.039 12.800,125.600 12.980,125.600 13.200 C 125.600 13.420,125.280 13.600,124.889 13.600 C 124.498 13.600,123.802 13.864,123.342 14.186 C 122.881 14.508,122.417 14.684,122.310 14.576 C 122.202 14.469,121.886 14.655,121.608 14.990 C 121.330 15.326,120.764 15.600,120.351 15.600 C 119.938 15.600,119.600 15.780,119.600 16.000 C 119.600 16.220,119.257 16.400,118.838 16.400 C 118.179 16.400,117.011 16.886,113.905 18.450 C 113.523 18.643,112.938 18.800,112.605 18.800 C 112.272 18.800,111.999 18.935,111.997 19.100 C 111.993 19.459,110.056 20.400,109.320 20.400 C 109.034 20.400,108.800 20.580,108.800 20.800 C 108.800 21.020,108.455 21.200,108.033 21.200 C 107.612 21.200,107.207 21.366,107.133 21.570 C 107.060 21.773,106.737 21.998,106.416 22.070 C 106.094 22.141,105.475 22.515,105.040 22.900 C 104.605 23.285,103.949 23.600,103.583 23.600 C 103.217 23.600,102.431 24.050,101.838 24.600 C 101.244 25.150,100.498 25.600,100.179 25.600 C 99.861 25.600,99.600 25.780,99.600 26.000 C 99.600 26.220,99.240 26.400,98.800 26.400 C 98.360 26.400,98.000 26.580,98.000 26.800 C 98.000 27.020,97.764 27.200,97.475 27.200 C 97.187 27.200,96.564 27.560,96.092 28.000 C 95.620 28.440,94.956 28.800,94.617 28.800 C 94.278 28.800,94.000 28.980,94.000 29.200 C 94.000 29.420,93.730 29.600,93.400 29.600 C 93.070 29.600,92.800 29.780,92.800 30.000 C 92.800 30.220,92.480 30.400,92.088 30.400 C 91.697 30.400,91.117 30.760,90.800 31.200 C 90.483 31.640,90.071 32.000,89.885 32.000 C 89.466 32.000,86.829 33.942,85.953 34.896 C 85.597 35.283,85.057 35.600,84.753 35.600 C 84.449 35.601,83.677 36.051,83.038 36.600 C 82.399 37.150,81.732 37.600,81.556 37.600 C 81.380 37.600,80.823 38.009,80.318 38.509 C 79.813 39.008,78.770 39.861,78.000 40.403 C 77.230 40.945,76.240 41.700,75.800 42.080 C 75.360 42.459,74.899 42.732,74.775 42.685 C 74.652 42.638,73.730 43.432,72.728 44.449 C 71.725 45.466,70.704 46.366,70.459 46.449 C 70.058 46.585,67.153 49.153,62.711 53.300 C 61.827 54.125,61.039 54.800,60.960 54.800 C 60.609 54.800,56.400 59.332,56.400 59.711 C 56.400 59.943,56.289 60.022,56.152 59.886 C 55.918 59.651,54.800 60.522,54.800 60.940 C 54.800 61.048,53.990 61.947,53.000 62.937 C 52.010 63.927,51.200 64.851,51.200 64.991 C 51.200 65.130,50.130 66.294,48.822 67.578 C 47.515 68.861,46.551 70.017,46.680 70.146 C 46.809 70.276,46.619 70.495,46.257 70.633 C 45.896 70.772,45.600 71.025,45.600 71.195 C 45.600 71.364,44.880 72.245,44.000 73.152 C 43.120 74.059,42.400 74.975,42.400 75.187 C 42.400 75.400,41.770 76.203,41.000 76.973 C 40.230 77.743,39.600 78.569,39.600 78.808 C 39.600 79.048,39.061 79.819,38.402 80.522 C 37.743 81.225,37.203 82.025,37.202 82.300 C 37.201 82.575,37.050 82.800,36.868 82.800 C 36.685 82.800,36.287 83.295,35.984 83.900 C 35.681 84.505,35.064 85.360,34.614 85.800 C 34.163 86.240,33.541 87.095,33.230 87.700 C 32.919 88.305,32.515 88.800,32.332 88.800 C 32.150 88.800,32.000 89.120,32.000 89.512 C 32.000 89.903,31.640 90.483,31.200 90.800 C 30.760 91.117,30.400 91.669,30.400 92.026 C 30.400 92.384,30.040 93.002,29.600 93.400 C 29.160 93.798,28.800 94.374,28.800 94.679 C 28.800 94.984,28.440 95.620,28.000 96.092 C 27.560 96.564,27.200 97.187,27.200 97.475 C 27.200 97.764,27.020 98.000,26.800 98.000 C 26.580 98.000,26.400 98.360,26.400 98.800 C 26.400 99.240,26.220 99.600,26.000 99.600 C 25.780 99.600,25.600 99.941,25.600 100.357 C 25.600 100.774,25.330 101.218,25.000 101.345 C 24.670 101.471,24.400 101.851,24.400 102.187 C 24.400 102.524,24.256 102.800,24.080 102.800 C 23.905 102.800,23.533 103.430,23.254 104.200 C 22.976 104.970,22.580 105.600,22.374 105.600 C 22.168 105.600,22.000 105.834,22.000 106.120 C 22.000 106.856,21.059 108.793,20.700 108.797 C 20.535 108.799,20.400 109.160,20.400 109.600 C 20.400 110.040,20.220 110.400,20.000 110.400 C 19.780 110.400,19.600 110.760,19.600 111.200 C 19.600 111.640,19.420 112.000,19.200 112.000 C 18.980 112.000,18.800 112.272,18.800 112.605 C 18.800 112.938,18.643 113.523,18.450 113.905 C 16.886 117.011,16.400 118.179,16.400 118.838 C 16.400 119.257,16.220 119.600,16.000 119.600 C 15.780 119.600,15.600 119.945,15.600 120.367 C 15.600 120.788,15.410 121.197,15.178 121.274 C 14.946 121.351,14.713 121.681,14.659 122.007 C 14.605 122.333,14.345 122.993,14.081 123.474 C 13.816 123.954,13.600 124.629,13.600 124.974 C 13.600 125.318,13.420 125.600,13.200 125.600 C 12.980 125.600,12.800 125.949,12.800 126.376 C 12.800 126.803,12.620 127.264,12.400 127.400 C 12.180 127.536,12.000 128.087,12.000 128.624 C 12.000 129.161,11.859 129.600,11.687 129.600 C 11.515 129.600,11.334 130.095,11.284 130.700 C 11.234 131.305,11.015 131.860,10.797 131.933 C 10.578 132.007,10.400 132.682,10.400 133.433 C 10.400 134.185,10.220 134.800,10.000 134.800 C 9.780 134.800,9.600 135.239,9.600 135.776 C 9.600 136.313,9.420 136.864,9.200 137.000 C 8.980 137.136,8.800 137.777,8.800 138.424 C 8.800 139.071,8.620 139.600,8.400 139.600 C 8.180 139.600,8.000 140.241,8.000 141.024 C 8.000 141.871,7.838 142.347,7.600 142.200 C 7.362 142.053,7.200 142.521,7.200 143.353 C 7.200 144.123,7.020 144.864,6.800 145.000 C 6.580 145.136,6.400 145.967,6.400 146.847 C 6.400 147.812,6.241 148.349,6.000 148.200 C 5.755 148.049,5.600 148.670,5.600 149.800 C 5.600 150.930,5.445 151.551,5.200 151.400 C 4.980 151.264,4.793 151.298,4.785 151.476 C 4.727 152.714,4.254 155.113,3.957 155.674 C 3.761 156.044,3.600 156.989,3.600 157.774 C 3.600 158.558,3.420 159.200,3.200 159.200 C 2.980 159.200,2.800 160.100,2.800 161.200 C 2.800 162.300,2.650 163.200,2.466 163.200 C 2.282 163.200,2.091 164.321,2.041 165.691 C 1.992 167.062,1.813 168.277,1.645 168.391 C 1.476 168.506,1.292 169.675,1.236 170.988 C 1.180 172.302,0.992 173.652,0.819 173.988 C 0.645 174.325,0.403 177.840,0.280 181.800 C 0.036 189.647,-0.030 189.657,1.599 181.600 C 2.292 178.172,2.741 176.194,3.143 174.800 C 3.365 174.030,3.663 172.950,3.806 172.400 C 3.950 171.850,4.223 171.040,4.413 170.600 C 4.604 170.160,5.028 168.971,5.355 167.959 C 6.411 164.694,9.681 157.730,12.346 153.069 C 18.373 142.529,30.164 129.278,39.992 122.000 C 40.735 121.450,41.806 120.618,42.371 120.152 C 46.298 116.913,58.146 110.005,65.273 106.798 C 71.036 104.205,70.952 104.240,73.800 103.207 C 75.120 102.728,76.513 102.170,76.895 101.968 C 77.277 101.766,77.864 101.600,78.200 101.600 C 78.536 101.600,79.123 101.441,79.505 101.246 C 81.665 100.146,94.332 96.913,100.000 96.015 C 111.741 94.156,115.709 93.880,127.000 94.137 C 136.356 94.350,139.142 94.555,146.200 95.552 C 152.883 96.495,162.245 98.563,168.200 100.410 C 171.395 101.401,174.680 102.486,175.400 102.787 C 175.840 102.971,177.280 103.531,178.600 104.030 C 190.851 108.665,206.097 117.727,214.600 125.427 C 222.276 132.378,231.186 142.268,233.878 146.825 C 234.260 147.471,234.714 148.000,234.886 148.000 C 235.059 148.000,235.200 148.270,235.200 148.600 C 235.200 148.930,235.341 149.200,235.514 149.200 C 235.686 149.200,236.149 149.745,236.543 150.410 C 236.936 151.076,237.680 152.077,238.197 152.635 L 239.137 153.649 240.903 152.844 C 241.874 152.402,242.901 151.761,243.184 151.420 C 243.466 151.079,243.924 150.800,244.200 150.800 C 244.476 150.800,244.934 150.521,245.216 150.180 C 245.499 149.839,246.482 149.218,247.400 148.800 C 248.318 148.382,249.301 147.761,249.584 147.420 C 249.866 147.079,250.315 146.800,250.579 146.800 C 250.844 146.800,251.483 146.350,252.000 145.800 C 252.517 145.250,253.101 144.800,253.298 144.800 C 253.721 144.800,254.800 143.780,254.800 143.380 C 254.800 143.227,254.526 143.330,254.190 143.608 C 253.855 143.886,253.478 144.011,253.352 143.886 C 253.227 143.760,253.501 143.334,253.962 142.940 C 254.423 142.545,254.800 141.834,254.800 141.360 C 254.800 140.886,255.070 140.274,255.400 140.000 C 255.730 139.726,256.000 139.133,256.000 138.683 C 256.000 138.232,256.270 137.565,256.600 137.200 C 256.930 136.836,257.265 135.972,257.346 135.281 C 257.426 134.590,257.750 133.614,258.066 133.112 C 258.381 132.610,258.968 131.120,259.370 129.800 C 259.771 128.480,260.244 127.108,260.421 126.751 C 260.606 126.378,260.560 125.920,260.312 125.672 C 260.004 125.364,260.096 124.921,260.633 124.121 C 261.512 122.812,262.495 118.528,262.159 117.471 C 262.032 117.071,262.169 116.441,262.464 116.071 C 263.618 114.627,264.000 113.535,264.000 111.685 C 264.000 110.626,264.152 109.589,264.337 109.380 C 264.523 109.171,264.893 107.508,265.160 105.685 C 265.427 103.862,265.892 101.672,266.194 100.817 C 266.495 99.963,266.656 98.935,266.551 98.532 C 266.446 98.129,266.652 96.180,267.010 94.200 C 267.367 92.220,267.741 89.360,267.840 87.845 C 267.940 86.330,268.151 84.890,268.310 84.645 C 268.470 84.400,268.627 83.660,268.660 83.000 C 268.816 79.843,269.336 75.358,269.587 75.000 C 270.018 74.384,270.072 68.492,269.649 68.230 C 269.169 67.933,269.525 66.561,270.235 65.971 C 270.637 65.638,270.674 65.313,270.376 64.755 C 270.152 64.336,270.004 63.230,270.049 62.297 C 270.093 61.364,269.993 60.240,269.827 59.800 C 269.593 59.181,269.619 59.133,269.941 59.589 C 270.297 60.093,270.397 60.073,270.637 59.448 C 270.804 59.014,270.709 58.591,270.404 58.402 C 270.065 58.193,269.983 57.696,270.163 56.943 C 270.545 55.346,270.723 51.200,270.418 51.011 C 270.075 50.799,270.210 46.372,270.586 45.495 C 270.753 45.107,270.706 44.567,270.481 44.295 C 270.128 43.866,269.899 41.776,269.475 35.079 C 269.422 34.242,269.166 33.426,268.906 33.266 C 268.413 32.961,268.412 30.530,268.904 29.747 C 269.346 29.044,264.226 23.200,263.169 23.200 C 262.937 23.200,261.871 22.300,260.800 21.200 C 259.729 20.100,258.607 19.200,258.307 19.200 C 258.008 19.200,257.059 18.480,256.200 17.600 C 255.341 16.720,254.439 16.000,254.197 16.000 C 253.955 16.000,253.146 15.370,252.400 14.600 C 251.654 13.830,250.836 13.200,250.584 13.200 C 250.331 13.200,249.798 12.840,249.400 12.400 C 249.002 11.960,248.468 11.600,248.213 11.600 C 247.958 11.600,247.232 11.060,246.600 10.400 C 245.968 9.740,245.236 9.200,244.974 9.200 C 244.712 9.200,244.266 8.921,243.984 8.580 C 243.701 8.239,242.718 7.618,241.800 7.200 C 240.882 6.782,239.899 6.161,239.616 5.820 C 239.334 5.479,238.885 5.200,238.621 5.200 C 238.356 5.200,237.730 4.764,237.229 4.231 C 236.685 3.652,235.996 3.324,235.520 3.415 C 234.840 3.546,234.754 3.407,234.945 2.485 C 235.068 1.888,235.070 1.625,234.951 1.900 C 234.621 2.659,233.465 2.529,233.757 1.767 C 233.912 1.363,233.819 1.197,233.500 1.308 C 233.225 1.404,233.042 1.824,233.094 2.241 C 233.171 2.863,233.105 2.837,232.733 2.100 C 232.482 1.605,232.115 1.200,231.915 1.200 C 231.716 1.200,231.664 1.380,231.800 1.600 C 231.936 1.820,231.857 2.000,231.624 2.000 C 231.391 2.000,231.200 1.859,231.200 1.687 C 231.200 1.515,230.723 1.335,230.140 1.287 C 229.558 1.239,228.803 0.974,228.464 0.700 C 227.970 0.300,227.907 0.300,228.147 0.700 C 228.336 1.015,228.216 1.200,227.824 1.200 C 227.481 1.200,227.200 1.019,227.200 0.797 C 227.200 0.575,226.435 0.390,225.500 0.384 C 224.565 0.379,214.440 0.320,203.000 0.254 C 191.560 0.188,180.406 0.200,178.214 0.282 M236.279 2.254 C 236.147 2.387,236.308 2.765,236.638 3.095 C 237.415 3.872,237.684 3.603,237.028 2.706 C 236.749 2.324,236.412 2.121,236.279 2.254 M238.033 2.144 C 238.505 2.550,240.443 2.793,240.210 2.416 C 240.068 2.187,239.483 2.000,238.910 2.000 C 238.336 2.000,237.942 2.065,238.033 2.144 " stroke="none" fill="#2cc4d7" fill-rule="evenodd"></path><path id="path4" d="M233.878 1.455 C 233.408 1.926,233.569 2.400,234.200 2.400 C 234.530 2.400,234.800 2.660,234.800 2.977 C 234.800 3.328,235.097 3.497,235.559 3.408 C 235.991 3.325,236.711 3.680,237.229 4.231 C 237.730 4.764,238.356 5.200,238.621 5.200 C 238.885 5.200,239.334 5.479,239.616 5.820 C 239.899 6.161,240.882 6.782,241.800 7.200 C 242.718 7.618,243.701 8.239,243.984 8.580 C 244.266 8.921,244.712 9.200,244.974 9.200 C 245.236 9.200,245.968 9.740,246.600 10.400 C 247.232 11.060,247.958 11.600,248.213 11.600 C 248.468 11.600,249.002 11.960,249.400 12.400 C 249.798 12.840,250.331 13.200,250.584 13.200 C 250.836 13.200,251.654 13.830,252.400 14.600 C 253.146 15.370,253.955 16.000,254.197 16.000 C 254.439 16.000,255.341 16.720,256.200 17.600 C 257.059 18.480,258.008 19.200,258.307 19.200 C 258.607 19.200,259.729 20.100,260.800 21.200 C 261.871 22.300,262.937 23.200,263.169 23.200 C 264.226 23.200,269.346 29.044,268.904 29.747 C 268.412 30.530,268.413 32.961,268.906 33.266 C 269.166 33.426,269.422 34.242,269.475 35.079 C 269.899 41.776,270.128 43.866,270.481 44.295 C 270.706 44.567,270.753 45.107,270.586 45.495 C 270.210 46.372,270.075 50.799,270.418 51.011 C 270.723 51.200,270.545 55.346,270.163 56.943 C 269.983 57.696,270.065 58.193,270.404 58.402 C 270.709 58.591,270.804 59.014,270.637 59.448 C 270.397 60.073,270.297 60.093,269.941 59.589 C 269.619 59.133,269.593 59.181,269.827 59.800 C 269.993 60.240,270.093 61.364,270.049 62.297 C 270.004 63.230,270.152 64.336,270.376 64.755 C 270.674 65.313,270.637 65.638,270.235 65.971 C 269.525 66.561,269.169 67.933,269.649 68.230 C 270.072 68.492,270.018 74.384,269.587 75.000 C 269.336 75.358,268.816 79.843,268.660 83.000 C 268.627 83.660,268.470 84.400,268.310 84.645 C 268.151 84.890,267.940 86.330,267.840 87.845 C 267.741 89.360,267.367 92.220,267.010 94.200 C 266.652 96.180,266.446 98.129,266.551 98.532 C 266.656 98.935,266.495 99.963,266.194 100.817 C 265.892 101.672,265.427 103.862,265.160 105.685 C 264.893 107.508,264.523 109.171,264.337 109.380 C 264.152 109.589,264.000 110.626,264.000 111.685 C 264.000 113.535,263.618 114.627,262.464 116.071 C 262.169 116.441,262.032 117.071,262.159 117.471 C 262.495 118.528,261.512 122.812,260.633 124.121 C 260.096 124.921,260.004 125.364,260.312 125.672 C 260.560 125.920,260.606 126.378,260.421 126.751 C 260.244 127.108,259.771 128.480,259.370 129.800 C 258.968 131.120,258.381 132.610,258.066 133.112 C 257.750 133.614,257.426 134.590,257.346 135.281 C 257.265 135.972,256.930 136.836,256.600 137.200 C 256.270 137.565,256.000 138.232,256.000 138.683 C 256.000 139.133,255.730 139.726,255.400 140.000 C 255.070 140.274,254.800 140.886,254.800 141.360 C 254.800 141.834,254.423 142.545,253.962 142.940 C 253.501 143.334,253.227 143.760,253.352 143.886 C 253.478 144.011,253.855 143.886,254.190 143.608 C 254.526 143.330,254.800 143.227,254.800 143.380 C 254.800 143.780,253.721 144.800,253.298 144.800 C 253.101 144.800,252.517 145.250,252.000 145.800 C 251.483 146.350,250.844 146.800,250.579 146.800 C 250.315 146.800,249.866 147.079,249.584 147.420 C 249.301 147.761,248.318 148.382,247.400 148.800 C 246.482 149.218,245.499 149.839,245.216 150.180 C 244.934 150.521,244.476 150.800,244.200 150.800 C 243.924 150.800,243.466 151.079,243.184 151.420 C 242.901 151.761,241.874 152.402,240.903 152.844 L 239.137 153.649 238.197 152.635 C 237.680 152.077,236.936 151.076,236.543 150.410 C 236.149 149.745,235.686 149.200,235.514 149.200 C 235.341 149.200,235.200 148.945,235.200 148.633 C 235.200 148.322,235.062 148.007,234.893 147.933 C 234.723 147.860,233.731 146.594,232.686 145.120 C 231.642 143.646,230.602 142.325,230.374 142.184 C 230.146 142.043,230.852 143.159,231.942 144.664 C 242.166 158.780,248.153 174.994,248.683 190.000 C 248.803 193.410,249.068 196.410,249.271 196.666 C 249.736 197.251,249.623 204.800,249.149 204.800 C 248.957 204.800,248.800 205.689,248.800 206.776 C 248.800 207.863,248.649 208.846,248.465 208.960 C 248.282 209.073,248.099 210.029,248.059 211.083 C 248.020 212.137,247.810 213.060,247.594 213.133 C 247.377 213.207,247.200 213.612,247.200 214.033 C 247.200 214.455,247.031 214.800,246.824 214.800 C 246.337 214.800,246.484 216.379,247.064 217.374 C 247.492 218.110,247.566 218.115,248.543 217.474 C 249.109 217.103,250.108 216.800,250.762 216.800 C 251.417 216.800,252.064 216.620,252.200 216.400 C 252.336 216.180,252.957 216.000,253.581 216.000 C 254.219 216.000,254.815 215.738,254.945 215.400 C 255.078 215.053,255.676 214.800,256.364 214.800 C 257.018 214.800,257.664 214.620,257.800 214.400 C 257.936 214.180,258.476 214.000,259.000 214.000 C 259.524 214.000,260.064 213.820,260.200 213.600 C 260.336 213.380,260.876 213.200,261.400 213.200 C 261.924 213.200,262.464 213.020,262.600 212.800 C 262.736 212.580,263.276 212.400,263.800 212.400 C 264.324 212.400,264.864 212.220,265.000 212.000 C 265.136 211.780,265.676 211.600,266.200 211.600 C 266.724 211.600,267.264 211.420,267.400 211.200 C 267.536 210.980,267.997 210.800,268.424 210.800 C 268.851 210.800,269.200 210.620,269.200 210.400 C 269.200 210.180,269.740 210.000,270.400 210.000 C 271.060 210.000,271.600 209.820,271.600 209.600 C 271.600 209.380,272.129 209.200,272.776 209.200 C 273.423 209.200,274.064 209.020,274.200 208.800 C 274.336 208.580,274.766 208.400,275.156 208.400 C 276.005 208.400,279.346 206.754,280.361 205.835 C 280.804 205.435,281.365 205.288,281.808 205.458 C 282.327 205.658,282.444 205.595,282.222 205.236 C 282.032 204.928,282.237 204.510,282.755 204.147 C 283.218 203.822,283.929 202.833,284.334 201.947 C 284.740 201.062,285.506 200.123,286.036 199.862 C 286.566 199.600,287.178 198.984,287.395 198.493 C 287.612 198.002,287.989 197.600,288.233 197.600 C 288.477 197.600,289.004 197.237,289.405 196.794 C 289.883 196.266,290.421 196.069,290.967 196.221 C 291.627 196.404,291.676 196.367,291.200 196.041 C 290.702 195.699,290.927 195.298,292.541 193.660 C 293.608 192.576,294.691 191.265,294.948 190.745 C 295.204 190.225,295.786 189.635,296.241 189.434 C 296.695 189.232,297.232 188.692,297.434 188.234 C 297.635 187.775,298.214 187.220,298.719 187.000 C 299.250 186.769,299.572 186.342,299.480 185.989 C 299.392 185.650,300.183 184.492,301.257 183.389 C 302.322 182.295,303.195 181.090,303.197 180.712 C 303.198 180.334,303.555 179.392,303.990 178.618 C 304.445 177.807,304.668 176.913,304.515 176.506 C 304.288 175.901,304.342 175.875,304.889 176.319 C 305.319 176.669,305.614 176.701,305.788 176.419 C 305.931 176.189,305.857 176.000,305.624 176.000 C 305.159 176.000,305.040 174.693,305.466 174.267 C 305.612 174.121,305.782 173.531,305.843 172.957 C 305.905 172.383,306.239 171.599,306.587 171.214 C 306.935 170.830,307.108 170.225,306.971 169.869 C 306.629 168.978,307.566 167.008,308.543 166.565 C 308.986 166.364,309.419 165.930,309.505 165.600 C 309.635 165.100,309.596 165.093,309.271 165.558 C 309.040 165.888,308.594 166.007,308.180 165.848 C 307.534 165.600,307.547 165.508,308.340 164.664 C 308.813 164.160,309.200 163.445,309.200 163.074 C 309.200 162.703,309.402 162.400,309.649 162.400 C 309.974 162.400,309.978 162.255,309.662 161.875 C 309.334 161.479,309.525 160.988,310.442 159.875 C 311.343 158.782,311.495 158.400,311.029 158.400 C 310.166 158.400,310.240 158.003,311.369 156.600 C 312.247 155.507,312.278 155.339,311.712 154.709 C 311.146 154.078,311.190 153.888,312.223 152.534 C 312.951 151.580,313.184 150.995,312.877 150.892 C 312.113 150.638,312.325 149.589,313.300 148.798 L 314.200 148.068 313.307 147.116 L 312.414 146.164 313.301 145.277 C 314.046 144.532,314.110 144.268,313.702 143.614 C 313.380 143.100,313.354 142.752,313.624 142.585 C 313.849 142.446,313.931 142.013,313.807 141.623 C 313.683 141.230,313.854 140.687,314.191 140.407 C 314.840 139.869,314.948 138.317,314.428 137.000 C 314.197 136.414,314.356 135.973,315.024 135.349 C 315.863 134.566,315.891 134.411,315.370 133.407 C 314.786 132.281,314.970 129.389,315.653 128.968 C 315.844 128.849,316.000 128.324,316.000 127.800 C 316.000 127.276,316.180 126.736,316.400 126.600 C 316.961 126.254,316.899 124.665,316.300 124.030 C 315.900 123.606,315.900 123.463,316.300 123.317 C 316.900 123.097,316.985 119.762,316.400 119.400 C 315.759 119.004,315.936 118.510,316.800 118.284 C 317.654 118.061,317.944 116.260,317.200 115.800 C 316.980 115.664,316.800 114.473,316.800 113.153 C 316.800 111.655,316.950 110.846,317.200 111.000 C 317.420 111.136,317.600 111.687,317.600 112.224 C 317.600 112.761,317.780 113.200,318.000 113.200 C 318.228 113.200,318.400 112.008,318.400 110.424 C 318.400 108.897,318.580 107.536,318.800 107.400 C 319.020 107.264,319.200 106.569,319.200 105.856 C 319.200 105.143,319.398 104.362,319.639 104.121 C 319.891 103.869,320.019 102.725,319.939 101.440 C 319.819 99.505,319.897 99.199,320.513 99.199 C 321.364 99.200,321.840 98.189,321.316 97.495 C 320.571 96.510,320.774 95.138,321.623 95.407 C 322.454 95.671,322.713 94.874,322.021 94.180 C 321.782 93.941,322.002 92.733,322.614 90.915 C 323.253 89.020,323.502 87.608,323.340 86.798 C 323.150 85.848,323.301 85.345,323.996 84.604 C 324.830 83.717,324.850 83.592,324.250 82.993 C 323.892 82.635,323.614 82.131,323.632 81.871 C 323.654 81.540,323.723 81.548,323.865 81.900 C 324.092 82.463,325.600 82.593,325.600 82.049 C 325.600 81.856,325.330 81.474,325.000 81.200 C 324.124 80.473,324.266 79.910,325.182 80.481 C 326.231 81.137,326.694 80.588,325.864 79.671 C 325.009 78.726,325.028 78.538,326.000 78.284 C 326.541 78.143,326.800 77.738,326.800 77.037 C 326.800 76.359,327.018 76.000,327.432 76.000 C 327.928 76.000,328.006 75.738,327.795 74.779 C 327.587 73.829,327.709 73.399,328.345 72.848 C 329.147 72.153,329.381 69.648,328.708 68.975 C 328.560 68.826,328.708 68.435,329.038 68.105 C 329.368 67.775,329.765 67.641,329.919 67.807 C 330.074 67.973,329.975 68.190,329.700 68.288 C 329.425 68.386,329.200 68.660,329.200 68.895 C 329.200 69.131,329.564 68.994,330.009 68.591 C 330.615 68.044,330.693 67.781,330.320 67.551 C 329.942 67.317,330.013 67.018,330.610 66.321 C 331.989 64.713,332.572 63.457,332.025 63.275 C 331.707 63.169,331.859 62.768,332.471 62.102 C 333.135 61.378,333.253 61.038,332.883 60.906 C 332.479 60.762,332.471 60.597,332.846 60.144 C 333.201 59.717,333.209 59.449,332.877 59.117 C 332.546 58.786,332.653 58.475,333.286 57.926 C 333.915 57.380,334.024 57.064,333.697 56.737 C 333.030 56.070,334.177 55.091,335.299 55.369 C 335.794 55.492,335.975 55.489,335.700 55.363 C 335.106 55.090,335.026 54.000,335.600 54.000 C 335.820 54.000,336.000 54.180,336.000 54.400 C 336.000 54.620,336.216 54.800,336.480 54.800 C 336.853 54.800,336.853 54.693,336.480 54.320 C 336.216 54.056,336.000 53.437,336.000 52.944 C 336.000 52.451,335.820 51.936,335.600 51.800 C 335.380 51.664,335.200 51.347,335.200 51.096 C 335.200 50.768,335.334 50.774,335.680 51.120 C 336.624 52.064,337.161 51.669,336.923 50.203 C 336.576 48.066,337.422 47.292,338.653 48.620 C 339.176 49.184,339.772 49.541,339.978 49.414 C 340.184 49.286,340.972 49.726,341.729 50.391 C 343.203 51.685,343.600 51.851,343.600 51.171 C 343.600 50.499,342.451 49.521,341.993 49.804 C 341.766 49.945,341.630 49.821,341.690 49.530 C 341.751 49.238,341.581 49.043,341.314 49.095 C 341.046 49.148,340.925 48.940,341.043 48.632 C 341.185 48.262,340.777 47.899,339.839 47.560 C 339.059 47.277,338.495 46.972,338.586 46.881 C 338.677 46.790,337.907 46.016,336.876 45.162 C 335.844 44.307,334.415 43.061,333.700 42.393 C 332.985 41.724,332.400 41.285,332.400 41.417 C 332.400 41.549,332.136 41.419,331.814 41.129 C 330.468 39.914,330.011 39.600,329.593 39.600 C 329.351 39.600,329.264 39.420,329.400 39.200 C 329.536 38.980,329.343 38.800,328.971 38.800 C 328.598 38.800,328.003 38.471,327.647 38.070 C 327.291 37.668,326.415 37.084,325.700 36.772 C 324.985 36.460,324.400 36.069,324.400 35.902 C 324.400 35.736,324.119 35.600,323.776 35.600 C 323.433 35.600,323.264 35.420,323.400 35.200 C 323.536 34.980,323.394 34.800,323.086 34.800 C 322.777 34.800,322.197 34.439,321.798 33.998 C 321.398 33.556,320.995 33.272,320.901 33.365 C 320.808 33.459,319.802 32.831,318.666 31.970 C 317.529 31.108,316.285 30.403,315.900 30.402 C 315.515 30.401,315.200 30.255,315.200 30.079 C 315.200 29.902,314.303 29.317,313.206 28.779 C 312.110 28.240,311.210 27.665,311.206 27.500 C 311.203 27.335,310.840 27.200,310.400 27.200 C 309.960 27.200,309.600 27.020,309.600 26.800 C 309.600 26.580,309.330 26.400,309.000 26.400 C 308.670 26.400,308.400 26.220,308.400 26.000 C 308.400 25.780,308.040 25.600,307.600 25.600 C 307.160 25.600,306.799 25.465,306.797 25.300 C 306.795 25.135,306.390 24.807,305.897 24.571 C 305.404 24.334,304.100 23.680,303.000 23.116 C 301.900 22.552,300.100 21.668,299.000 21.151 C 297.900 20.634,296.910 20.103,296.800 19.971 C 296.690 19.839,295.745 19.482,294.700 19.178 C 293.655 18.874,292.800 18.485,292.800 18.313 C 292.800 18.141,292.440 18.000,292.000 18.000 C 291.560 18.000,291.200 17.820,291.200 17.600 C 291.200 17.380,290.750 17.200,290.200 17.200 C 289.650 17.200,289.200 17.020,289.200 16.800 C 289.200 16.580,288.761 16.400,288.224 16.400 C 287.687 16.400,287.136 16.220,287.000 16.000 C 286.864 15.780,286.403 15.600,285.976 15.600 C 285.549 15.600,285.200 15.420,285.200 15.200 C 285.200 14.980,284.918 14.800,284.574 14.800 C 284.229 14.800,283.554 14.584,283.074 14.320 C 282.593 14.055,281.840 13.780,281.400 13.708 C 280.960 13.636,280.540 13.402,280.467 13.188 C 280.393 12.975,279.909 12.800,279.390 12.800 C 278.872 12.800,278.336 12.620,278.200 12.400 C 278.064 12.180,277.513 12.000,276.976 12.000 C 276.439 12.000,276.000 11.820,276.000 11.600 C 276.000 11.380,275.460 11.200,274.800 11.200 C 274.140 11.200,273.600 11.020,273.600 10.800 C 273.600 10.580,273.071 10.400,272.424 10.400 C 271.777 10.400,271.136 10.220,271.000 10.000 C 270.864 9.780,270.223 9.600,269.576 9.600 C 268.929 9.600,268.400 9.420,268.400 9.200 C 268.400 8.980,267.680 8.800,266.800 8.800 C 265.920 8.800,265.200 8.620,265.200 8.400 C 265.200 8.180,264.581 8.000,263.824 8.000 C 263.067 8.000,262.336 7.820,262.200 7.600 C 262.064 7.380,261.423 7.200,260.776 7.200 C 260.129 7.200,259.600 7.020,259.600 6.800 C 259.600 6.580,258.790 6.400,257.800 6.400 C 256.810 6.400,256.000 6.220,256.000 6.000 C 256.000 5.780,255.280 5.600,254.400 5.600 C 253.520 5.600,252.800 5.450,252.800 5.267 C 252.800 5.083,252.575 4.920,252.300 4.904 C 250.789 4.815,249.302 4.492,248.561 4.091 C 247.928 3.748,247.595 3.755,247.203 4.119 C 246.793 4.498,246.747 4.487,246.986 4.065 C 247.215 3.664,247.005 3.558,246.145 3.643 C 245.515 3.704,244.573 3.522,244.052 3.238 C 243.530 2.953,243.216 2.903,243.355 3.126 C 243.520 3.394,243.229 3.416,242.503 3.190 C 238.587 1.974,236.276 1.887,237.192 2.990 C 237.823 3.751,237.340 3.797,236.590 3.048 C 236.287 2.744,236.165 2.357,236.319 2.189 C 236.474 2.020,236.195 1.982,235.699 2.104 C 235.141 2.241,234.676 2.107,234.477 1.752 C 234.300 1.436,234.031 1.303,233.878 1.455 M343.820 51.567 C 343.507 52.074,345.453 54.138,345.953 53.829 C 346.143 53.711,346.635 54.062,347.045 54.608 C 347.454 55.153,348.035 55.600,348.335 55.600 C 348.635 55.600,348.250 54.970,347.480 54.200 C 346.710 53.430,345.892 52.800,345.663 52.800 C 345.433 52.800,344.984 52.427,344.664 51.971 C 344.305 51.457,343.983 51.303,343.820 51.567 M316.000 124.333 C 316.000 124.854,315.524 125.201,315.138 124.961 C 314.724 124.706,315.081 124.000,315.624 124.000 C 315.831 124.000,316.000 124.150,316.000 124.333 " stroke="none" fill="#38ce9e" fill-rule="evenodd"></path></g></svg>