<?xml version="1.0" standalone="no"?>
<!DOCTYPE svg PUBLIC "-//W3C//DTD SVG 20010904//EN"
 "http://www.w3.org/TR/2001/REC-SVG-20010904/DTD/svg10.dtd">
<svg version="1.0" xmlns="http://www.w3.org/2000/svg"
 width="459.000000pt" height="439.000000pt" viewBox="0 0 459.000000 439.000000"
 preserveAspectRatio="xMidYMid meet">

<g transform="translate(0.000000,439.000000) scale(0.100000,-0.100000)"
fill="#000000" stroke="none">
<path d="M2245 4364 c-11 -3 -39 -11 -63 -19 -49 -16 -2030 -1262 -2080 -1309
-50 -46 -73 -99 -75 -169 l-2 -60 230 -138 c127 -76 233 -138 238 -138 4 -1 7
96 7 214 0 174 3 222 15 245 33 64 -95 60 1785 60 1858 0 1750 3 1782 -53 9
-15 15 -90 18 -243 l5 -222 235 138 235 138 -1 58 c-1 68 -25 123 -76 170 -46
43 -2026 1291 -2077 1308 -45 17 -145 27 -176 20z"/>
<path d="M2971 771 c-58 -119 -160 -330 -227 -469 l-123 -252 903 2 903 3 48
30 c26 17 49 34 49 39 1 9 -143 95 -934 560 -250 148 -468 276 -485 286 l-30
18 -104 -217z"/>
</g>
</svg>
