<svg id="svg" version="1.1" xmlns="http://www.w3.org/2000/svg" xmlns:xlink="http://www.w3.org/1999/xlink" width="400" height="400" viewBox="0, 0, 400,400"><g id="svgg"><path id="path0" d="M231.406 0.269 C 228.989 0.357,226.838 0.602,226.626 0.814 C 226.413 1.027,225.209 1.200,223.949 1.200 C 222.445 1.200,221.451 1.406,221.057 1.800 C 220.669 2.188,219.679 2.400,218.252 2.400 C 217.039 2.400,215.936 2.580,215.800 2.800 C 215.664 3.020,214.753 3.200,213.776 3.200 C 212.799 3.200,212.000 3.380,212.000 3.600 C 212.000 3.820,211.190 4.000,210.200 4.000 C 209.210 4.000,208.400 4.180,208.400 4.400 C 208.400 4.620,207.691 4.800,206.824 4.800 C 205.957 4.800,205.136 4.980,205.000 5.200 C 204.864 5.420,204.236 5.600,203.605 5.600 C 202.974 5.600,202.187 5.870,201.857 6.200 C 201.527 6.530,200.805 6.800,200.252 6.800 C 199.699 6.800,199.136 6.980,199.000 7.200 C 198.864 7.420,198.313 7.600,197.776 7.600 C 197.239 7.600,196.800 7.780,196.800 8.000 C 196.800 8.220,196.260 8.400,195.600 8.400 C 194.940 8.400,194.400 8.580,194.400 8.800 C 194.400 9.020,193.965 9.200,193.432 9.200 C 192.410 9.200,190.007 10.391,190.003 10.900 C 190.001 11.065,189.370 11.200,188.600 11.200 C 187.830 11.200,187.200 11.380,187.200 11.600 C 187.200 11.820,186.840 12.000,186.400 12.000 C 185.960 12.000,185.600 12.180,185.600 12.400 C 185.600 12.620,185.150 12.800,184.600 12.800 C 184.050 12.800,183.600 12.980,183.600 13.200 C 183.600 13.420,183.253 13.600,182.829 13.600 C 182.404 13.600,181.787 13.870,181.457 14.200 C 181.127 14.530,180.484 14.800,180.029 14.800 C 179.573 14.800,179.200 14.980,179.200 15.200 C 179.200 15.420,178.840 15.600,178.400 15.600 C 177.960 15.600,177.600 15.780,177.600 16.000 C 177.600 16.220,177.375 16.400,177.100 16.399 C 176.222 16.397,173.200 18.180,173.200 18.699 C 173.200 18.975,172.750 19.200,172.200 19.200 C 171.650 19.200,171.200 19.380,171.200 19.600 C 171.200 19.820,170.880 20.000,170.488 20.000 C 170.097 20.000,169.517 20.360,169.200 20.800 C 168.883 21.240,168.325 21.600,167.961 21.600 C 167.596 21.600,167.074 21.870,166.800 22.200 C 166.526 22.530,166.137 22.800,165.934 22.800 C 165.732 22.800,165.180 23.160,164.708 23.600 C 164.236 24.040,163.563 24.400,163.213 24.400 C 162.863 24.400,162.317 24.760,162.000 25.200 C 161.683 25.640,161.236 26.000,161.008 26.000 C 160.779 26.000,160.107 26.450,159.513 27.000 C 158.920 27.550,158.281 28.000,158.093 28.000 C 157.905 28.000,157.402 28.315,156.975 28.700 C 156.548 29.085,155.479 29.937,154.600 30.593 C 153.720 31.250,152.670 32.060,152.266 32.393 C 151.863 32.727,151.143 33.314,150.666 33.698 C 147.741 36.055,146.934 36.757,145.545 38.148 C 144.695 39.000,144.000 39.855,144.000 40.048 C 144.000 40.242,143.814 40.400,143.587 40.400 C 143.049 40.400,140.400 43.049,140.400 43.587 C 140.400 43.814,140.249 44.000,140.064 44.000 C 139.550 44.000,136.000 47.460,136.000 47.960 C 136.000 48.202,135.814 48.400,135.587 48.400 C 135.183 48.400,132.400 50.988,132.400 51.363 C 132.400 51.468,131.590 52.375,130.600 53.379 C 129.610 54.383,128.796 55.429,128.791 55.702 C 128.787 55.976,128.157 56.738,127.391 57.396 C 126.626 58.054,126.000 58.819,126.000 59.096 C 126.000 59.373,125.820 59.600,125.600 59.600 C 125.380 59.600,125.200 59.830,125.200 60.112 C 125.200 60.393,124.840 60.883,124.400 61.200 C 123.960 61.517,123.600 61.994,123.600 62.260 C 123.600 62.526,122.970 63.411,122.200 64.227 C 121.430 65.044,120.800 65.874,120.800 66.073 C 120.800 66.271,120.440 66.820,120.000 67.292 C 119.560 67.764,119.200 68.477,119.200 68.875 C 119.200 69.274,119.014 69.600,118.787 69.600 C 118.561 69.600,118.255 69.915,118.108 70.300 C 117.961 70.685,117.516 71.349,117.120 71.775 C 116.724 72.202,116.400 72.877,116.400 73.275 C 116.400 73.674,116.220 74.000,116.000 74.000 C 115.780 74.000,115.600 74.208,115.600 74.462 C 115.600 74.716,115.150 75.514,114.600 76.236 C 114.050 76.957,113.600 77.739,113.600 77.973 C 113.600 78.208,113.420 78.400,113.200 78.400 C 112.980 78.400,112.800 78.760,112.800 79.200 C 112.800 79.640,112.620 80.000,112.400 80.000 C 112.180 80.000,112.000 80.450,112.000 81.000 C 112.000 81.550,111.820 82.000,111.600 82.000 C 111.380 82.000,111.200 82.360,111.200 82.800 C 111.200 83.240,111.023 83.600,110.808 83.600 C 110.592 83.600,110.302 84.050,110.164 84.600 C 110.026 85.150,109.753 85.600,109.557 85.600 C 109.360 85.600,109.200 85.960,109.200 86.400 C 109.200 86.840,109.020 87.200,108.800 87.200 C 108.580 87.200,108.400 87.549,108.400 87.976 C 108.400 88.403,108.220 88.864,108.000 89.000 C 107.780 89.136,107.600 89.597,107.600 90.024 C 107.600 90.451,107.420 90.800,107.200 90.800 C 106.980 90.800,106.800 91.173,106.800 91.629 C 106.800 92.084,106.530 92.727,106.200 93.057 C 105.870 93.387,105.600 93.994,105.600 94.405 C 105.600 94.816,105.420 95.264,105.200 95.400 C 104.980 95.536,104.800 96.177,104.800 96.824 C 104.800 97.471,104.620 98.000,104.400 98.000 C 104.180 98.000,104.000 98.360,104.000 98.800 C 104.000 99.240,103.820 99.600,103.600 99.600 C 103.380 99.600,103.200 100.230,103.200 101.000 C 103.200 101.770,103.020 102.400,102.800 102.400 C 102.580 102.400,102.400 102.921,102.400 103.557 C 102.400 104.217,102.142 104.813,101.800 104.945 C 101.449 105.079,101.200 105.679,101.200 106.387 C 101.200 107.054,101.020 107.600,100.800 107.600 C 100.580 107.600,100.400 108.309,100.400 109.176 C 100.400 110.043,100.220 110.864,100.000 111.000 C 99.780 111.136,99.600 111.867,99.600 112.624 C 99.600 113.381,99.420 114.000,99.200 114.000 C 98.980 114.000,98.800 114.864,98.800 115.920 C 98.800 116.976,98.622 118.018,98.404 118.236 C 97.884 118.756,97.160 122.009,96.920 124.900 C 96.815 126.165,96.565 127.200,96.364 127.200 C 96.164 127.200,96.000 128.539,96.000 130.176 C 96.000 131.813,95.820 133.264,95.600 133.400 C 95.364 133.546,95.200 135.930,95.200 139.200 C 95.200 142.470,95.036 144.854,94.800 145.000 C 94.261 145.333,94.261 159.867,94.800 160.200 C 95.036 160.346,95.200 162.730,95.200 166.000 C 95.200 169.270,95.364 171.654,95.600 171.800 C 95.820 171.936,96.000 173.387,96.000 175.024 C 96.000 176.741,96.169 178.000,96.400 178.000 C 96.620 178.000,96.800 178.979,96.800 180.176 C 96.800 181.373,96.959 182.451,97.153 182.571 C 97.348 182.691,97.630 183.782,97.782 184.995 C 97.934 186.208,98.225 187.200,98.429 187.200 C 98.633 187.200,98.800 187.999,98.800 188.976 C 98.800 189.953,98.980 190.864,99.200 191.000 C 99.420 191.136,99.600 191.867,99.600 192.624 C 99.600 193.381,99.780 194.000,100.000 194.000 C 100.220 194.000,100.400 194.810,100.400 195.800 C 100.400 196.790,100.580 197.600,100.800 197.600 C 101.020 197.600,101.200 198.037,101.200 198.571 C 101.200 199.106,101.470 199.813,101.800 200.143 C 102.130 200.473,102.400 201.195,102.400 201.748 C 102.400 202.301,102.580 202.864,102.800 203.000 C 103.020 203.136,103.200 203.599,103.200 204.029 C 103.200 204.784,103.344 205.174,104.338 207.095 C 104.592 207.587,104.800 208.341,104.800 208.771 C 104.800 209.201,104.980 209.664,105.200 209.800 C 105.420 209.936,105.600 210.402,105.600 210.836 C 105.600 211.270,105.870 211.729,106.200 211.855 C 106.542 211.987,106.800 212.583,106.800 213.243 C 106.800 213.879,106.980 214.400,107.200 214.400 C 107.420 214.400,107.600 214.850,107.600 215.400 C 107.600 215.950,107.780 216.400,108.000 216.400 C 108.220 216.400,108.400 216.760,108.400 217.200 C 108.400 217.640,108.580 218.000,108.800 218.000 C 109.020 218.000,109.200 218.255,109.200 218.568 C 109.200 219.281,110.498 221.594,110.900 221.597 C 111.065 221.599,111.200 221.949,111.200 222.376 C 111.200 222.803,111.380 223.264,111.600 223.400 C 111.820 223.536,112.000 223.997,112.000 224.424 C 112.000 224.851,112.180 225.200,112.400 225.200 C 112.620 225.200,112.800 225.483,112.800 225.829 C 112.800 226.174,113.025 226.708,113.300 227.015 C 114.487 228.338,114.800 228.791,114.800 229.183 C 114.800 229.412,114.980 229.600,115.200 229.600 C 115.420 229.600,115.600 229.960,115.600 230.400 C 115.600 230.840,115.746 231.200,115.925 231.200 C 116.104 231.200,116.498 231.830,116.800 232.600 C 117.102 233.370,117.496 234.000,117.675 234.000 C 117.854 234.000,118.000 234.276,118.000 234.613 C 118.000 234.949,118.270 235.329,118.600 235.455 C 118.930 235.582,119.200 235.936,119.200 236.243 C 119.200 236.549,119.380 236.800,119.600 236.800 C 119.820 236.800,120.000 237.120,120.000 237.512 C 120.000 237.903,120.360 238.483,120.800 238.800 C 121.240 239.117,121.600 239.684,121.600 240.059 C 121.600 240.435,122.050 241.096,122.600 241.529 C 123.150 241.961,123.600 242.604,123.600 242.958 C 123.600 243.311,123.761 243.600,123.957 243.600 C 125.352 243.600,124.433 245.129,120.986 248.542 C 118.904 250.604,117.200 252.496,117.200 252.746 C 117.200 253.305,110.955 259.600,110.400 259.600 C 110.180 259.600,110.000 259.785,110.000 260.011 C 110.000 260.545,106.545 264.000,106.011 264.000 C 105.785 264.000,105.600 264.179,105.600 264.398 C 105.600 264.617,101.100 269.291,95.600 274.784 C 90.100 280.278,85.600 284.959,85.600 285.186 C 85.600 285.414,85.416 285.600,85.191 285.600 C 84.663 285.600,56.400 313.872,56.400 314.401 C 56.400 314.620,56.218 314.800,55.994 314.800 C 55.460 314.800,47.200 323.108,47.200 323.646 C 47.200 323.875,46.480 324.754,45.600 325.600 C 44.720 326.446,44.000 327.331,44.000 327.569 C 44.000 327.806,43.814 328.000,43.587 328.000 C 43.049 328.000,40.400 330.649,40.400 331.187 C 40.400 331.414,40.215 331.600,39.989 331.600 C 39.455 331.600,36.000 335.055,36.000 335.589 C 36.000 335.815,35.815 336.000,35.589 336.000 C 35.055 336.000,31.600 339.455,31.600 339.989 C 31.600 340.215,31.414 340.400,31.187 340.400 C 30.649 340.400,28.000 343.049,28.000 343.587 C 28.000 343.814,27.849 344.000,27.664 344.000 C 27.150 344.000,23.600 347.460,23.600 347.960 C 23.600 348.202,23.415 348.400,23.189 348.400 C 22.655 348.400,19.200 351.855,19.200 352.389 C 19.200 352.615,19.014 352.800,18.787 352.800 C 18.350 352.800,15.600 355.402,15.600 355.815 C 15.600 356.129,14.529 357.200,14.215 357.200 C 13.802 357.200,11.200 359.950,11.200 360.387 C 11.200 360.614,11.015 360.800,10.789 360.800 C 10.255 360.800,6.800 364.255,6.800 364.789 C 6.800 365.015,6.602 365.200,6.360 365.200 C 5.860 365.200,2.400 368.750,2.400 369.264 C 2.400 369.449,2.196 369.600,1.947 369.600 C 0.111 369.600,-0.000 370.520,-0.000 385.676 L -0.000 400.030 13.729 399.915 C 27.901 399.796,28.767 399.694,28.809 398.129 C 28.813 397.948,29.467 397.260,30.262 396.600 C 31.056 395.940,31.997 395.063,32.353 394.651 C 32.709 394.239,36.015 390.881,39.700 387.189 C 43.385 383.497,46.400 380.266,46.400 380.009 C 46.400 379.514,47.369 378.400,47.800 378.400 C 48.126 378.400,49.200 377.337,49.200 377.015 C 49.200 376.602,51.950 374.000,52.387 374.000 C 52.614 374.000,52.800 373.849,52.800 373.664 C 52.800 373.150,56.260 369.600,56.760 369.600 C 57.002 369.600,57.200 369.414,57.200 369.187 C 57.200 368.750,59.802 366.000,60.215 366.000 C 60.529 366.000,61.600 364.929,61.600 364.615 C 61.600 364.202,64.350 361.600,64.787 361.600 C 65.014 361.600,65.200 361.449,65.200 361.264 C 65.200 360.750,68.660 357.200,69.160 357.200 C 69.402 357.200,69.600 357.002,69.600 356.760 C 69.600 356.260,73.150 352.800,73.664 352.800 C 73.849 352.800,74.000 352.625,74.000 352.411 C 74.000 351.903,81.103 344.800,81.611 344.800 C 81.825 344.800,82.000 344.615,82.000 344.389 C 82.000 343.855,85.455 340.400,85.989 340.400 C 86.215 340.400,86.400 340.228,86.400 340.018 C 86.400 339.808,93.150 332.883,101.400 324.629 C 109.650 316.375,116.400 309.437,116.400 309.210 C 116.400 308.984,118.740 306.466,121.600 303.615 C 124.460 300.764,126.800 298.245,126.800 298.016 C 126.800 297.787,126.985 297.600,127.210 297.600 C 127.746 297.600,139.200 286.146,139.200 285.610 C 139.200 285.385,139.379 285.200,139.597 285.200 C 139.816 285.200,142.790 282.410,146.206 279.000 C 149.623 275.590,152.485 272.800,152.567 272.800 C 152.649 272.800,153.256 273.295,153.918 273.900 C 155.987 275.794,156.795 276.400,157.247 276.400 C 157.488 276.400,158.039 276.850,158.471 277.400 C 158.904 277.950,159.565 278.400,159.941 278.400 C 160.316 278.400,160.883 278.760,161.200 279.200 C 161.517 279.640,162.097 280.000,162.488 280.000 C 162.880 280.000,163.200 280.180,163.200 280.400 C 163.200 280.620,163.451 280.800,163.757 280.800 C 164.064 280.800,164.418 281.070,164.545 281.400 C 164.671 281.730,165.051 282.000,165.387 282.000 C 165.724 282.000,166.000 282.146,166.000 282.325 C 166.000 282.504,166.630 282.898,167.400 283.200 C 168.170 283.502,168.800 283.896,168.800 284.075 C 168.800 284.254,169.160 284.400,169.600 284.400 C 170.040 284.400,170.400 284.580,170.400 284.800 C 170.400 285.020,170.593 285.200,170.829 285.200 C 171.064 285.200,171.508 285.425,171.815 285.700 C 173.202 286.944,173.606 287.200,174.183 287.200 C 174.522 287.200,174.800 287.380,174.800 287.600 C 174.800 287.820,175.149 288.000,175.576 288.000 C 176.003 288.000,176.464 288.180,176.600 288.400 C 176.736 288.620,177.197 288.800,177.624 288.800 C 178.051 288.800,178.401 288.935,178.403 289.100 C 178.406 289.502,180.719 290.800,181.432 290.800 C 181.745 290.800,182.000 290.980,182.000 291.200 C 182.000 291.420,182.360 291.600,182.800 291.600 C 183.240 291.600,183.600 291.780,183.600 292.000 C 183.600 292.220,184.050 292.400,184.600 292.400 C 185.150 292.400,185.600 292.580,185.600 292.800 C 185.600 293.020,186.121 293.200,186.757 293.200 C 187.417 293.200,188.013 293.458,188.145 293.800 C 188.271 294.130,188.730 294.400,189.164 294.400 C 189.598 294.400,190.064 294.580,190.200 294.800 C 190.336 295.020,190.799 295.200,191.229 295.200 C 191.659 295.200,192.368 295.380,192.805 295.600 C 193.242 295.820,193.958 296.180,194.395 296.400 C 194.832 296.620,195.541 296.800,195.971 296.800 C 196.401 296.800,196.864 296.980,197.000 297.200 C 197.136 297.420,197.699 297.600,198.252 297.600 C 198.805 297.600,199.527 297.870,199.857 298.200 C 200.187 298.530,200.894 298.800,201.429 298.800 C 201.963 298.800,202.400 298.980,202.400 299.200 C 202.400 299.420,203.210 299.600,204.200 299.600 C 205.190 299.600,206.000 299.780,206.000 300.000 C 206.000 300.220,206.630 300.400,207.400 300.400 C 208.170 300.400,208.800 300.580,208.800 300.800 C 208.800 301.020,209.700 301.200,210.800 301.200 C 211.900 301.200,212.800 301.367,212.800 301.571 C 212.800 301.775,213.792 302.066,215.005 302.218 C 216.218 302.370,217.309 302.652,217.429 302.847 C 217.549 303.041,218.627 303.200,219.824 303.200 C 221.021 303.200,222.000 303.380,222.000 303.600 C 222.000 303.831,223.259 304.000,224.976 304.000 C 226.613 304.000,228.064 304.180,228.200 304.400 C 228.346 304.636,230.730 304.800,234.000 304.800 C 237.270 304.800,239.654 304.964,239.800 305.200 C 239.950 305.443,242.930 305.600,247.400 305.600 C 251.870 305.600,254.850 305.443,255.000 305.200 C 255.146 304.964,257.530 304.800,260.800 304.800 C 264.070 304.800,266.454 304.636,266.600 304.400 C 266.736 304.180,268.187 304.000,269.824 304.000 C 271.461 304.000,272.800 303.836,272.800 303.636 C 272.800 303.435,273.835 303.185,275.100 303.080 C 277.991 302.840,281.244 302.116,281.764 301.596 C 281.982 301.378,283.024 301.200,284.080 301.200 C 285.136 301.200,286.000 301.020,286.000 300.800 C 286.000 300.580,286.619 300.400,287.376 300.400 C 288.133 300.400,288.864 300.220,289.000 300.000 C 289.136 299.780,289.957 299.600,290.824 299.600 C 291.691 299.600,292.400 299.420,292.400 299.200 C 292.400 298.980,292.946 298.800,293.613 298.800 C 294.321 298.800,294.921 298.551,295.055 298.200 C 295.187 297.858,295.783 297.600,296.443 297.600 C 297.079 297.600,297.600 297.420,297.600 297.200 C 297.600 296.980,298.230 296.800,299.000 296.800 C 299.770 296.800,300.400 296.620,300.400 296.400 C 300.400 296.180,300.760 296.000,301.200 296.000 C 301.640 296.000,302.000 295.820,302.000 295.600 C 302.000 295.380,302.529 295.200,303.176 295.200 C 303.823 295.200,304.464 295.020,304.600 294.800 C 304.736 294.580,305.184 294.400,305.595 294.400 C 306.006 294.400,306.613 294.130,306.943 293.800 C 307.273 293.470,307.916 293.200,308.371 293.200 C 308.827 293.200,309.200 293.020,309.200 292.800 C 309.200 292.580,309.549 292.400,309.976 292.400 C 310.403 292.400,310.864 292.220,311.000 292.000 C 311.136 291.780,311.597 291.600,312.024 291.600 C 312.451 291.600,312.800 291.420,312.800 291.200 C 312.800 290.980,313.160 290.800,313.600 290.800 C 314.040 290.800,314.400 290.640,314.400 290.443 C 314.400 290.247,314.850 289.974,315.400 289.836 C 315.950 289.698,316.400 289.408,316.400 289.192 C 316.400 288.977,316.760 288.800,317.200 288.800 C 317.640 288.800,318.000 288.620,318.000 288.400 C 318.000 288.180,318.450 288.000,319.000 288.000 C 319.550 288.000,320.000 287.820,320.000 287.600 C 320.000 287.380,320.360 287.200,320.800 287.200 C 321.240 287.200,321.600 287.020,321.600 286.800 C 321.600 286.580,321.792 286.400,322.027 286.400 C 322.261 286.400,323.043 285.950,323.764 285.400 C 324.486 284.850,325.284 284.400,325.538 284.400 C 325.792 284.400,326.000 284.220,326.000 284.000 C 326.000 283.780,326.326 283.600,326.725 283.600 C 327.123 283.600,327.836 283.240,328.308 282.800 C 328.780 282.360,329.360 282.000,329.596 282.000 C 329.832 282.000,330.129 281.730,330.255 281.400 C 330.382 281.070,330.792 280.800,331.167 280.800 C 331.542 280.800,332.236 280.440,332.708 280.000 C 333.180 279.560,333.729 279.200,333.927 279.200 C 334.126 279.200,334.956 278.570,335.773 277.800 C 336.589 277.030,337.474 276.400,337.740 276.400 C 338.006 276.400,338.483 276.040,338.800 275.600 C 339.117 275.160,339.607 274.800,339.888 274.800 C 340.170 274.800,340.400 274.620,340.400 274.400 C 340.400 274.180,340.627 274.000,340.904 274.000 C 341.181 274.000,341.946 273.374,342.604 272.609 C 343.262 271.843,344.024 271.213,344.298 271.209 C 344.571 271.204,345.617 270.390,346.621 269.400 C 347.625 268.410,348.532 267.600,348.637 267.600 C 349.012 267.600,351.600 264.817,351.600 264.413 C 351.600 264.186,351.798 264.000,352.040 264.000 C 352.540 264.000,356.000 260.450,356.000 259.936 C 356.000 259.751,356.186 259.600,356.413 259.600 C 356.641 259.600,357.451 258.976,358.213 258.213 C 358.976 257.451,359.600 256.641,359.600 256.413 C 359.600 256.186,359.758 256.000,359.952 256.000 C 360.145 256.000,361.000 255.305,361.852 254.455 C 363.243 253.066,363.945 252.259,366.302 249.334 C 366.686 248.857,367.273 248.137,367.607 247.734 C 367.940 247.330,368.750 246.280,369.407 245.400 C 370.063 244.521,370.915 243.452,371.300 243.025 C 371.685 242.598,372.000 242.095,372.000 241.907 C 372.000 241.719,372.450 241.080,373.000 240.487 C 373.550 239.893,374.000 239.221,374.000 238.992 C 374.000 238.764,374.360 238.317,374.800 238.000 C 375.240 237.683,375.600 237.137,375.600 236.787 C 375.600 236.437,375.960 235.764,376.400 235.292 C 376.840 234.820,377.200 234.268,377.200 234.066 C 377.200 233.863,377.470 233.474,377.800 233.200 C 378.130 232.926,378.400 232.404,378.400 232.039 C 378.400 231.675,378.760 231.117,379.200 230.800 C 379.640 230.483,380.000 229.903,380.000 229.512 C 380.000 229.120,380.180 228.800,380.400 228.800 C 380.620 228.800,380.800 228.350,380.800 227.800 C 380.800 227.250,381.025 226.800,381.301 226.800 C 381.820 226.800,383.603 223.778,383.601 222.900 C 383.600 222.625,383.780 222.400,384.000 222.400 C 384.220 222.400,384.400 222.040,384.400 221.600 C 384.400 221.160,384.580 220.800,384.800 220.800 C 385.020 220.800,385.200 220.427,385.200 219.971 C 385.200 219.516,385.470 218.873,385.800 218.543 C 386.130 218.213,386.400 217.596,386.400 217.171 C 386.400 216.747,386.580 216.400,386.800 216.400 C 387.020 216.400,387.200 215.950,387.200 215.400 C 387.200 214.850,387.380 214.400,387.600 214.400 C 387.820 214.400,388.000 214.040,388.000 213.600 C 388.000 213.160,388.180 212.800,388.400 212.800 C 388.620 212.800,388.800 212.170,388.800 211.400 C 388.800 210.630,388.935 209.999,389.100 209.997 C 389.609 209.993,390.800 207.590,390.800 206.568 C 390.800 206.035,390.980 205.600,391.200 205.600 C 391.420 205.600,391.600 205.060,391.600 204.400 C 391.600 203.740,391.780 203.200,392.000 203.200 C 392.220 203.200,392.400 202.761,392.400 202.224 C 392.400 201.687,392.580 201.136,392.800 201.000 C 393.020 200.864,393.200 200.301,393.200 199.748 C 393.200 199.195,393.470 198.473,393.800 198.143 C 394.130 197.813,394.400 197.026,394.400 196.395 C 394.400 195.764,394.580 195.136,394.800 195.000 C 395.020 194.864,395.200 194.043,395.200 193.176 C 395.200 192.309,395.380 191.600,395.600 191.600 C 395.820 191.600,396.000 190.790,396.000 189.800 C 396.000 188.810,396.180 188.000,396.400 188.000 C 396.620 188.000,396.800 187.201,396.800 186.224 C 396.800 185.247,396.980 184.336,397.200 184.200 C 397.420 184.064,397.600 182.961,397.600 181.748 C 397.600 180.321,397.812 179.331,398.200 178.943 C 398.594 178.549,398.800 177.555,398.800 176.051 C 398.800 174.752,399.016 173.544,399.300 173.260 C 399.687 172.873,399.800 168.195,399.800 152.600 C 399.800 137.005,399.687 132.327,399.300 131.940 C 399.008 131.648,398.800 130.412,398.800 128.969 C 398.800 127.260,398.615 126.344,398.200 126.000 C 397.791 125.661,397.600 124.753,397.600 123.151 C 397.600 121.850,397.421 120.800,397.200 120.800 C 396.980 120.800,396.800 120.001,396.800 119.024 C 396.800 118.047,396.620 117.136,396.400 117.000 C 396.180 116.864,396.000 115.964,396.000 115.000 C 396.000 114.036,395.820 113.136,395.600 113.000 C 395.380 112.864,395.200 112.223,395.200 111.576 C 395.200 110.929,395.020 110.400,394.800 110.400 C 394.580 110.400,394.400 109.783,394.400 109.029 C 394.400 108.274,394.130 107.387,393.800 107.057 C 393.470 106.727,393.200 105.904,393.200 105.229 C 393.200 104.553,393.020 104.000,392.800 104.000 C 392.580 104.000,392.400 103.460,392.400 102.800 C 392.400 102.140,392.220 101.600,392.000 101.600 C 391.780 101.600,391.600 101.150,391.600 100.600 C 391.600 100.050,391.420 99.600,391.200 99.600 C 390.980 99.600,390.800 99.071,390.800 98.424 C 390.800 97.777,390.634 97.145,390.431 97.019 C 390.228 96.894,389.943 96.253,389.799 95.595 C 389.655 94.938,389.371 94.400,389.168 94.400 C 388.966 94.400,388.800 93.950,388.800 93.400 C 388.800 92.850,388.620 92.400,388.400 92.400 C 388.180 92.400,388.000 92.040,388.000 91.600 C 388.000 91.160,387.820 90.800,387.600 90.800 C 387.380 90.800,387.200 90.378,387.200 89.861 C 387.200 88.744,386.097 86.400,385.571 86.400 C 385.367 86.400,385.200 85.950,385.200 85.400 C 385.200 84.850,385.020 84.400,384.800 84.400 C 384.580 84.400,384.400 84.040,384.400 83.600 C 384.400 83.160,384.220 82.800,384.000 82.800 C 383.780 82.800,383.600 82.440,383.600 82.000 C 383.600 81.560,383.420 81.200,383.200 81.200 C 382.980 81.200,382.800 80.909,382.800 80.554 C 382.800 80.198,382.170 79.049,381.400 78.000 C 380.630 76.951,380.000 75.802,380.000 75.446 C 380.000 75.091,379.820 74.800,379.600 74.800 C 379.380 74.800,379.200 74.616,379.200 74.391 C 379.200 73.845,377.191 70.765,376.306 69.953 C 375.918 69.597,375.600 69.005,375.600 68.636 C 375.600 68.268,375.240 67.580,374.800 67.108 C 374.360 66.636,374.000 66.013,374.000 65.725 C 374.000 65.436,373.730 65.200,373.400 65.200 C 373.070 65.200,372.800 64.930,372.800 64.600 C 372.800 64.270,372.620 64.000,372.400 64.000 C 372.180 64.000,372.000 63.728,372.000 63.396 C 372.000 63.064,371.460 62.228,370.800 61.537 C 370.140 60.846,369.600 60.134,369.600 59.954 C 369.600 59.774,368.970 58.997,368.200 58.227 C 367.430 57.457,366.800 56.617,366.800 56.360 C 366.800 56.103,365.945 55.030,364.900 53.975 C 363.855 52.920,362.542 51.549,361.983 50.928 C 361.424 50.308,360.479 49.442,359.883 49.005 C 359.287 48.568,358.800 48.065,358.800 47.887 C 358.800 47.516,356.956 45.600,356.600 45.600 C 356.292 45.600,354.400 43.708,354.400 43.400 C 354.400 43.044,352.484 41.200,352.113 41.200 C 351.935 41.200,351.432 40.713,350.995 40.117 C 350.558 39.521,349.692 38.576,349.072 38.017 C 348.451 37.458,347.080 36.145,346.025 35.100 C 344.970 34.055,343.897 33.200,343.640 33.200 C 343.383 33.200,342.543 32.570,341.773 31.800 C 341.003 31.030,340.226 30.400,340.046 30.400 C 339.866 30.400,339.154 29.860,338.463 29.200 C 337.772 28.540,336.936 28.000,336.604 28.000 C 336.272 28.000,336.000 27.820,336.000 27.600 C 336.000 27.380,335.730 27.200,335.400 27.200 C 335.070 27.200,334.800 26.930,334.800 26.600 C 334.800 26.270,334.564 26.000,334.275 26.000 C 333.987 26.000,333.364 25.640,332.892 25.200 C 332.420 24.760,331.732 24.400,331.364 24.400 C 330.995 24.400,330.403 24.082,330.047 23.694 C 329.235 22.809,326.155 20.800,325.609 20.800 C 325.384 20.800,325.200 20.620,325.200 20.400 C 325.200 20.180,324.909 20.000,324.554 20.000 C 324.198 20.000,323.049 19.370,322.000 18.600 C 320.951 17.830,319.802 17.200,319.446 17.200 C 319.091 17.200,318.800 17.020,318.800 16.800 C 318.800 16.580,318.440 16.400,318.000 16.400 C 317.560 16.400,317.200 16.220,317.200 16.000 C 317.200 15.780,316.840 15.600,316.400 15.600 C 315.960 15.600,315.600 15.420,315.600 15.200 C 315.600 14.980,315.150 14.800,314.600 14.800 C 314.050 14.800,313.600 14.633,313.600 14.429 C 313.600 13.903,311.256 12.800,310.139 12.800 C 309.622 12.800,309.200 12.620,309.200 12.400 C 309.200 12.180,308.840 12.000,308.400 12.000 C 307.960 12.000,307.600 11.820,307.600 11.600 C 307.600 11.380,307.150 11.200,306.600 11.200 C 306.050 11.200,305.600 11.034,305.600 10.832 C 305.600 10.629,305.062 10.345,304.405 10.201 C 303.747 10.057,303.106 9.772,302.981 9.569 C 302.855 9.366,302.223 9.200,301.576 9.200 C 300.929 9.200,300.400 9.020,300.400 8.800 C 300.400 8.580,299.950 8.400,299.400 8.400 C 298.850 8.400,298.400 8.220,298.400 8.000 C 298.400 7.780,297.860 7.600,297.200 7.600 C 296.540 7.600,296.000 7.420,296.000 7.200 C 296.000 6.980,295.447 6.800,294.771 6.800 C 294.096 6.800,293.273 6.530,292.943 6.200 C 292.613 5.870,291.726 5.600,290.971 5.600 C 290.217 5.600,289.600 5.420,289.600 5.200 C 289.600 4.980,289.071 4.800,288.424 4.800 C 287.777 4.800,287.136 4.620,287.000 4.400 C 286.864 4.180,285.964 4.000,285.000 4.000 C 284.036 4.000,283.136 3.820,283.000 3.600 C 282.864 3.380,281.953 3.200,280.976 3.200 C 279.999 3.200,279.200 3.020,279.200 2.800 C 279.200 2.579,278.150 2.400,276.849 2.400 C 275.247 2.400,274.339 2.209,274.000 1.800 C 273.656 1.385,272.740 1.200,271.031 1.200 C 269.672 1.200,268.363 1.003,268.123 0.763 C 267.672 0.312,240.343 -0.055,231.406 0.269 M249.200 38.800 C 249.200 39.049,251.533 39.200,255.400 39.200 C 260.644 39.200,261.600 39.292,261.600 39.800 C 261.600 40.280,262.200 40.400,264.600 40.400 C 266.333 40.400,267.600 40.569,267.600 40.800 C 267.600 41.020,268.410 41.200,269.400 41.200 C 270.390 41.200,271.200 41.380,271.200 41.600 C 271.200 41.820,272.190 42.000,273.400 42.000 C 274.610 42.000,275.600 42.180,275.600 42.400 C 275.600 42.620,276.333 42.800,277.229 42.800 C 278.143 42.800,279.120 43.063,279.457 43.400 C 279.787 43.730,280.494 44.000,281.029 44.000 C 281.563 44.000,282.000 44.180,282.000 44.400 C 282.000 44.620,282.540 44.800,283.200 44.800 C 283.860 44.800,284.400 44.980,284.400 45.200 C 284.400 45.420,285.030 45.600,285.800 45.600 C 286.570 45.600,287.200 45.780,287.200 46.000 C 287.200 46.220,287.830 46.400,288.600 46.400 C 289.370 46.400,290.000 46.580,290.000 46.800 C 290.000 47.020,290.360 47.200,290.800 47.200 C 291.244 47.200,291.600 47.467,291.600 47.800 C 291.600 48.130,291.949 48.400,292.376 48.400 C 292.803 48.400,293.264 48.580,293.400 48.800 C 293.536 49.020,294.177 49.200,294.824 49.200 C 295.471 49.200,296.000 49.380,296.000 49.600 C 296.000 49.820,296.360 50.000,296.800 50.000 C 297.240 50.000,297.600 50.180,297.600 50.400 C 297.600 50.620,298.050 50.800,298.600 50.800 C 299.150 50.800,299.600 50.980,299.600 51.200 C 299.600 51.420,299.960 51.600,300.400 51.600 C 300.844 51.600,301.200 51.867,301.200 52.200 C 301.200 52.530,301.470 52.800,301.800 52.800 C 302.130 52.800,302.400 52.980,302.400 53.200 C 302.400 53.420,302.760 53.600,303.200 53.600 C 303.640 53.600,304.000 53.780,304.000 54.000 C 304.000 54.220,304.360 54.400,304.800 54.400 C 305.240 54.400,305.600 54.580,305.600 54.800 C 305.600 55.020,305.973 55.200,306.429 55.200 C 307.314 55.200,308.400 56.066,308.400 56.771 C 308.400 57.007,308.749 57.200,309.176 57.200 C 309.603 57.200,310.064 57.380,310.200 57.600 C 310.336 57.820,310.713 58.000,311.037 58.000 C 311.361 58.000,312.257 58.630,313.027 59.400 C 313.797 60.170,314.615 60.800,314.845 60.800 C 315.075 60.800,315.954 61.520,316.800 62.400 C 317.646 63.280,318.711 64.000,319.169 64.000 C 319.626 64.000,320.000 64.186,320.000 64.413 C 320.000 64.951,322.649 67.600,323.187 67.600 C 323.414 67.600,323.600 67.780,323.600 68.000 C 323.600 68.220,323.960 68.400,324.400 68.400 C 324.840 68.400,325.200 68.627,325.200 68.905 C 325.200 69.183,325.682 69.768,326.272 70.205 C 327.634 71.215,328.785 72.366,329.795 73.728 C 330.232 74.318,330.740 74.800,330.924 74.800 C 331.451 74.800,332.400 75.888,332.400 76.493 C 332.400 77.063,334.898 80.000,335.383 80.000 C 335.895 80.000,336.800 81.140,336.800 81.785 C 336.800 82.491,339.328 85.200,339.987 85.200 C 340.214 85.200,340.400 85.578,340.400 86.040 C 340.400 86.501,340.940 87.383,341.600 88.000 C 342.260 88.617,342.800 89.499,342.800 89.960 C 342.800 90.440,343.057 90.800,343.400 90.800 C 343.730 90.800,344.000 91.120,344.000 91.512 C 344.000 91.903,344.360 92.483,344.800 92.800 C 345.240 93.117,345.600 93.787,345.600 94.288 C 345.600 94.790,345.780 95.200,346.000 95.200 C 346.220 95.200,346.400 95.560,346.400 96.000 C 346.400 96.440,346.580 96.800,346.800 96.800 C 347.020 96.800,347.200 97.166,347.200 97.613 C 347.200 98.059,347.470 98.529,347.800 98.655 C 348.130 98.782,348.400 99.187,348.400 99.554 C 348.400 99.922,348.760 100.483,349.200 100.800 C 349.640 101.117,350.000 101.787,350.000 102.288 C 350.000 102.790,350.180 103.200,350.400 103.200 C 350.620 103.200,350.800 103.560,350.800 104.000 C 350.800 104.440,350.980 104.800,351.200 104.800 C 351.420 104.800,351.600 105.237,351.600 105.771 C 351.600 106.306,351.870 107.013,352.200 107.343 C 352.530 107.673,352.800 108.226,352.800 108.571 C 352.800 108.917,352.980 109.200,353.200 109.200 C 353.420 109.200,353.600 109.650,353.600 110.200 C 353.600 110.750,353.780 111.200,354.000 111.200 C 354.220 111.200,354.400 111.740,354.400 112.400 C 354.400 113.060,354.580 113.600,354.800 113.600 C 355.020 113.600,355.200 114.118,355.200 114.751 C 355.200 115.384,355.470 116.126,355.800 116.400 C 356.130 116.674,356.400 117.315,356.400 117.825 C 356.400 118.335,356.580 118.864,356.800 119.000 C 357.020 119.136,357.200 119.777,357.200 120.424 C 357.200 121.071,357.380 121.600,357.600 121.600 C 357.820 121.600,358.000 122.410,358.000 123.400 C 358.000 124.390,358.180 125.200,358.400 125.200 C 358.620 125.200,358.800 126.190,358.800 127.400 C 358.800 128.610,358.980 129.600,359.200 129.600 C 359.420 129.600,359.600 130.326,359.600 131.213 C 359.600 132.277,359.804 132.903,360.200 133.055 C 360.658 133.231,360.800 133.983,360.800 136.243 C 360.800 137.948,360.969 139.200,361.200 139.200 C 361.449 139.200,361.600 141.533,361.600 145.400 C 361.600 149.267,361.751 151.600,362.000 151.600 C 362.220 151.600,362.400 152.050,362.400 152.600 C 362.400 153.150,362.220 153.600,362.000 153.600 C 361.751 153.600,361.600 155.933,361.600 159.800 C 361.600 163.667,361.449 166.000,361.200 166.000 C 360.969 166.000,360.800 167.267,360.800 169.000 C 360.800 171.400,360.680 172.000,360.200 172.000 C 359.739 172.000,359.600 172.511,359.600 174.200 C 359.600 175.410,359.420 176.400,359.200 176.400 C 358.980 176.400,358.800 177.210,358.800 178.200 C 358.800 179.190,358.620 180.000,358.400 180.000 C 358.180 180.000,358.000 180.810,358.000 181.800 C 358.000 182.790,357.820 183.600,357.600 183.600 C 357.380 183.600,357.200 184.230,357.200 185.000 C 357.200 185.770,357.040 186.400,356.845 186.400 C 356.650 186.400,356.369 187.210,356.221 188.200 C 356.072 189.190,355.782 190.000,355.575 190.000 C 355.369 190.000,355.200 190.360,355.200 190.800 C 355.200 191.240,355.020 191.600,354.800 191.600 C 354.580 191.600,354.400 192.230,354.400 193.000 C 354.400 193.770,354.220 194.400,354.000 194.400 C 353.780 194.400,353.600 194.760,353.600 195.200 C 353.600 195.640,353.420 196.000,353.200 196.000 C 352.980 196.000,352.800 196.630,352.800 197.400 C 352.800 198.378,352.619 198.800,352.200 198.800 C 351.867 198.800,351.600 199.156,351.600 199.600 C 351.600 200.040,351.420 200.400,351.200 200.400 C 350.980 200.400,350.800 200.850,350.800 201.400 C 350.800 201.950,350.620 202.400,350.400 202.400 C 350.180 202.400,350.000 202.760,350.000 203.200 C 350.000 203.640,349.820 204.000,349.600 204.000 C 349.380 204.000,349.200 204.360,349.200 204.800 C 349.200 205.240,349.020 205.600,348.800 205.600 C 348.580 205.600,348.400 206.050,348.400 206.600 C 348.400 207.222,348.173 207.600,347.800 207.600 C 347.470 207.600,347.200 207.878,347.200 208.217 C 347.200 208.556,346.840 209.220,346.400 209.692 C 345.960 210.164,345.600 210.837,345.600 211.187 C 345.600 211.537,345.240 212.083,344.800 212.400 C 344.360 212.717,344.000 213.387,344.000 213.888 C 344.000 214.432,343.758 214.800,343.400 214.800 C 343.070 214.800,342.800 215.120,342.800 215.512 C 342.800 215.903,342.440 216.483,342.000 216.800 C 341.560 217.117,341.200 217.710,341.200 218.117 C 341.200 218.823,340.332 220.000,339.810 220.000 C 339.294 220.000,337.600 221.992,337.600 222.600 C 337.600 223.208,335.906 225.200,335.390 225.200 C 335.022 225.200,334.000 226.291,334.000 226.683 C 334.000 226.870,333.640 227.283,333.200 227.600 C 332.760 227.917,332.400 228.420,332.400 228.717 C 332.400 229.362,331.431 230.400,330.829 230.400 C 330.593 230.400,330.400 230.581,330.400 230.803 C 330.400 231.322,324.866 236.800,324.341 236.800 C 324.122 236.800,323.706 237.025,323.416 237.300 C 323.126 237.575,322.554 238.080,322.145 238.422 C 321.735 238.765,321.042 239.530,320.605 240.122 C 320.168 240.715,319.538 241.200,319.205 241.200 C 318.573 241.201,316.400 242.886,316.400 243.375 C 316.400 243.927,315.246 244.800,314.517 244.800 C 314.110 244.800,313.517 245.160,313.200 245.600 C 312.883 246.040,312.369 246.400,312.058 246.400 C 311.746 246.400,311.075 246.850,310.565 247.400 C 310.055 247.950,309.399 248.400,309.107 248.400 C 308.815 248.400,308.317 248.760,308.000 249.200 C 307.683 249.640,307.013 250.000,306.512 250.000 C 306.010 250.000,305.600 250.180,305.600 250.400 C 305.600 250.620,305.240 250.800,304.800 250.800 C 304.360 250.800,304.000 250.980,304.000 251.200 C 304.000 251.420,303.724 251.600,303.387 251.600 C 303.051 251.600,302.671 251.870,302.545 252.200 C 302.418 252.530,301.884 252.800,301.357 252.800 C 300.831 252.800,300.400 252.980,300.400 253.200 C 300.400 253.420,300.040 253.600,299.600 253.600 C 299.160 253.600,298.800 253.780,298.800 254.000 C 298.800 254.220,298.350 254.400,297.800 254.400 C 297.250 254.400,296.800 254.580,296.800 254.800 C 296.800 255.020,296.440 255.200,296.000 255.200 C 295.560 255.200,295.200 255.367,295.200 255.571 C 295.200 255.998,292.941 257.200,292.139 257.200 C 291.842 257.200,291.600 257.380,291.600 257.600 C 291.600 257.820,291.071 258.000,290.424 258.000 C 289.777 258.000,289.136 258.180,289.000 258.400 C 288.864 258.620,288.403 258.800,287.976 258.800 C 287.549 258.800,287.200 258.980,287.200 259.200 C 287.200 259.420,286.654 259.600,285.987 259.600 C 285.279 259.600,284.679 259.849,284.545 260.200 C 284.413 260.542,283.817 260.800,283.157 260.800 C 282.521 260.800,282.000 260.980,282.000 261.200 C 282.000 261.420,281.370 261.600,280.600 261.600 C 279.830 261.600,279.200 261.780,279.200 262.000 C 279.200 262.220,278.390 262.400,277.400 262.400 C 276.410 262.400,275.600 262.580,275.600 262.800 C 275.600 263.020,274.610 263.200,273.400 263.200 C 272.190 263.200,271.200 263.380,271.200 263.600 C 271.200 263.820,270.294 264.000,269.187 264.000 C 267.768 264.000,267.107 264.177,266.945 264.600 C 266.769 265.058,266.017 265.200,263.757 265.200 C 262.052 265.200,260.800 265.369,260.800 265.600 C 260.800 265.849,258.467 266.000,254.600 266.000 C 250.733 266.000,248.400 266.151,248.400 266.400 C 248.400 266.620,247.950 266.800,247.400 266.800 C 246.850 266.800,246.400 266.620,246.400 266.400 C 246.400 266.151,244.067 266.000,240.200 266.000 C 236.333 266.000,234.000 265.849,234.000 265.600 C 234.000 265.369,232.748 265.200,231.043 265.200 C 228.783 265.200,228.031 265.058,227.855 264.600 C 227.704 264.206,227.080 264.000,226.036 264.000 C 225.162 264.000,224.336 263.820,224.200 263.600 C 224.064 263.380,223.063 263.200,221.976 263.200 C 220.889 263.200,220.000 263.020,220.000 262.800 C 220.000 262.580,219.190 262.400,218.200 262.400 C 217.210 262.400,216.400 262.220,216.400 262.000 C 216.400 261.780,215.770 261.600,215.000 261.600 C 214.230 261.600,213.600 261.420,213.600 261.200 C 213.600 260.980,213.079 260.800,212.443 260.800 C 211.783 260.800,211.187 260.542,211.055 260.200 C 210.921 259.849,210.321 259.600,209.613 259.600 C 208.946 259.600,208.400 259.420,208.400 259.200 C 208.400 258.980,207.770 258.800,207.000 258.800 C 206.230 258.800,205.600 258.620,205.600 258.400 C 205.600 258.180,205.240 258.000,204.800 258.000 C 204.360 258.000,204.000 257.820,204.000 257.600 C 204.000 257.380,203.640 257.200,203.200 257.200 C 202.760 257.200,202.400 257.040,202.400 256.845 C 202.400 256.649,201.770 256.371,201.000 256.226 C 200.230 256.082,199.600 255.792,199.600 255.582 C 199.600 255.372,199.150 255.200,198.600 255.200 C 198.050 255.200,197.600 255.020,197.600 254.800 C 197.600 254.580,197.240 254.400,196.800 254.400 C 196.360 254.400,196.000 254.220,196.000 254.000 C 196.000 253.780,195.640 253.600,195.200 253.600 C 194.760 253.600,194.400 253.420,194.400 253.200 C 194.400 252.980,194.149 252.800,193.843 252.800 C 193.536 252.800,193.182 252.530,193.055 252.200 C 192.929 251.870,192.549 251.600,192.213 251.600 C 191.876 251.600,191.600 251.420,191.600 251.200 C 191.600 250.980,191.240 250.800,190.800 250.800 C 190.360 250.800,190.000 250.620,190.000 250.400 C 190.000 250.180,189.590 250.000,189.088 250.000 C 188.587 250.000,187.917 249.640,187.600 249.200 C 187.283 248.760,186.613 248.400,186.112 248.400 C 185.568 248.400,185.200 248.158,185.200 247.800 C 185.200 247.470,184.912 247.200,184.560 247.200 C 184.209 247.200,183.417 246.660,182.800 246.000 C 182.183 245.340,181.378 244.800,181.011 244.800 C 180.340 244.800,179.200 243.903,179.200 243.375 C 179.200 242.907,177.040 241.201,176.447 241.200 C 175.893 241.200,174.001 239.266,174.000 238.700 C 174.000 238.535,173.770 238.400,173.488 238.400 C 173.207 238.400,172.717 238.040,172.400 237.600 C 172.083 237.160,171.597 236.800,171.320 236.800 C 170.720 236.800,165.200 231.396,165.200 230.808 C 165.200 230.584,165.007 230.400,164.771 230.400 C 164.169 230.400,163.200 229.362,163.200 228.717 C 163.200 228.420,162.840 227.917,162.400 227.600 C 161.960 227.283,161.600 226.793,161.600 226.512 C 161.600 226.230,161.465 226.000,161.300 226.000 C 160.734 225.999,158.800 224.107,158.800 223.553 C 158.799 222.960,157.093 220.800,156.625 220.800 C 156.097 220.800,155.200 219.660,155.200 218.989 C 155.200 218.622,154.660 217.817,154.000 217.200 C 153.340 216.583,152.800 215.791,152.800 215.440 C 152.800 215.088,152.530 214.800,152.200 214.800 C 151.842 214.800,151.600 214.432,151.600 213.888 C 151.600 213.387,151.240 212.717,150.800 212.400 C 150.360 212.083,150.000 211.514,150.000 211.135 C 150.000 210.757,149.820 210.336,149.600 210.200 C 149.380 210.064,149.200 209.603,149.200 209.176 C 149.200 208.749,149.020 208.400,148.800 208.400 C 148.580 208.400,148.400 208.124,148.400 207.787 C 148.400 207.451,148.130 207.071,147.800 206.945 C 147.470 206.818,147.200 206.323,147.200 205.846 C 147.200 205.368,146.840 204.717,146.400 204.400 C 145.960 204.083,145.600 203.503,145.600 203.112 C 145.600 202.720,145.420 202.400,145.200 202.400 C 144.980 202.400,144.800 201.950,144.800 201.400 C 144.800 200.850,144.620 200.400,144.400 200.400 C 144.180 200.400,144.000 200.053,144.000 199.629 C 144.000 199.204,143.730 198.587,143.400 198.257 C 143.070 197.927,142.800 197.284,142.800 196.829 C 142.800 196.373,142.620 196.000,142.400 196.000 C 142.180 196.000,142.000 195.640,142.000 195.200 C 142.000 194.760,141.820 194.400,141.600 194.400 C 141.380 194.400,141.200 193.770,141.200 193.000 C 141.200 192.230,141.020 191.600,140.800 191.600 C 140.580 191.600,140.400 191.054,140.400 190.387 C 140.400 189.679,140.151 189.079,139.800 188.945 C 139.458 188.813,139.200 188.217,139.200 187.557 C 139.200 186.921,139.020 186.400,138.800 186.400 C 138.580 186.400,138.400 185.770,138.400 185.000 C 138.400 184.230,138.220 183.600,138.000 183.600 C 137.780 183.600,137.600 182.790,137.600 181.800 C 137.600 180.810,137.420 180.000,137.200 180.000 C 136.980 180.000,136.800 179.111,136.800 178.024 C 136.800 176.937,136.620 175.936,136.400 175.800 C 136.180 175.664,136.000 174.838,136.000 173.964 C 136.000 172.920,135.794 172.296,135.400 172.145 C 134.942 171.969,134.800 171.217,134.800 168.957 C 134.800 167.252,134.631 166.000,134.400 166.000 C 134.151 166.000,134.000 163.667,134.000 159.800 C 134.000 155.933,133.849 153.600,133.600 153.600 C 133.380 153.600,133.200 153.150,133.200 152.600 C 133.200 152.050,133.380 151.600,133.600 151.600 C 133.849 151.600,134.000 149.267,134.000 145.400 C 134.000 141.533,134.151 139.200,134.400 139.200 C 134.631 139.200,134.800 137.933,134.800 136.200 C 134.800 133.800,134.920 133.200,135.400 133.200 C 135.861 133.200,136.000 132.689,136.000 131.000 C 136.000 129.790,136.180 128.800,136.400 128.800 C 136.620 128.800,136.800 127.990,136.800 127.000 C 136.800 126.010,136.980 125.200,137.200 125.200 C 137.420 125.200,137.600 124.390,137.600 123.400 C 137.600 122.410,137.780 121.600,138.000 121.600 C 138.220 121.600,138.400 121.060,138.400 120.400 C 138.400 119.740,138.580 119.200,138.800 119.200 C 139.020 119.200,139.200 118.390,139.200 117.400 C 139.200 116.067,139.356 115.600,139.800 115.600 C 140.173 115.600,140.400 115.222,140.400 114.600 C 140.400 114.050,140.580 113.600,140.800 113.600 C 141.020 113.600,141.200 113.060,141.200 112.400 C 141.200 111.740,141.380 111.200,141.600 111.200 C 141.820 111.200,142.000 110.750,142.000 110.200 C 142.000 109.650,142.180 109.200,142.400 109.200 C 142.620 109.200,142.800 108.679,142.800 108.043 C 142.800 107.383,143.058 106.787,143.400 106.655 C 143.730 106.529,144.000 106.059,144.000 105.613 C 144.000 105.166,144.180 104.800,144.400 104.800 C 144.620 104.800,144.800 104.440,144.800 104.000 C 144.800 103.560,144.980 103.200,145.200 103.200 C 145.420 103.200,145.600 102.750,145.600 102.200 C 145.600 101.650,145.780 101.200,146.000 101.200 C 146.220 101.200,146.400 100.840,146.400 100.400 C 146.400 99.960,146.580 99.600,146.800 99.600 C 147.020 99.600,147.200 99.150,147.200 98.600 C 147.200 97.978,147.427 97.600,147.800 97.600 C 148.130 97.600,148.400 97.280,148.400 96.888 C 148.400 96.497,148.760 95.917,149.200 95.600 C 149.640 95.283,150.000 94.653,150.000 94.200 C 150.000 93.747,150.360 93.117,150.800 92.800 C 151.240 92.483,151.600 91.903,151.600 91.512 C 151.600 91.120,151.870 90.800,152.200 90.800 C 152.558 90.800,152.800 90.432,152.800 89.888 C 152.800 89.387,153.160 88.717,153.600 88.400 C 154.040 88.083,154.400 87.503,154.400 87.112 C 154.400 86.720,154.580 86.400,154.800 86.400 C 155.020 86.400,155.200 86.207,155.200 85.971 C 155.200 85.505,156.185 84.400,156.600 84.400 C 157.093 84.400,158.000 83.252,158.000 82.629 C 158.000 82.283,158.180 82.000,158.400 82.000 C 158.620 82.000,158.800 81.807,158.800 81.571 C 158.800 81.095,159.788 80.000,160.217 80.000 C 160.702 80.000,163.200 77.063,163.200 76.493 C 163.200 75.888,164.149 74.800,164.676 74.800 C 164.860 74.800,165.368 74.322,165.805 73.738 C 166.947 72.213,168.676 70.400,168.989 70.400 C 169.413 70.400,170.400 69.301,170.400 68.829 C 170.400 68.593,170.720 68.400,171.112 68.400 C 171.503 68.400,172.083 68.040,172.400 67.600 C 172.717 67.160,173.125 66.800,173.306 66.800 C 173.783 66.800,175.600 64.913,175.600 64.418 C 175.600 64.188,175.938 64.000,176.352 64.000 C 176.765 64.000,177.845 63.280,178.752 62.400 C 179.659 61.520,180.573 60.800,180.782 60.800 C 180.992 60.800,181.614 60.350,182.164 59.800 C 182.714 59.250,183.402 58.800,183.694 58.800 C 183.985 58.800,184.483 58.440,184.800 58.000 C 185.117 57.560,185.672 57.200,186.032 57.200 C 186.393 57.200,187.026 56.750,187.439 56.200 C 187.853 55.649,188.596 55.200,189.095 55.200 C 189.593 55.200,190.000 55.020,190.000 54.800 C 190.000 54.580,190.360 54.400,190.800 54.400 C 191.240 54.400,191.600 54.220,191.600 54.000 C 191.600 53.780,191.960 53.600,192.400 53.600 C 192.840 53.600,193.200 53.420,193.200 53.200 C 193.200 52.980,193.566 52.800,194.013 52.800 C 194.459 52.800,194.929 52.530,195.055 52.200 C 195.182 51.870,195.626 51.600,196.043 51.600 C 196.459 51.600,196.800 51.420,196.800 51.200 C 196.800 50.980,197.250 50.800,197.800 50.800 C 198.350 50.800,198.800 50.620,198.800 50.400 C 198.800 50.180,199.160 50.000,199.600 50.000 C 200.040 50.000,200.400 49.820,200.400 49.600 C 200.400 49.380,200.760 49.200,201.200 49.200 C 201.640 49.200,202.000 49.020,202.000 48.800 C 202.000 48.580,202.450 48.400,203.000 48.400 C 203.622 48.400,204.000 48.173,204.000 47.800 C 204.000 47.403,204.397 47.200,205.176 47.200 C 205.823 47.200,206.464 47.020,206.600 46.800 C 206.736 46.580,207.197 46.400,207.624 46.400 C 208.051 46.400,208.400 46.220,208.400 46.000 C 208.400 45.780,208.929 45.600,209.576 45.600 C 210.223 45.600,210.864 45.420,211.000 45.200 C 211.136 44.980,211.777 44.800,212.424 44.800 C 213.071 44.800,213.600 44.620,213.600 44.400 C 213.600 44.180,214.037 44.000,214.571 44.000 C 215.106 44.000,215.813 43.730,216.143 43.400 C 216.480 43.063,217.457 42.800,218.371 42.800 C 219.267 42.800,220.000 42.620,220.000 42.400 C 220.000 42.180,220.990 42.000,222.200 42.000 C 223.410 42.000,224.400 41.820,224.400 41.600 C 224.400 41.380,225.390 41.200,226.600 41.200 C 227.810 41.200,228.800 41.020,228.800 40.800 C 228.800 40.569,230.067 40.400,231.800 40.400 C 234.200 40.400,234.800 40.280,234.800 39.800 C 234.800 39.292,235.756 39.200,241.000 39.200 C 244.867 39.200,247.200 39.049,247.200 38.800 C 247.200 38.580,247.650 38.400,248.200 38.400 C 248.750 38.400,249.200 38.580,249.200 38.800 " stroke="none" fill="#fcfcfc" fill-rule="evenodd"></path><path id="path1" d="" stroke="none" fill="#100fcfc" fill-rule="evenodd"></path><path id="path2" d="" stroke="none" fill="#100fcfc" fill-rule="evenodd"></path><path id="path3" d="" stroke="none" fill="#100fcfc" fill-rule="evenodd"></path><path id="path4" d="" stroke="none" fill="#100fcfc" fill-rule="evenodd"></path></g></svg>