<svg id="svg" version="1.1" xmlns="http://www.w3.org/2000/svg" xmlns:xlink="http://www.w3.org/1999/xlink" width="400" height="400" viewBox="0, 0, 400,400"><g id="svgg"><path id="path0" d="M18.288 0.514 C 18.173 0.814,18.387 1.029,18.800 1.029 C 19.213 1.029,19.427 0.814,19.312 0.514 C 19.058 -0.146,18.542 -0.146,18.288 0.514 M190.256 0.599 C 190.053 1.128,180.530 1.196,108.361 1.185 C 63.445 1.177,26.601 1.266,26.485 1.382 C 25.984 1.883,189.543 1.609,190.645 1.107 C 191.515 0.710,191.770 0.710,191.902 1.107 C 191.994 1.381,192.225 1.508,192.417 1.390 C 192.608 1.271,192.664 0.910,192.540 0.587 C 192.245 -0.180,190.551 -0.172,190.256 0.599 M207.200 1.062 C 207.200 2.083,207.229 2.097,207.967 1.430 C 208.569 0.885,208.907 0.829,209.544 1.170 C 210.376 1.615,373.960 1.826,373.515 1.382 C 373.399 1.266,336.556 1.180,291.642 1.191 C 219.044 1.210,209.954 1.145,209.747 0.606 C 209.307 -0.539,207.200 -0.162,207.200 1.062 M380.800 0.400 C 380.800 0.635,379.400 0.800,377.400 0.800 C 375.527 0.800,374.000 0.970,374.000 1.179 C 374.000 1.393,375.001 1.485,376.300 1.390 C 377.565 1.297,379.342 1.172,380.249 1.111 C 381.372 1.035,381.836 0.841,381.706 0.500 C 381.478 -0.096,380.800 -0.170,380.800 0.400 M20.038 0.971 C 20.407 1.340,26.000 1.530,26.000 1.174 C 26.000 0.968,24.620 0.800,22.933 0.800 C 21.247 0.800,19.944 0.877,20.038 0.971 M385.815 2.300 C 385.883 3.213,385.740 3.600,385.332 3.600 C 385.014 3.600,384.866 3.783,385.004 4.007 C 385.142 4.230,385.451 4.292,385.689 4.145 C 385.955 3.981,386.008 4.063,385.826 4.358 C 385.603 4.718,385.392 4.725,384.982 4.385 C 384.681 4.135,384.249 4.046,384.022 4.186 C 383.776 4.339,383.705 4.191,383.847 3.821 C 383.978 3.479,384.336 3.200,384.643 3.200 C 384.949 3.200,385.200 3.020,385.200 2.800 C 385.200 2.429,384.627 2.235,383.889 2.356 C 383.718 2.384,344.588 2.405,296.932 2.402 C 233.249 2.398,210.142 2.516,209.743 2.847 C 208.988 3.474,208.925 189.565,209.680 190.320 C 210.435 191.075,396.526 191.012,397.153 190.257 C 397.750 189.537,397.793 14.800,397.197 14.800 C 396.978 14.800,396.800 15.051,396.800 15.357 C 396.800 15.664,396.521 16.022,396.179 16.153 C 395.809 16.295,395.661 16.224,395.814 15.978 C 395.954 15.751,395.865 15.319,395.615 15.018 C 395.275 14.608,395.282 14.397,395.642 14.174 C 395.937 13.992,396.019 14.045,395.855 14.311 C 395.708 14.549,395.770 14.858,395.993 14.996 C 396.217 15.134,396.400 14.986,396.400 14.668 C 396.400 14.260,396.787 14.117,397.700 14.185 C 398.415 14.239,398.682 14.206,398.294 14.113 C 397.879 14.013,397.705 13.749,397.871 13.471 C 398.068 13.143,397.967 13.151,397.540 13.497 C 397.203 13.770,396.811 13.877,396.669 13.736 C 396.528 13.595,396.725 13.223,397.106 12.910 C 397.746 12.385,397.731 12.355,396.899 12.533 C 396.404 12.639,396.094 12.571,396.211 12.383 C 396.590 11.769,394.981 11.185,394.381 11.719 C 393.927 12.122,393.924 12.087,394.364 11.505 C 394.808 10.918,394.790 10.771,394.248 10.563 C 393.811 10.395,393.679 10.025,393.835 9.403 C 394.000 8.747,393.815 8.316,393.179 7.871 C 392.652 7.501,392.389 7.007,392.527 6.646 C 392.685 6.234,392.575 6.111,392.182 6.262 C 391.864 6.384,391.704 6.645,391.826 6.842 C 391.948 7.039,391.857 7.200,391.624 7.200 C 391.391 7.200,391.200 7.009,391.200 6.776 C 391.200 6.543,391.002 6.475,390.760 6.625 C 390.451 6.816,390.455 6.644,390.774 6.048 C 391.024 5.582,391.132 5.177,391.014 5.150 C 390.896 5.122,390.621 5.078,390.403 5.050 C 390.185 5.023,389.369 4.415,388.590 3.701 C 387.478 2.680,387.125 2.529,386.945 2.998 C 386.819 3.327,386.546 3.490,386.339 3.362 C 386.117 3.225,386.176 2.864,386.481 2.488 C 386.811 2.080,386.828 1.949,386.529 2.129 C 386.251 2.295,385.987 2.121,385.887 1.706 C 385.794 1.318,385.761 1.585,385.815 2.300 M14.000 1.824 C 14.000 2.216,13.815 2.336,13.500 2.147 C 13.125 1.922,13.130 2.007,13.519 2.488 C 13.824 2.864,13.883 3.225,13.661 3.362 C 13.454 3.490,13.172 3.303,13.034 2.945 C 12.816 2.375,12.694 2.399,12.052 3.140 C 11.649 3.605,11.202 3.869,11.059 3.726 C 10.917 3.583,10.800 3.681,10.800 3.943 C 10.800 4.205,10.350 4.591,9.800 4.800 C 9.088 5.071,8.800 5.479,8.800 6.219 C 8.800 7.163,8.743 7.200,8.171 6.629 C 7.398 5.855,6.932 5.795,7.558 6.549 C 7.916 6.981,7.790 7.246,6.972 7.782 C 6.180 8.300,5.985 8.687,6.162 9.391 C 6.321 10.026,6.193 10.394,5.752 10.563 C 5.264 10.750,5.217 10.939,5.557 11.348 C 5.914 11.779,5.783 11.878,4.902 11.843 C 4.270 11.819,3.837 11.996,3.886 12.259 C 3.938 12.535,3.620 12.643,3.086 12.529 C 2.267 12.355,2.253 12.384,2.894 12.910 C 3.275 13.223,3.472 13.595,3.331 13.736 C 3.189 13.877,2.797 13.770,2.460 13.497 C 2.038 13.155,1.934 13.146,2.128 13.470 C 2.292 13.742,2.114 14.025,1.705 14.143 C 1.317 14.255,1.553 14.289,2.230 14.219 C 3.264 14.112,3.527 14.271,3.883 15.216 C 4.228 16.128,4.203 16.299,3.754 16.127 C 3.449 16.010,3.200 15.664,3.200 15.357 C 3.200 15.051,3.022 14.800,2.803 14.800 C 2.208 14.800,2.250 189.537,2.846 190.256 C 3.449 190.982,189.385 191.076,190.259 190.351 C 191.069 189.679,191.067 3.519,190.257 2.847 C 189.858 2.516,166.751 2.398,103.068 2.402 C 55.412 2.405,16.282 2.384,16.111 2.356 C 15.373 2.235,14.800 2.429,14.800 2.800 C 14.800 3.020,15.051 3.200,15.357 3.200 C 15.664 3.200,16.010 3.449,16.127 3.754 C 16.299 4.203,16.128 4.228,15.216 3.883 C 14.274 3.528,14.121 3.276,14.270 2.330 C 14.368 1.708,14.347 1.200,14.224 1.200 C 14.101 1.200,14.000 1.481,14.000 1.824 M207.503 96.056 C 207.578 165.160,207.487 189.855,207.154 190.256 C 206.804 190.677,206.849 190.800,207.351 190.800 C 207.948 190.800,208.000 183.226,208.000 96.600 C 208.000 44.790,207.865 2.400,207.700 2.400 C 207.535 2.400,207.446 44.545,207.503 96.056 M191.998 47.100 C 191.996 71.465,191.996 113.614,191.996 140.765 C 191.997 167.916,192.088 190.221,192.199 190.332 C 192.309 190.443,192.400 148.293,192.400 96.667 C 192.400 45.040,192.310 2.800,192.200 2.800 C 192.090 2.800,191.999 22.735,191.998 47.100 M193.797 96.600 C 193.797 148.080,193.843 169.081,193.900 143.268 C 193.957 117.455,193.957 75.335,193.900 49.668 C 193.843 24.001,193.797 45.120,193.797 96.600 M11.923 4.830 C 11.845 5.067,11.609 5.260,11.400 5.260 C 11.191 5.260,10.956 5.067,10.877 4.830 C 10.798 4.594,11.033 4.400,11.400 4.400 C 11.767 4.400,12.002 4.594,11.923 4.830 M389.200 4.776 C 389.200 5.447,388.491 5.613,388.254 4.998 C 388.115 4.635,388.256 4.400,388.613 4.400 C 388.936 4.400,389.200 4.569,389.200 4.776 M10.700 5.735 C 11.419 6.184,11.316 7.200,10.551 7.200 C 9.992 7.200,9.978 7.106,10.451 6.523 C 10.753 6.151,10.795 5.969,10.545 6.119 C 10.295 6.269,9.880 6.138,9.623 5.828 C 9.105 5.203,9.759 5.147,10.700 5.735 M390.348 5.862 C 390.107 6.153,389.705 6.269,389.455 6.119 C 389.205 5.969,389.247 6.151,389.549 6.523 C 390.022 7.106,390.008 7.200,389.449 7.200 C 388.719 7.200,388.585 6.375,389.213 5.747 C 389.858 5.102,390.891 5.208,390.348 5.862 M393.021 8.366 C 392.897 8.567,393.021 8.815,393.298 8.916 C 393.688 9.059,393.676 9.222,393.241 9.650 C 392.767 10.117,392.731 10.116,393.001 9.642 C 393.252 9.202,393.074 9.131,392.161 9.305 L 391.003 9.527 391.946 8.763 C 392.965 7.938,393.380 7.784,393.021 8.366 M8.317 8.900 C 8.633 9.281,8.453 9.400,7.566 9.400 C 6.364 9.400,6.020 9.020,6.900 8.665 C 7.701 8.342,7.878 8.371,8.317 8.900 M3.776 10.587 C 3.074 11.119,3.067 11.176,3.700 11.187 C 4.085 11.194,4.400 11.009,4.400 10.776 C 4.400 10.543,4.568 10.456,4.772 10.583 C 4.977 10.709,5.258 10.630,5.396 10.407 C 5.774 9.794,4.661 9.919,3.776 10.587 M394.604 10.407 C 394.742 10.630,395.023 10.709,395.228 10.583 C 395.432 10.456,395.600 10.543,395.600 10.776 C 395.600 11.009,395.915 11.194,396.300 11.187 C 396.933 11.176,396.926 11.119,396.224 10.587 C 395.339 9.919,394.226 9.794,394.604 10.407 M0.800 23.533 C 0.800 24.890,0.971 26.000,1.179 26.000 C 1.560 26.000,1.402 21.669,1.007 21.274 C 0.893 21.160,0.800 22.177,0.800 23.533 M398.777 21.700 C 398.765 21.975,398.687 23.055,398.605 24.100 C 398.522 25.145,398.622 26.000,398.827 26.000 C 399.032 26.000,399.200 24.920,399.200 23.600 C 399.200 21.610,398.852 20.048,398.777 21.700 M1.203 26.700 C 1.204 26.865,1.159 64.470,1.103 110.266 C 1.016 180.423,1.086 193.461,1.544 193.081 C 1.843 192.832,1.933 192.578,1.744 192.515 C 1.553 192.451,1.446 155.450,1.503 109.400 C 1.559 63.750,1.514 26.400,1.403 26.400 C 1.291 26.400,1.201 26.535,1.203 26.700 M398.497 109.326 C 398.571 169.025,398.477 192.438,398.164 192.559 C 397.924 192.651,397.474 192.565,397.164 192.369 C 396.070 191.677,209.611 191.906,209.345 192.600 C 209.012 193.468,208.497 193.337,208.168 192.300 C 207.891 191.429,207.872 191.425,207.569 192.200 C 207.128 193.329,207.137 193.686,207.600 193.400 C 207.820 193.264,208.000 193.340,208.000 193.570 C 208.000 193.858,237.075 193.959,302.300 193.896 L 396.600 193.805 303.067 193.702 C 228.539 193.619,209.568 193.497,209.700 193.099 C 209.832 192.703,229.045 192.579,303.203 192.499 L 396.539 192.398 397.347 193.266 C 397.854 193.810,398.214 193.959,398.312 193.664 C 398.398 193.406,398.588 193.269,398.734 193.359 C 399.037 193.547,398.895 26.762,398.592 26.459 C 398.484 26.350,398.441 63.641,398.497 109.326 M191.878 192.505 C 191.208 193.334,191.126 193.348,190.758 192.700 C 190.107 191.554,3.758 191.619,2.344 192.766 C 1.825 193.187,1.517 193.649,1.660 193.792 C 1.803 193.935,2.266 193.681,2.690 193.226 L 3.461 192.398 96.797 192.499 C 170.955 192.579,190.168 192.703,190.300 193.099 C 190.432 193.497,171.461 193.619,96.933 193.702 L 3.400 193.805 97.600 193.895 L 191.800 193.984 192.481 192.792 C 193.281 191.393,192.915 191.220,191.878 192.505 M1.400 206.254 C 0.979 206.408,0.964 373.097,1.384 373.518 C 1.505 373.638,1.598 336.443,1.592 290.862 L 1.581 207.987 96.002 207.997 C 179.599 208.005,190.449 207.938,190.653 207.406 C 190.809 206.999,191.191 206.883,191.842 207.046 C 192.421 207.192,192.800 207.111,192.800 206.843 C 192.800 206.600,192.665 206.385,192.500 206.367 C 192.335 206.348,191.795 206.288,191.300 206.234 C 190.805 206.179,190.482 206.215,190.581 206.314 C 190.681 206.414,190.513 206.744,190.210 207.048 C 189.360 207.898,3.200 207.874,3.200 207.024 C 3.200 206.707,2.992 206.319,2.738 206.162 C 2.425 205.968,2.385 206.057,2.615 206.438 C 2.882 206.881,2.831 206.905,2.377 206.554 C 2.060 206.308,1.620 206.173,1.400 206.254 M207.571 206.418 C 207.352 206.553,207.298 206.990,207.451 207.388 C 207.717 208.081,207.753 208.079,208.287 207.356 C 208.816 206.641,208.868 206.638,209.245 207.303 C 209.623 207.971,214.383 208.006,304.031 207.997 L 398.419 207.987 398.408 290.862 C 398.402 336.443,398.485 373.648,398.593 373.540 C 399.045 373.088,399.001 206.409,398.549 206.236 C 398.301 206.140,397.869 206.273,397.590 206.531 C 397.194 206.897,397.153 206.876,397.403 206.438 C 397.618 206.062,397.571 205.971,397.262 206.162 C 397.008 206.319,396.800 206.707,396.800 207.024 C 396.800 207.874,210.640 207.898,209.790 207.048 C 209.487 206.744,209.311 206.422,209.400 206.333 C 209.662 206.072,208.008 206.148,207.571 206.418 M193.545 207.558 C 193.928 207.800,193.955 207.968,193.635 208.122 C 193.325 208.270,193.334 208.310,193.665 208.245 C 194.466 208.088,194.524 207.200,193.733 207.206 C 193.167 207.211,193.124 207.291,193.545 207.558 M2.845 209.746 C 2.517 210.141,2.398 233.517,2.402 296.932 C 2.405 344.588,2.384 383.718,2.356 383.889 C 2.235 384.627,2.429 385.200,2.800 385.200 C 3.020 385.200,3.200 384.949,3.200 384.643 C 3.200 384.336,3.479 383.978,3.821 383.847 C 4.191 383.705,4.339 383.776,4.186 384.022 C 4.046 384.249,4.135 384.681,4.385 384.982 C 4.725 385.392,4.718 385.603,4.358 385.826 C 4.063 386.008,3.981 385.955,4.145 385.689 C 4.292 385.451,4.230 385.142,4.007 385.004 C 3.783 384.866,3.600 385.014,3.600 385.332 C 3.600 385.740,3.213 385.883,2.300 385.815 C 1.585 385.761,1.318 385.794,1.706 385.887 C 2.121 385.987,2.295 386.251,2.129 386.529 C 1.949 386.828,2.080 386.811,2.488 386.481 C 2.864 386.176,3.225 386.117,3.362 386.339 C 3.490 386.546,3.327 386.819,2.998 386.945 C 2.529 387.125,2.680 387.478,3.701 388.590 C 4.415 389.369,5.022 390.185,5.050 390.403 C 5.077 390.621,5.122 390.896,5.150 391.014 C 5.177 391.132,5.582 391.024,6.048 390.774 C 6.644 390.455,6.816 390.451,6.625 390.760 C 6.475 391.002,6.543 391.200,6.776 391.200 C 7.009 391.200,7.200 391.391,7.200 391.624 C 7.200 391.857,7.039 391.948,6.842 391.826 C 6.645 391.704,6.384 391.864,6.262 392.182 C 6.111 392.575,6.234 392.685,6.646 392.527 C 7.007 392.389,7.501 392.652,7.871 393.179 C 8.316 393.815,8.747 394.000,9.403 393.835 C 10.025 393.679,10.395 393.811,10.563 394.248 C 10.771 394.790,10.918 394.808,11.505 394.364 C 12.087 393.924,12.122 393.927,11.719 394.381 C 11.185 394.981,11.769 396.590,12.383 396.211 C 12.571 396.094,12.639 396.404,12.533 396.899 C 12.355 397.731,12.385 397.746,12.910 397.106 C 13.223 396.725,13.595 396.528,13.736 396.669 C 13.877 396.811,13.770 397.203,13.497 397.540 C 13.151 397.967,13.143 398.068,13.471 397.871 C 13.749 397.705,14.013 397.879,14.113 398.294 C 14.206 398.682,14.239 398.415,14.185 397.700 C 14.117 396.787,14.260 396.400,14.668 396.400 C 14.986 396.400,15.134 396.217,14.996 395.993 C 14.858 395.770,14.549 395.708,14.311 395.855 C 14.045 396.019,13.992 395.937,14.174 395.642 C 14.397 395.282,14.608 395.275,15.018 395.615 C 15.319 395.865,15.751 395.954,15.978 395.814 C 16.224 395.661,16.295 395.809,16.153 396.179 C 16.022 396.521,15.664 396.800,15.357 396.800 C 15.051 396.800,14.800 396.978,14.800 397.197 C 14.800 397.793,189.537 397.750,190.257 397.153 C 191.068 396.480,191.069 210.321,190.258 209.648 C 189.384 208.922,3.448 209.020,2.845 209.746 M207.154 209.744 C 207.487 210.145,207.578 234.840,207.503 303.944 C 207.446 355.455,207.535 397.600,207.700 397.600 C 207.865 397.600,208.000 355.210,208.000 303.400 C 208.000 216.774,207.948 209.200,207.351 209.200 C 206.849 209.200,206.804 209.323,207.154 209.744 M209.679 209.681 C 208.929 210.431,208.988 396.526,209.739 397.149 C 210.456 397.745,385.200 397.793,385.200 397.198 C 385.200 396.979,384.949 396.800,384.643 396.800 C 384.336 396.800,383.990 396.551,383.873 396.246 C 383.701 395.797,383.872 395.772,384.784 396.117 C 385.729 396.473,385.888 396.736,385.781 397.770 C 385.711 398.447,385.745 398.683,385.857 398.295 C 385.975 397.886,386.258 397.708,386.530 397.872 C 386.854 398.066,386.845 397.962,386.503 397.540 C 386.230 397.203,386.123 396.811,386.264 396.669 C 386.405 396.528,386.777 396.725,387.090 397.106 C 387.616 397.747,387.645 397.733,387.471 396.914 C 387.357 396.380,387.465 396.062,387.741 396.114 C 388.004 396.163,388.181 395.730,388.157 395.098 C 388.122 394.217,388.221 394.086,388.652 394.443 C 389.061 394.783,389.250 394.736,389.437 394.248 C 389.606 393.807,389.974 393.679,390.609 393.838 C 391.313 394.015,391.700 393.820,392.218 393.028 C 392.754 392.210,393.019 392.084,393.451 392.442 C 394.205 393.068,394.145 392.602,393.371 391.829 C 392.800 391.257,392.837 391.200,393.781 391.200 C 394.521 391.200,394.929 390.912,395.200 390.200 C 395.409 389.650,395.795 389.200,396.057 389.200 C 396.319 389.200,396.417 389.083,396.274 388.941 C 396.131 388.798,396.395 388.351,396.860 387.948 C 397.601 387.306,397.625 387.184,397.055 386.966 C 396.697 386.828,396.510 386.546,396.638 386.339 C 396.775 386.117,397.136 386.176,397.512 386.481 C 397.916 386.807,398.049 386.826,397.872 386.530 C 397.708 386.258,397.886 385.975,398.295 385.857 C 398.683 385.745,398.447 385.711,397.770 385.781 C 396.736 385.888,396.473 385.729,396.117 384.784 C 395.772 383.872,395.797 383.701,396.246 383.873 C 396.551 383.990,396.800 384.336,396.800 384.643 C 396.800 384.949,396.980 385.200,397.200 385.200 C 397.571 385.200,397.765 384.627,397.644 383.889 C 397.616 383.719,397.595 344.546,397.598 296.840 C 397.603 224.473,397.514 210.027,397.063 209.652 C 396.257 208.983,210.348 209.012,209.679 209.681 M191.995 222.500 C 191.957 323.307,192.045 396.978,192.203 397.136 C 192.311 397.245,192.400 355.093,192.400 303.467 C 192.400 251.840,192.310 209.600,192.200 209.600 C 192.090 209.600,191.998 215.405,191.995 222.500 M193.797 303.400 C 193.797 354.880,193.843 375.881,193.900 350.068 C 193.957 324.255,193.957 282.135,193.900 256.468 C 193.843 230.801,193.797 251.920,193.797 303.400 M0.800 377.400 C 0.800 379.400,0.635 380.800,0.400 380.800 C -0.170 380.800,-0.096 381.478,0.500 381.706 C 0.841 381.836,1.035 381.372,1.111 380.249 C 1.172 379.342,1.297 377.565,1.390 376.300 C 1.485 375.001,1.393 374.000,1.179 374.000 C 0.970 374.000,0.800 375.527,0.800 377.400 M398.655 376.895 C 398.926 380.767,399.200 380.853,399.200 377.067 C 399.200 375.380,399.032 374.000,398.826 374.000 C 398.610 374.000,398.538 375.223,398.655 376.895 M398.971 381.200 C 398.971 381.613,399.186 381.827,399.486 381.712 C 399.769 381.603,400.000 381.373,400.000 381.200 C 400.000 381.027,399.769 380.797,399.486 380.688 C 399.186 380.573,398.971 380.787,398.971 381.200 M5.374 388.842 C 5.025 389.407,4.400 389.260,4.400 388.613 C 4.400 388.256,4.635 388.115,4.998 388.254 C 5.326 388.381,5.496 388.645,5.374 388.842 M395.600 388.600 C 395.600 388.930,395.431 389.200,395.224 389.200 C 394.719 389.200,394.358 388.575,394.678 388.256 C 395.128 387.805,395.600 387.981,395.600 388.600 M7.200 389.449 C 7.200 390.008,7.106 390.022,6.523 389.549 C 6.151 389.247,5.969 389.205,6.119 389.455 C 6.269 389.705,6.138 390.120,5.828 390.377 C 5.391 390.739,5.282 390.727,5.343 390.322 C 5.560 388.894,7.200 388.123,7.200 389.449 M394.265 389.300 C 394.853 390.241,394.797 390.895,394.172 390.377 C 393.862 390.120,393.731 389.705,393.881 389.455 C 394.031 389.205,393.849 389.247,393.477 389.549 C 392.894 390.022,392.800 390.008,392.800 389.449 C 392.800 388.684,393.816 388.581,394.265 389.300 M9.287 392.259 C 9.129 393.084,9.208 393.248,9.642 393.001 C 10.116 392.731,10.117 392.767,9.650 393.241 C 9.222 393.676,9.059 393.688,8.916 393.298 C 8.815 393.021,8.539 392.914,8.304 393.059 C 7.864 393.332,8.156 392.676,8.911 391.700 C 9.462 390.987,9.515 391.066,9.287 392.259 M391.372 392.929 C 390.972 393.970,390.600 393.722,390.600 392.414 C 390.600 391.448,390.695 391.324,391.115 391.743 C 391.398 392.026,391.514 392.560,391.372 392.929 M10.000 394.900 C 10.000 395.806,11.171 397.187,11.187 396.300 C 11.194 395.915,11.009 395.600,10.776 395.600 C 10.543 395.600,10.456 395.432,10.583 395.228 C 10.709 395.023,10.630 394.742,10.407 394.604 C 10.183 394.466,10.000 394.599,10.000 394.900 M389.450 394.720 C 389.286 394.984,389.298 395.203,389.476 395.206 C 389.654 395.209,389.553 395.369,389.251 395.560 C 388.949 395.751,388.784 396.153,388.884 396.453 C 389.010 396.829,389.218 396.713,389.559 396.077 C 390.089 395.087,389.989 393.847,389.450 394.720 M207.200 398.938 C 207.200 400.154,209.307 400.541,209.743 399.405 C 209.944 398.880,219.702 398.809,291.648 398.809 C 336.571 398.808,373.415 398.718,373.525 398.608 C 373.963 398.170,210.363 398.392,209.544 398.830 C 208.907 399.171,208.569 399.115,207.967 398.570 C 207.229 397.903,207.200 397.917,207.200 398.938 M21.702 398.872 C 21.316 399.021,22.125 399.156,23.500 399.172 C 24.875 399.187,26.000 399.036,26.000 398.835 C 26.000 398.425,22.784 398.453,21.702 398.872 M26.474 398.608 C 26.584 398.718,63.428 398.805,108.349 398.802 C 180.698 398.797,190.050 398.865,190.255 399.398 C 190.551 400.171,192.245 400.182,192.540 399.413 C 192.664 399.090,192.608 398.729,192.417 398.610 C 192.225 398.492,191.994 398.619,191.902 398.893 C 191.770 399.290,191.515 399.290,190.645 398.893 C 189.558 398.398,25.980 398.113,26.474 398.608 M374.000 398.821 C 374.000 399.029,375.110 399.200,376.467 399.200 C 377.823 399.200,378.840 399.107,378.726 398.993 C 378.331 398.598,374.000 398.440,374.000 398.821 " stroke="none" fill="#047cd4" fill-rule="evenodd"></path><path id="path1" d="M19.200 0.372 C 19.200 1.271,190.000 1.399,190.300 0.500 C 190.433 0.101,173.162 0.000,104.833 0.000 C 52.372 0.000,19.200 0.144,19.200 0.372 M192.402 95.800 C 192.399 156.569,192.537 191.600,192.780 191.600 C 192.990 191.600,192.856 192.136,192.481 192.792 L 191.800 193.984 97.600 193.895 L 3.400 193.805 96.933 193.702 C 171.461 193.619,190.432 193.497,190.300 193.099 C 190.168 192.703,170.955 192.579,96.797 192.499 L 3.461 192.398 2.653 193.266 C 2.146 193.810,1.786 193.959,1.688 193.664 C 1.602 193.406,1.412 193.269,1.266 193.359 C 1.120 193.450,1.018 155.966,1.039 110.062 C 1.079 25.732,1.036 20.000,0.370 20.000 C 0.145 20.000,0.000 54.184,0.000 107.353 L 0.000 194.707 0.900 194.948 C 2.702 195.431,191.660 195.230,193.005 194.744 C 194.297 194.276,195.656 191.952,194.803 191.668 C 194.534 191.578,194.433 160.127,194.499 96.867 L 194.597 2.200 194.800 96.400 L 195.003 190.600 195.096 96.200 C 195.196 -4.944,195.275 0.000,193.557 0.000 L 192.406 0.000 192.402 95.800 M205.200 0.400 C 205.200 0.620,205.414 0.800,205.676 0.800 C 205.939 0.800,205.804 1.083,205.376 1.430 C 204.949 1.776,204.825 1.945,205.100 1.806 C 205.375 1.667,205.600 1.698,205.600 1.876 C 205.817 158.561,205.764 191.884,205.300 191.706 C 205.025 191.601,204.800 191.724,204.800 191.981 C 204.800 192.237,204.968 192.344,205.172 192.217 C 205.377 192.091,205.658 192.170,205.796 192.393 C 205.934 192.617,205.873 192.800,205.661 192.800 C 204.759 192.800,205.766 194.299,206.957 194.730 C 208.336 195.229,397.252 195.443,399.100 194.948 L 400.000 194.707 400.000 107.353 C 400.000 54.184,399.855 20.000,399.630 20.000 C 398.964 20.000,398.921 25.737,398.961 110.062 C 398.982 155.966,398.880 193.450,398.734 193.359 C 398.588 193.269,398.398 193.406,398.312 193.664 C 398.214 193.959,397.854 193.810,397.347 193.266 L 396.539 192.398 303.203 192.499 C 229.045 192.579,209.832 192.703,209.700 193.099 C 209.568 193.497,228.539 193.619,303.067 193.702 L 396.600 193.805 302.300 193.896 C 237.075 193.959,208.000 193.858,208.000 193.570 C 208.000 193.340,207.831 193.257,207.624 193.385 C 207.400 193.523,207.340 193.045,207.476 192.209 C 207.636 191.225,207.554 190.800,207.203 190.800 C 206.826 190.800,206.814 190.665,207.154 190.256 C 207.619 189.695,207.788 4.088,207.325 1.300 C 207.118 0.054,205.200 -0.758,205.200 0.400 M209.700 0.500 C 210.000 1.399,380.800 1.271,380.800 0.372 C 380.800 0.144,347.628 0.000,295.167 0.000 C 226.838 0.000,209.567 0.101,209.700 0.500 M14.454 1.924 C 14.422 2.231,14.194 2.323,13.900 2.147 C 13.569 1.948,13.588 2.078,13.957 2.532 C 14.443 3.132,14.431 3.187,13.857 2.966 C 13.460 2.814,13.200 2.916,13.200 3.224 C 13.200 3.504,13.313 3.620,13.451 3.483 C 13.589 3.345,14.298 3.481,15.027 3.785 C 16.167 4.262,16.321 4.260,16.133 3.769 C 16.013 3.456,15.676 3.200,15.385 3.200 C 15.094 3.200,14.778 2.795,14.682 2.300 C 14.587 1.805,14.484 1.636,14.454 1.924 M385.232 2.300 C 385.214 2.795,384.949 3.200,384.643 3.200 C 384.336 3.200,383.978 3.479,383.847 3.821 C 383.705 4.191,383.776 4.339,384.022 4.186 C 384.249 4.046,384.681 4.135,384.982 4.385 C 385.392 4.725,385.603 4.718,385.826 4.358 C 386.008 4.063,385.955 3.981,385.689 4.145 C 385.451 4.292,385.142 4.230,385.004 4.007 C 384.786 3.653,385.590 3.409,386.500 3.553 C 386.665 3.579,386.800 3.401,386.800 3.157 C 386.800 2.911,386.509 2.826,386.143 2.966 C 385.569 3.187,385.557 3.132,386.043 2.532 C 386.350 2.155,386.390 1.972,386.134 2.126 C 385.878 2.279,385.577 2.179,385.466 1.902 C 385.354 1.626,385.249 1.805,385.232 2.300 M193.900 143.268 C 193.843 169.081,193.797 148.080,193.797 96.600 C 193.797 45.120,193.843 24.001,193.900 49.668 C 193.957 75.335,193.957 117.455,193.900 143.268 M204.997 96.800 C 204.997 148.390,205.043 169.495,205.100 143.700 C 205.157 117.905,205.157 75.695,205.100 49.900 C 205.043 24.105,204.997 45.210,204.997 96.800 M388.400 3.638 C 388.400 3.786,388.730 3.993,389.133 4.098 C 389.564 4.211,389.867 4.078,389.867 3.775 C 389.867 3.492,389.537 3.285,389.133 3.315 C 388.730 3.345,388.400 3.491,388.400 3.638 M10.877 4.830 C 10.956 5.067,11.191 5.260,11.400 5.260 C 11.609 5.260,11.845 5.067,11.923 4.830 C 12.002 4.594,11.767 4.400,11.400 4.400 C 11.033 4.400,10.798 4.594,10.877 4.830 M388.254 4.998 C 388.381 5.326,388.645 5.496,388.842 5.374 C 389.407 5.025,389.260 4.400,388.613 4.400 C 388.256 4.400,388.115 4.635,388.254 4.998 M9.623 5.828 C 9.880 6.138,10.295 6.269,10.545 6.119 C 10.795 5.969,10.753 6.151,10.451 6.523 C 9.978 7.106,9.992 7.200,10.551 7.200 C 11.877 7.200,11.106 5.560,9.678 5.343 C 9.273 5.282,9.261 5.391,9.623 5.828 M389.213 5.747 C 388.585 6.375,388.719 7.200,389.449 7.200 C 390.008 7.200,390.022 7.106,389.549 6.523 C 389.247 6.151,389.205 5.969,389.455 6.119 C 389.705 6.269,390.107 6.153,390.348 5.862 C 390.891 5.208,389.858 5.102,389.213 5.747 M390.562 6.462 C 390.385 6.748,390.452 6.815,390.738 6.638 C 390.992 6.481,391.200 6.543,391.200 6.776 C 391.200 7.009,391.350 7.200,391.533 7.200 C 391.717 7.200,391.867 6.930,391.867 6.600 C 391.867 5.893,390.972 5.798,390.562 6.462 M392.259 8.427 L 391.117 9.505 392.218 9.294 C 393.080 9.130,393.250 9.205,393.001 9.642 C 392.739 10.101,392.781 10.108,393.238 9.683 C 393.705 9.249,393.707 9.113,393.249 8.830 C 392.808 8.558,392.838 8.419,393.403 8.102 C 393.788 7.887,393.945 7.629,393.751 7.530 C 393.558 7.430,392.886 7.834,392.259 8.427 M6.900 8.665 C 6.020 9.020,6.364 9.400,7.566 9.400 C 8.453 9.400,8.633 9.281,8.317 8.900 C 7.878 8.371,7.701 8.342,6.900 8.665 M4.972 9.245 C 4.821 9.489,4.946 9.847,5.249 10.039 C 5.748 10.355,5.463 10.568,4.700 10.447 C 4.535 10.421,4.400 10.580,4.400 10.800 C 4.400 11.020,4.130 11.200,3.800 11.200 C 3.470 11.200,3.200 11.351,3.200 11.536 C 3.200 11.720,3.815 11.856,4.567 11.837 C 5.564 11.811,5.828 11.675,5.545 11.333 C 5.281 11.015,5.361 10.750,5.794 10.507 C 6.186 10.288,6.333 9.890,6.173 9.475 C 5.875 8.698,5.370 8.601,4.972 9.245 M393.964 9.443 C 393.521 9.977,393.549 10.140,394.141 10.471 C 394.734 10.803,394.762 10.970,394.322 11.532 C 393.871 12.110,393.883 12.136,394.413 11.723 C 394.810 11.414,395.234 11.377,395.613 11.617 C 396.380 12.102,396.800 12.096,396.800 11.600 C 396.800 11.380,396.530 11.200,396.200 11.200 C 395.870 11.200,395.600 11.020,395.600 10.800 C 395.600 10.580,395.465 10.421,395.300 10.447 C 394.529 10.569,394.342 10.352,394.770 9.836 C 395.047 9.502,395.086 9.177,394.865 9.040 C 394.659 8.913,394.254 9.094,393.964 9.443 M2.966 13.857 C 3.187 14.431,3.132 14.443,2.532 13.957 C 2.155 13.650,1.972 13.610,2.126 13.866 C 2.279 14.122,2.179 14.423,1.902 14.534 C 1.626 14.646,1.805 14.751,2.300 14.768 C 2.795 14.786,3.200 15.051,3.200 15.357 C 3.200 15.664,3.456 16.013,3.769 16.133 C 4.260 16.321,4.262 16.167,3.785 15.027 C 3.481 14.298,3.345 13.589,3.483 13.451 C 3.620 13.313,3.504 13.200,3.224 13.200 C 2.916 13.200,2.814 13.460,2.966 13.857 M396.447 13.500 C 396.591 14.410,396.347 15.214,395.993 14.996 C 395.770 14.858,395.708 14.549,395.855 14.311 C 396.019 14.045,395.937 13.992,395.642 14.174 C 395.282 14.397,395.275 14.608,395.615 15.018 C 395.865 15.319,395.954 15.751,395.814 15.978 C 395.661 16.224,395.809 16.295,396.179 16.153 C 396.521 16.022,396.800 15.664,396.800 15.357 C 396.800 15.051,397.205 14.786,397.700 14.768 C 398.195 14.751,398.374 14.646,398.098 14.534 C 397.821 14.423,397.721 14.122,397.874 13.866 C 398.028 13.610,397.845 13.650,397.468 13.957 C 396.868 14.443,396.813 14.431,397.034 13.857 C 397.174 13.491,397.089 13.200,396.843 13.200 C 396.599 13.200,396.421 13.335,396.447 13.500 M143.932 194.700 C 118.045 194.757,75.565 194.757,49.532 194.700 C 23.499 194.643,44.680 194.597,96.600 194.597 C 148.520 194.597,169.819 194.643,143.932 194.700 M350.732 194.700 C 324.845 194.757,282.365 194.757,256.332 194.700 C 230.299 194.643,251.480 194.597,303.400 194.597 C 355.320 194.597,376.619 194.643,350.732 194.700 M0.700 205.076 C -0.096 205.284,-0.424 380.800,0.372 380.800 C 1.012 380.800,1.050 375.463,1.025 289.904 C 1.000 204.894,0.994 205.223,2.410 206.531 C 2.806 206.897,2.847 206.876,2.597 206.438 C 2.382 206.062,2.429 205.971,2.738 206.162 C 2.992 206.319,3.200 206.707,3.200 207.024 C 3.200 207.874,189.360 207.898,190.210 207.048 C 190.513 206.744,190.635 206.359,190.481 206.193 C 190.326 206.027,190.560 206.072,191.000 206.292 C 191.440 206.512,192.025 206.611,192.300 206.513 C 192.575 206.414,192.800 206.528,192.800 206.767 C 192.800 207.005,192.609 207.200,192.376 207.200 C 192.143 207.200,192.053 207.362,192.175 207.559 C 192.297 207.757,192.399 251.137,192.402 303.959 L 192.406 400.000 193.557 400.000 C 195.275 400.000,195.196 404.944,195.096 303.800 L 195.003 209.400 194.800 303.600 L 194.597 397.800 194.499 303.133 C 194.433 239.873,194.534 208.422,194.803 208.332 C 195.656 208.048,194.297 205.724,193.005 205.256 C 191.766 204.808,2.404 204.630,0.700 205.076 M206.729 205.310 C 205.701 205.717,204.863 207.200,205.661 207.200 C 205.873 207.200,205.934 207.383,205.796 207.607 C 205.658 207.830,205.377 207.909,205.172 207.783 C 204.968 207.656,204.800 207.763,204.800 208.019 C 204.800 208.276,205.025 208.399,205.300 208.294 C 205.764 208.116,205.817 241.439,205.600 398.124 C 205.600 398.302,205.375 398.333,205.100 398.194 C 204.825 398.055,204.949 398.224,205.376 398.570 C 205.804 398.917,205.939 399.200,205.676 399.200 C 205.414 399.200,205.200 399.380,205.200 399.600 C 205.200 400.758,207.118 399.946,207.325 398.700 C 207.788 395.912,207.619 210.305,207.154 209.744 C 206.814 209.335,206.826 209.200,207.203 209.200 C 207.555 209.200,207.635 208.773,207.473 207.774 C 207.309 206.759,207.380 206.397,207.721 206.520 C 207.984 206.614,208.560 206.512,209.000 206.292 C 209.440 206.072,209.674 206.027,209.519 206.193 C 209.365 206.359,209.487 206.744,209.790 207.048 C 210.640 207.898,396.800 207.874,396.800 207.024 C 396.800 206.707,397.008 206.319,397.262 206.162 C 397.571 205.971,397.618 206.062,397.403 206.438 C 397.153 206.876,397.194 206.897,397.590 206.531 C 399.006 205.223,399.001 204.891,398.964 289.904 C 398.927 374.782,398.971 380.800,399.628 380.800 C 399.856 380.800,400.000 346.813,400.000 293.047 L 400.000 205.293 399.100 205.052 C 397.407 204.598,207.884 204.852,206.729 205.310 M144.300 205.500 C 118.175 205.557,75.425 205.557,49.300 205.500 C 23.175 205.443,44.550 205.397,96.800 205.397 C 149.050 205.397,170.425 205.443,144.300 205.500 M350.700 205.500 C 324.575 205.557,281.825 205.557,255.700 205.500 C 229.575 205.443,250.950 205.397,303.200 205.397 C 355.450 205.397,376.825 205.443,350.700 205.500 M194.308 207.675 C 194.221 207.936,193.932 208.193,193.665 208.245 C 193.334 208.310,193.325 208.270,193.635 208.122 C 193.955 207.968,193.928 207.800,193.545 207.558 C 193.124 207.291,193.167 207.211,193.733 207.206 C 194.137 207.203,194.395 207.414,194.308 207.675 M204.997 303.200 C 204.997 354.790,205.043 375.895,205.100 350.100 C 205.157 324.305,205.157 282.095,205.100 256.300 C 205.043 230.505,204.997 251.610,204.997 303.200 M193.900 350.068 C 193.843 375.881,193.797 354.880,193.797 303.400 C 193.797 251.920,193.843 230.801,193.900 256.468 C 193.957 282.135,193.957 324.255,193.900 350.068 M3.700 383.865 C 3.425 383.976,3.200 384.322,3.200 384.633 C 3.200 384.945,2.795 385.214,2.300 385.232 C 1.805 385.249,1.626 385.354,1.902 385.466 C 2.179 385.577,2.279 385.878,2.126 386.134 C 1.972 386.390,2.155 386.350,2.532 386.043 C 3.132 385.557,3.187 385.569,2.966 386.143 C 2.826 386.509,2.911 386.800,3.157 386.800 C 3.401 386.800,3.579 386.665,3.553 386.500 C 3.409 385.590,3.653 384.786,4.007 385.004 C 4.230 385.142,4.292 385.451,4.145 385.689 C 3.981 385.955,4.063 386.008,4.358 385.826 C 4.718 385.603,4.725 385.392,4.385 384.982 C 4.135 384.681,4.047 384.247,4.189 384.018 C 4.468 383.567,4.451 383.562,3.700 383.865 M396.215 384.973 C 396.519 385.702,396.655 386.411,396.517 386.549 C 396.380 386.687,396.496 386.800,396.776 386.800 C 397.084 386.800,397.186 386.540,397.034 386.143 C 396.813 385.569,396.868 385.557,397.468 386.043 C 397.845 386.350,398.028 386.390,397.874 386.134 C 397.721 385.878,397.821 385.577,398.098 385.466 C 398.374 385.354,398.195 385.249,397.700 385.232 C 397.205 385.214,396.800 384.949,396.800 384.643 C 396.800 384.336,396.544 383.987,396.231 383.867 C 395.740 383.679,395.738 383.833,396.215 384.973 M4.400 388.613 C 4.400 389.260,5.025 389.407,5.374 388.842 C 5.496 388.645,5.326 388.381,4.998 388.254 C 4.635 388.115,4.400 388.256,4.400 388.613 M394.678 388.256 C 394.358 388.575,394.719 389.200,395.224 389.200 C 395.431 389.200,395.600 388.930,395.600 388.600 C 395.600 387.981,395.128 387.805,394.678 388.256 M3.315 389.133 C 3.285 389.537,3.492 389.867,3.775 389.867 C 4.078 389.867,4.211 389.564,4.098 389.133 C 3.993 388.730,3.786 388.400,3.638 388.400 C 3.491 388.400,3.345 388.730,3.315 389.133 M5.735 389.300 C 5.147 390.241,5.203 390.895,5.828 390.377 C 6.138 390.120,6.269 389.705,6.119 389.455 C 5.969 389.205,6.151 389.247,6.523 389.549 C 7.106 390.022,7.200 390.008,7.200 389.449 C 7.200 388.684,6.184 388.581,5.735 389.300 M392.800 389.449 C 392.800 390.008,392.894 390.022,393.477 389.549 C 393.849 389.247,394.031 389.205,393.881 389.455 C 393.731 389.705,393.862 390.120,394.172 390.377 C 394.609 390.739,394.718 390.727,394.657 390.322 C 394.440 388.894,392.800 388.123,392.800 389.449 M6.267 390.667 C 5.787 391.147,5.987 391.867,6.600 391.867 C 6.930 391.867,7.200 391.717,7.200 391.533 C 7.200 391.350,7.009 391.200,6.776 391.200 C 6.543 391.200,6.464 391.020,6.600 390.800 C 6.880 390.347,6.670 390.263,6.267 390.667 M8.326 392.399 C 7.747 393.059,7.418 393.688,7.595 393.797 C 7.772 393.906,8.035 393.686,8.180 393.309 C 8.404 392.724,8.496 392.709,8.805 393.208 C 9.113 393.707,9.243 393.711,9.683 393.238 C 10.108 392.781,10.101 392.739,9.642 393.001 C 9.208 393.248,9.129 393.084,9.287 392.259 C 9.535 390.961,9.596 390.952,8.326 392.399 M390.600 392.414 C 390.600 393.722,390.972 393.970,391.372 392.929 C 391.514 392.560,391.398 392.026,391.115 391.743 C 390.695 391.324,390.600 391.448,390.600 392.414 M9.230 394.164 C 8.935 394.520,8.906 394.819,9.153 394.971 C 9.368 395.104,9.660 395.027,9.800 394.800 C 9.940 394.573,10.226 394.492,10.434 394.621 C 10.643 394.750,10.709 395.023,10.583 395.228 C 10.456 395.432,10.543 395.600,10.776 395.600 C 11.009 395.600,11.200 395.870,11.200 396.200 C 11.200 396.530,11.380 396.800,11.600 396.800 C 12.096 396.800,12.102 396.380,11.617 395.613 C 11.377 395.234,11.414 394.810,11.723 394.413 C 12.140 393.877,12.113 393.869,11.505 394.345 C 10.909 394.812,10.774 394.798,10.562 394.245 C 10.257 393.451,9.843 393.426,9.230 394.164 M389.438 394.245 C 389.261 394.707,389.050 394.773,388.694 394.478 C 388.316 394.165,388.190 394.393,388.163 395.433 C 388.144 396.185,388.280 396.800,388.464 396.800 C 388.649 396.800,388.800 396.530,388.800 396.200 C 388.800 395.870,388.980 395.600,389.200 395.600 C 389.420 395.600,389.579 395.465,389.553 395.300 C 389.429 394.514,389.650 394.259,389.989 394.797 C 390.296 395.282,390.462 395.298,390.880 394.880 C 391.298 394.462,391.282 394.296,390.797 393.989 C 389.961 393.461,389.722 393.506,389.438 394.245 M14.174 395.642 C 13.992 395.937,14.045 396.019,14.311 395.855 C 14.549 395.708,14.858 395.770,14.996 395.993 C 15.214 396.347,14.410 396.591,13.500 396.447 C 13.335 396.421,13.200 396.599,13.200 396.843 C 13.200 397.089,13.491 397.174,13.857 397.034 C 14.431 396.813,14.443 396.868,13.957 397.468 C 13.650 397.845,13.610 398.028,13.866 397.874 C 14.122 397.721,14.423 397.821,14.534 398.098 C 14.646 398.374,14.751 398.195,14.768 397.700 C 14.786 397.205,15.051 396.800,15.357 396.800 C 15.664 396.800,16.022 396.521,16.153 396.179 C 16.295 395.809,16.224 395.661,15.978 395.814 C 15.751 395.954,15.319 395.865,15.018 395.615 C 14.608 395.275,14.397 395.282,14.174 395.642 M383.867 396.231 C 383.987 396.544,384.336 396.800,384.643 396.800 C 384.949 396.800,385.214 397.205,385.232 397.700 C 385.249 398.195,385.354 398.374,385.466 398.098 C 385.577 397.821,385.878 397.721,386.134 397.874 C 386.390 398.028,386.350 397.845,386.043 397.468 C 385.557 396.868,385.569 396.813,386.143 397.034 C 386.540 397.186,386.800 397.084,386.800 396.776 C 386.800 396.496,386.687 396.380,386.549 396.517 C 386.411 396.655,385.702 396.519,384.973 396.215 C 383.833 395.738,383.679 395.740,383.867 396.231 M23.100 399.099 C 21.395 399.173,20.000 399.406,20.000 399.617 C 20.000 399.860,51.173 400.000,105.233 400.000 C 173.242 400.000,190.433 399.899,190.300 399.500 C 190.146 399.037,33.167 398.661,23.100 399.099 M209.862 399.071 C 209.718 399.215,209.600 399.483,209.600 399.667 C 209.600 399.850,247.940 400.000,294.800 400.000 C 346.652 400.000,380.000 399.855,380.000 399.630 C 380.000 398.919,210.571 398.362,209.862 399.071 " stroke="none" fill="#0474d4" fill-rule="evenodd"></path><path id="path2" d="M205.000 95.833 C 205.000 156.051,205.141 191.600,205.380 191.600 C 205.589 191.600,205.544 191.816,205.280 192.080 C 205.016 192.344,204.805 192.839,204.812 193.180 C 204.822 193.705,204.885 193.696,205.218 193.125 C 205.473 192.688,205.609 158.994,205.604 97.325 C 205.598 12.178,205.539 0.606,205.113 0.179 C 205.051 0.117,205.000 43.162,205.000 95.833 M14.519 1.641 C 14.758 2.025,15.234 2.336,15.577 2.332 C 41.748 2.070,189.847 2.507,190.257 2.847 C 191.067 3.519,191.069 189.679,190.259 190.351 C 189.385 191.076,3.449 190.982,2.846 190.255 C 2.516 189.858,2.397 166.853,2.400 103.957 C 2.402 56.791,2.403 17.478,2.402 16.596 C 2.399 13.900,1.035 13.510,0.882 16.161 C 0.818 17.282,0.593 18.260,0.382 18.333 C -0.185 18.531,-0.081 20.000,0.500 20.000 C 1.349 20.001,1.349 19.987,1.375 107.300 C 1.389 154.105,1.546 192.400,1.724 192.400 C 1.902 192.400,1.917 192.611,1.757 192.869 C 1.598 193.127,1.897 193.037,2.423 192.669 C 3.903 191.632,190.156 191.635,190.736 192.672 C 191.384 193.830,192.560 192.301,192.243 190.714 C 191.949 189.244,191.917 3.777,192.211 2.600 C 192.559 1.206,191.852 0.599,190.522 1.149 C 189.429 1.602,26.528 1.561,17.342 1.106 C 14.322 0.956,14.115 0.995,14.519 1.641 M208.238 1.139 C 207.919 1.655,207.921 191.729,208.240 192.561 C 208.549 193.364,209.045 193.382,209.345 192.600 C 209.611 191.906,396.070 191.677,397.164 192.369 C 397.474 192.565,397.924 192.651,398.164 192.559 C 398.477 192.438,398.575 168.556,398.511 107.681 C 398.423 23.619,398.471 20.000,399.667 20.000 C 399.850 20.000,400.000 19.640,400.000 19.200 C 400.000 18.760,399.820 18.400,399.600 18.400 C 399.380 18.400,399.187 17.815,399.172 17.100 C 399.133 15.290,398.709 14.362,398.096 14.740 C 397.694 14.989,397.594 32.630,397.598 102.383 C 397.602 166.569,397.484 189.858,397.153 190.257 C 396.526 191.012,210.435 191.075,209.680 190.320 C 208.925 189.565,208.988 3.474,209.743 2.847 C 210.152 2.508,364.943 2.055,384.468 2.336 C 384.835 2.341,385.228 2.104,385.341 1.809 C 385.651 1.002,383.976 0.743,380.697 1.092 C 376.798 1.507,209.978 1.488,209.140 1.073 C 208.764 0.886,208.377 0.914,208.238 1.139 M11.575 2.825 C 10.619 3.553,10.618 3.563,11.500 3.337 C 11.995 3.210,12.400 2.953,12.400 2.766 C 12.400 2.578,12.670 2.529,13.000 2.655 C 13.330 2.782,13.600 2.796,13.600 2.686 C 13.600 2.097,12.425 2.179,11.575 2.825 M386.558 2.468 C 386.364 2.783,386.487 2.852,386.934 2.681 C 387.300 2.540,387.600 2.578,387.600 2.766 C 387.600 2.953,388.005 3.210,388.500 3.337 C 389.369 3.560,389.365 3.541,388.400 2.793 C 387.229 1.885,386.949 1.836,386.558 2.468 M194.597 96.600 C 194.597 148.520,194.643 169.701,194.700 143.668 C 194.757 117.635,194.757 75.155,194.700 49.268 C 194.643 23.381,194.597 44.680,194.597 96.600 M2.523 11.952 C 2.218 12.440,2.203 12.853,2.474 13.236 C 2.797 13.689,2.833 13.667,2.660 13.125 C 2.534 12.731,2.680 12.398,3.012 12.325 C 3.345 12.251,3.454 12.001,3.276 11.716 C 3.055 11.363,2.850 11.427,2.523 11.952 M396.662 11.782 C 396.516 12.163,396.646 12.400,397.000 12.400 C 397.375 12.400,397.489 12.644,397.329 13.100 C 397.136 13.648,397.192 13.699,397.587 13.334 C 397.993 12.959,397.975 12.699,397.496 12.016 C 396.998 11.305,396.860 11.266,396.662 11.782 M49.532 194.700 C 75.565 194.757,118.045 194.757,143.932 194.700 C 169.819 194.643,148.520 194.597,96.600 194.597 C 44.680 194.597,23.499 194.643,49.532 194.700 M256.332 194.700 C 282.365 194.757,324.845 194.757,350.732 194.700 C 376.619 194.643,355.320 194.597,303.400 194.597 C 251.480 194.597,230.299 194.643,256.332 194.700 M49.300 205.500 C 75.425 205.557,118.175 205.557,144.300 205.500 C 170.425 205.443,149.050 205.397,96.800 205.397 C 44.550 205.397,23.175 205.443,49.300 205.500 M255.700 205.500 C 281.825 205.557,324.575 205.557,350.700 205.500 C 376.825 205.443,355.450 205.397,303.200 205.397 C 250.950 205.397,229.575 205.443,255.700 205.500 M204.812 206.820 C 204.805 207.161,205.016 207.656,205.280 207.920 C 205.544 208.184,205.589 208.400,205.380 208.400 C 205.141 208.400,205.000 243.949,205.000 304.167 C 205.000 356.838,205.051 399.883,205.113 399.821 C 205.539 399.394,205.598 387.822,205.604 302.675 C 205.609 241.006,205.473 207.312,205.218 206.875 C 204.885 206.304,204.822 206.295,204.812 206.820 M190.654 207.403 C 190.449 207.939,179.798 208.005,96.015 207.997 L 1.607 207.987 1.471 294.093 C 1.397 341.452,1.209 380.830,1.053 381.600 C 0.663 383.535,1.072 385.624,1.787 385.349 C 2.094 385.232,2.341 384.835,2.336 384.468 C 2.057 365.057,2.508 210.152,2.845 209.746 C 3.448 209.020,189.384 208.922,190.258 209.648 C 191.069 210.321,191.068 396.480,190.257 397.153 C 189.858 397.484,166.569 397.602,102.383 397.598 C 32.630 397.594,14.989 397.694,14.740 398.096 C 14.362 398.709,15.290 399.133,17.100 399.172 C 17.815 399.187,18.400 399.380,18.400 399.600 C 18.400 399.820,18.760 400.000,19.200 400.000 C 19.640 400.000,20.000 399.850,20.000 399.667 C 20.000 398.492,23.923 398.435,106.228 398.409 C 170.758 398.389,189.765 398.492,190.591 398.869 C 191.833 399.435,192.555 398.780,192.211 397.400 C 191.928 396.264,191.955 210.382,192.238 209.341 C 192.659 207.793,191.193 205.999,190.654 207.403 M208.239 207.443 C 207.839 208.485,207.955 398.515,208.355 398.915 C 208.567 399.127,209.057 399.090,209.551 398.826 C 210.312 398.419,377.135 398.432,379.300 398.840 C 379.685 398.912,380.000 399.203,380.000 399.486 C 380.000 400.077,381.466 400.193,381.667 399.618 C 381.740 399.407,382.718 399.182,383.839 399.118 C 386.491 398.965,386.100 397.601,383.404 397.599 C 382.522 397.598,343.207 397.598,296.039 397.597 C 233.415 397.597,210.132 397.476,209.739 397.149 C 208.934 396.482,208.935 210.318,209.739 209.650 C 210.512 209.010,396.291 209.011,397.063 209.652 C 397.491 210.007,397.984 352.789,397.668 384.423 C 397.664 384.766,397.975 385.242,398.359 385.481 C 399.005 385.885,399.044 385.678,398.892 382.658 C 398.801 380.866,398.653 340.832,398.562 293.693 L 398.396 207.987 303.987 207.997 C 220.202 208.005,209.551 207.939,209.346 207.403 C 209.044 206.617,208.549 206.635,208.239 207.443 M194.597 303.400 C 194.597 355.320,194.643 376.501,194.700 350.468 C 194.757 324.435,194.757 281.955,194.700 256.068 C 194.643 230.181,194.597 251.480,194.597 303.400 M2.207 386.789 C 2.075 387.002,2.265 387.632,2.629 388.189 C 3.429 389.409,3.593 389.459,3.316 388.400 C 3.201 387.960,2.953 387.600,2.766 387.600 C 2.578 387.600,2.529 387.330,2.655 387.000 C 2.911 386.334,2.583 386.179,2.207 386.789 M397.350 386.900 C 397.474 387.285,397.422 387.600,397.234 387.600 C 397.047 387.600,396.799 387.960,396.684 388.400 C 396.411 389.443,396.570 389.410,397.319 388.267 C 397.749 387.612,397.811 387.166,397.527 386.767 C 397.206 386.315,397.170 386.342,397.350 386.900 M11.672 396.704 C 11.299 396.832,11.398 397.063,12.006 397.489 C 12.697 397.973,12.959 397.993,13.334 397.587 C 13.698 397.193,13.653 397.134,13.125 397.319 C 12.739 397.454,12.397 397.335,12.325 397.039 C 12.256 396.755,11.962 396.604,11.672 396.704 M387.600 397.000 C 387.600 397.347,387.362 397.483,387.000 397.345 C 386.670 397.218,386.400 397.204,386.400 397.314 C 386.400 397.808,387.498 397.864,388.129 397.403 C 388.732 396.961,388.743 396.864,388.212 396.660 C 387.838 396.516,387.600 396.648,387.600 397.000 " stroke="none" fill="#047cdc" fill-rule="evenodd"></path><path id="path3" d="" stroke="none" fill="#087cd4" fill-rule="evenodd"></path><path id="path4" d="" stroke="none" fill="#087cd4" fill-rule="evenodd"></path></g></svg>