<?xml version="1.0" standalone="no"?>
<!DOCTYPE svg PUBLIC "-//W3C//DTD SVG 20010904//EN"
 "http://www.w3.org/TR/2001/REC-SVG-20010904/DTD/svg10.dtd">
<svg version="1.0" xmlns="http://www.w3.org/2000/svg"
 width="465.000000pt" height="465.000000pt" viewBox="0 0 465.000000 465.000000"
 preserveAspectRatio="xMidYMid meet">

<g transform="translate(0.000000,465.000000) scale(0.100000,-0.100000)"
fill="#000000" stroke="none">
<path d="M1375 4371 c-3 -18 -5 -35 -3 -37 2 -2 433 -6 957 -9 l952 -7 -3 41
-3 41 -947 3 -947 2 -6 -34z"/>
<path d="M1382 4291 c7 -9 13 -17 14 -19 0 -1 14 4 30 13 24 12 26 15 9 16
-11 1 -30 3 -43 4 -19 2 -20 0 -10 -14z"/>
<path d="M3211 4303 l-23 -5 27 -14 c15 -8 33 -14 40 -14 7 0 16 -6 18 -12 3
-7 6 2 6 20 1 34 -6 36 -68 25z"/>
<path d="M609 4020 l-445 -5 -37 -25 c-20 -14 -48 -46 -62 -72 l-25 -46 2
-1599 3 -1598 28 -80 c47 -134 102 -220 207 -325 77 -78 112 -104 185 -142 50
-25 122 -57 160 -69 l70 -24 1585 -3 c1074 -2 1607 1 1653 8 143 22 303 102
419 209 119 110 195 236 241 400 l21 76 -3 1580 -3 1580 -24 42 c-14 25 -42
53 -67 67 l-43 25 -449 1 -450 1 -5 -28 -5 -28 -132 -2 -132 -3 -8 30 -8 31
-955 -1 c-525 0 -958 0 -962 0 -5 0 -8 -43 -8 -96 0 -91 -1 -96 -20 -91 -11 3
-18 2 -16 -2 3 -4 -30 -8 -72 -9 -42 -1 -95 -5 -116 -8 -26 -4 -42 -1 -47 8
-5 7 -9 52 -9 99 0 58 -4 89 -12 95 -7 5 -212 7 -459 4z m2679 -1450 c1 -228
0 -425 -3 -437 l-5 -23 -440 0 -440 0 0 433 c0 239 3 437 7 440 3 4 203 6 442
5 l436 -3 3 -415z m-3 -632 c3 -13 4 -212 3 -443 l-3 -420 -440 0 -440 0 -3
430 c-1 237 0 436 3 443 3 9 101 12 439 12 l436 0 5 -22z m-1045 -423 l0 -435
-435 0 -435 0 0 435 0 435 435 0 435 0 0 -435z"/>
</g>
</svg>
